<?xml version="1.0" encoding="utf-8"?>
<svg version="1.1" viewBox="0.0 0.0 960.0 540.0" fill="none" stroke="none" stroke-linecap="square" stroke-miterlimit="10" xmlns="http://www.w3.org/2000/svg">
  <clipPath id="g4b8900641e_0_39.0">
    <path d="m0 0l960.0 0l0 540.0l-960.0 0l0 -540.0z" clip-rule="nonzero"/>
  </clipPath>
  <g clip-path="url(#g4b8900641e_0_39.0)">
    <path fill="#ffffff" d="m0 0l960.0 0l0 540.0l-960.0 0z" fill-rule="evenodd"/>
    <path fill="#000000" fill-opacity="0.0" d="m494.6273 171.8189c11.097992 5.206482 49.11551 16.98294 66.58792 31.238846c17.472473 14.255905 37.939636 34.83377 38.246704 54.2966c0.3071289 19.4628 -18.06427 47.97592 -36.404175 62.480316c-18.339905 14.504364 -61.36264 20.454926 -73.63516 24.545929" fill-rule="evenodd"/>
    <path stroke="#b7b7b7" stroke-width="8.0" stroke-linejoin="round" stroke-linecap="butt" d="m494.6273 171.8189c11.097992 5.2064667 49.11551 16.98294 66.58792 31.238846c17.472473 14.255905 37.939636 34.83377 38.246704 54.2966c0.3071289 19.46283 -18.06427 47.975952 -36.404175 62.480316c-9.169922 7.2521667 -24.51062 12.365906 -39.092834 16.177979c-1.822815 0.47650146 -3.633728 0.9326782 -5.4192505 1.3701477c-0.44641113 0.109375 -0.89123535 0.21755981 -1.3342285 0.32461548l-1.1300659 0.2713318" fill-rule="evenodd"/>
    <path fill="#b7b7b7" stroke="#b7b7b7" stroke-width="8.0" stroke-linecap="butt" d="m516.08136 337.97873l6.647217 -10.848694l-21.934082 14.519684l26.13556 2.9762268z" fill-rule="evenodd"/>
    <path fill="#000000" fill-opacity="0.0" d="m401.476 351.0927c-9.114777 -5.206482 -40.33853 -16.98294 -54.68866 -31.238861c-14.350128 -14.25589 -31.15982 -34.83377 -31.412018 -54.29657c-0.25222778 -19.46283 14.836212 -47.975952 29.898743 -62.48033c15.062561 -14.504364 50.397156 -20.45494 60.476593 -24.545929" fill-rule="evenodd"/>
    <path stroke="#b7b7b7" stroke-width="8.0" stroke-linejoin="round" stroke-linecap="butt" d="m401.476 351.09268c-9.114807 -5.2064514 -40.33853 -16.98291 -54.68866 -31.23883c-14.350128 -14.25589 -31.15982 -34.83377 -31.412018 -54.29657c-0.25222778 -19.46283 14.836182 -47.975952 29.898743 -62.48033c7.5312805 -7.252182 20.130585 -12.365906 32.106964 -16.177979c0.37423706 -0.119140625 0.7479248 -0.23698425 1.1207886 -0.35359192l0.94210815 -0.29216003" fill-rule="evenodd"/>
    <path fill="#b7b7b7" stroke="#b7b7b7" stroke-width="8.0" stroke-linecap="butt" d="m379.44394 186.25322l-6.098419 11.166428l21.18341 -15.594543l-26.251404 -1.6703186z" fill-rule="evenodd"/>
    <path fill="#000000" fill-opacity="0.0" d="m451.85565 199.21785l0 115.05513" fill-rule="evenodd"/>
    <path stroke="#b7b7b7" stroke-width="8.0" stroke-linejoin="round" stroke-linecap="butt" d="m451.85565 199.21785l0 87.63844" fill-rule="evenodd"/>
    <path fill="#b7b7b7" stroke="#b7b7b7" stroke-width="8.0" stroke-linecap="butt" d="m451.85565 286.85626l-8.996674 -8.996643l8.996674 24.71814l8.996674 -24.71814z" fill-rule="evenodd"/>
    <path fill="#000000" fill-opacity="0.0" d="m32.72441 46.721786l852.4094 0l0 60.125984l-852.4094 0z" fill-rule="evenodd"/>
    <path fill="#000000" d="m306.2216 91.56178l0 -26.71875l9.203125 0q3.125 0 4.765625 0.375q2.296875 0.53125 3.921875 1.921875q2.109375 1.78125 3.15625 4.5625q1.046875 2.78125 1.046875 6.359375q0 3.03125 -0.71875 5.390625q-0.703125 2.34375 -1.8125 3.890625q-1.109375 1.546875 -2.4375 2.4375q-1.3125 0.875 -3.1875 1.328125q-1.859375 0.453125 -4.296875 0.453125l-9.640625 0zm3.546875 -3.15625l5.703125 0q2.640625 0 4.140625 -0.484375q1.5 -0.5 2.40625 -1.390625q1.25 -1.25 1.953125 -3.375q0.703125 -2.125 0.703125 -5.15625q0 -4.1875 -1.375 -6.4375q-1.375 -2.25 -3.34375 -3.015625q-1.421875 -0.546875 -4.578125 -0.546875l-5.609375 0l0 20.40625zm23.300934 3.15625l0 -26.71875l5.328125 0l6.328125 18.921875q0.875 2.640625 1.265625 3.953125q0.46875 -1.453125 1.421875 -4.28125l6.40625 -18.59375l4.75 0l0 26.71875l-3.40625 0l0 -22.359375l-7.765625 22.359375l-3.1875 0l-7.734375 -22.75l0 22.75l-3.40625 0zm30.000885 -8.578125l3.34375 -0.296875q0.234375 2.0 1.09375 3.296875q0.875 1.28125 2.6875 2.078125q1.828125 0.78125 4.109375 0.78125q2.015625 0 3.5625 -0.59375q1.5625 -0.609375 2.3125 -1.65625q0.75 -1.046875 0.75 -2.28125q0 -1.265625 -0.734375 -2.203125q-0.71875 -0.9375 -2.390625 -1.578125q-1.078125 -0.421875 -4.765625 -1.296875q-3.671875 -0.890625 -5.15625 -1.671875q-1.90625 -1.0 -2.84375 -2.484375q-0.9375 -1.484375 -0.9375 -3.328125q0 -2.015625 1.140625 -3.78125q1.15625 -1.765625 3.359375 -2.671875q2.203125 -0.90625 4.90625 -0.90625q2.96875 0 5.234375 0.953125q2.265625 0.953125 3.484375 2.8125q1.21875 1.859375 1.3125 4.21875l-3.390625 0.25q-0.265625 -2.53125 -1.84375 -3.828125q-1.578125 -1.296875 -4.65625 -1.296875q-3.203125 0 -4.671875 1.1875q-1.46875 1.171875 -1.46875 2.828125q0 1.4375 1.03125 2.359375q1.03125 0.9375 5.328125 1.921875q4.3125 0.96875 5.921875 1.6875q2.328125 1.078125 3.4375 2.734375q1.125 1.640625 1.125 3.796875q0 2.140625 -1.234375 4.03125q-1.21875 1.875 -3.5 2.921875q-2.28125 1.046875 -5.15625 1.046875q-3.625 0 -6.078125 -1.046875q-2.453125 -1.0625 -3.84375 -3.1875q-1.390625 -2.125 -1.46875 -4.796875zm36.549744 8.578125l0 -26.71875l19.3125 0l0 3.15625l-15.78125 0l0 8.171875l14.78125 0l0 3.140625l-14.78125 0l0 9.09375l16.40625 0l0 3.15625l-19.9375 0zm36.960083 0l0 -2.4375q-1.84375 2.875 -5.40625 2.875q-2.3125 0 -4.265625 -1.265625q-1.9375 -1.28125 -3.0 -3.5625q-1.0625 -2.296875 -1.0625 -5.265625q0 -2.90625 0.953125 -5.265625q0.96875 -2.359375 2.90625 -3.609375q1.9375 -1.265625 4.3125 -1.265625q1.75 0 3.109375 0.75q1.375 0.734375 2.234375 1.90625l0 -9.578125l3.265625 0l0 26.71875l-3.046875 0zm-10.375 -9.65625q0 3.71875 1.5625 5.5625q1.578125 1.828125 3.71875 1.828125q2.140625 0 3.640625 -1.75q1.515625 -1.765625 1.515625 -5.375q0 -3.96875 -1.53125 -5.828125q-1.53125 -1.859375 -3.78125 -1.859375q-2.1875 0 -3.65625 1.796875q-1.46875 1.78125 -1.46875 5.625zm18.603882 -13.296875l0 -3.765625l3.28125 0l0 3.765625l-3.28125 0zm0 22.953125l0 -19.359375l3.28125 0l0 19.359375l-3.28125 0zm15.433746 -2.9375l0.46875 2.90625q-1.375 0.28125 -2.46875 0.28125q-1.796875 0 -2.78125 -0.5625q-0.984375 -0.5625 -1.390625 -1.484375q-0.390625 -0.921875 -0.390625 -3.875l0 -11.140625l-2.40625 0l0 -2.546875l2.40625 0l0 -4.796875l3.265625 -1.96875l0 6.765625l3.296875 0l0 2.546875l-3.296875 0l0 11.328125q0 1.40625 0.171875 1.8125q0.171875 0.390625 0.5625 0.625q0.390625 0.234375 1.125 0.234375q0.546875 0 1.4375 -0.125zm3.2303162 -20.015625l0 -3.765625l3.28125 0l0 3.765625l-3.28125 0zm0 22.953125l0 -19.359375l3.28125 0l0 19.359375l-3.28125 0zm8.261902 0l0 -19.359375l2.953125 0l0 2.75q2.140625 -3.1875 6.171875 -3.1875q1.75 0 3.21875 0.640625q1.46875 0.625 2.1875 1.640625q0.734375 1.015625 1.03125 2.421875q0.171875 0.90625 0.171875 3.1875l0 11.90625l-3.28125 0l0 -11.78125q0 -2.0 -0.390625 -2.984375q-0.375 -1.0 -1.359375 -1.59375q-0.96875 -0.59375 -2.28125 -0.59375q-2.09375 0 -3.625 1.328125q-1.515625 1.328125 -1.515625 5.046875l0 10.578125l-3.28125 0zm20.166382 1.609375l3.1875 0.46875q0.203125 1.46875 1.109375 2.15625q1.21875 0.90625 3.34375 0.90625q2.28125 0 3.515625 -0.921875q1.234375 -0.90625 1.671875 -2.546875q0.265625 -1.0 0.234375 -4.203125q-2.140625 2.53125 -5.359375 2.53125q-3.984375 0 -6.171875 -2.875q-2.1875 -2.890625 -2.1875 -6.90625q0 -2.78125 1.0 -5.125q1.0 -2.34375 2.90625 -3.609375q1.90625 -1.28125 4.484375 -1.28125q3.421875 0 5.640625 2.765625l0 -2.328125l3.03125 0l0 16.734375q0 4.515625 -0.921875 6.40625q-0.921875 1.890625 -2.921875 2.984375q-1.984375 1.09375 -4.90625 1.09375q-3.46875 0 -5.609375 -1.5625q-2.125 -1.5625 -2.046875 -4.6875zm2.71875 -11.640625q0 3.8125 1.5 5.5625q1.515625 1.75 3.796875 1.75q2.265625 0 3.796875 -1.734375q1.53125 -1.75 1.53125 -5.46875q0 -3.546875 -1.578125 -5.34375q-1.578125 -1.8125 -3.796875 -1.8125q-2.1875 0 -3.71875 1.78125q-1.53125 1.765625 -1.53125 5.265625zm48.490448 0.65625l3.546875 0.90625q-1.109375 4.34375 -4.0 6.640625q-2.890625 2.28125 -7.0625 2.28125q-4.328125 0 -7.03125 -1.75q-2.703125 -1.765625 -4.125 -5.09375q-1.40625 -3.34375 -1.40625 -7.171875q0 -4.171875 1.59375 -7.28125q1.59375 -3.109375 4.53125 -4.71875q2.953125 -1.609375 6.484375 -1.609375q4.015625 0 6.75 2.046875q2.734375 2.03125 3.8125 5.734375l-3.484375 0.8125q-0.9375 -2.90625 -2.703125 -4.234375q-1.765625 -1.34375 -4.4375 -1.34375q-3.09375 0 -5.15625 1.484375q-2.0625 1.46875 -2.90625 3.96875q-0.84375 2.484375 -0.84375 5.125q0 3.40625 0.984375 5.953125q1.0 2.546875 3.09375 3.8125q2.109375 1.25 4.546875 1.25q2.96875 0 5.03125 -1.71875q2.0625 -1.71875 2.78125 -5.09375zm7.3322144 16.828125l-0.359375 -3.078125q1.078125 0.296875 1.875 0.296875q1.09375 0 1.75 -0.375q0.65625 -0.359375 1.078125 -1.015625q0.3125 -0.5 1.0 -2.4375q0.09375 -0.28125 0.296875 -0.8125l-7.359375 -19.390625l3.546875 0l4.03125 11.21875q0.78125 2.125 1.390625 4.484375q0.578125 -2.265625 1.359375 -4.421875l4.140625 -11.28125l3.28125 0l-7.375 19.6875q-1.1875 3.1875 -1.84375 4.390625q-0.875 1.625 -2.0 2.375q-1.125 0.765625 -2.703125 0.765625q-0.9375 0 -2.109375 -0.40625zm31.445312 -14.546875l3.21875 0.421875q-0.515625 3.34375 -2.703125 5.234375q-2.171875 1.875 -5.34375 1.875q-3.984375 0 -6.40625 -2.59375q-2.40625 -2.59375 -2.40625 -7.453125q0 -3.125 1.03125 -5.46875q1.046875 -2.359375 3.171875 -3.53125q2.125 -1.1875 4.625 -1.1875q3.15625 0 5.15625 1.59375q2.0 1.59375 2.578125 4.53125l-3.203125 0.5q-0.453125 -1.953125 -1.609375 -2.9375q-1.15625 -0.984375 -2.796875 -0.984375q-2.484375 0 -4.03125 1.78125q-1.546875 1.765625 -1.546875 5.609375q0 3.90625 1.484375 5.671875q1.5 1.765625 3.90625 1.765625q1.9375 0 3.234375 -1.171875q1.296875 -1.1875 1.640625 -3.65625zm5.9609375 7.09375l0 -26.71875l3.28125 0l0 26.71875l-3.28125 0zm21.621277 -6.234375l3.375 0.421875q-0.796875 2.96875 -2.96875 4.609375q-2.15625 1.640625 -5.53125 1.640625q-4.25 0 -6.75 -2.609375q-2.484375 -2.625 -2.484375 -7.34375q0 -4.890625 2.515625 -7.578125q2.515625 -2.703125 6.53125 -2.703125q3.890625 0 6.34375 2.640625q2.453125 2.640625 2.453125 7.4375q0 0.296875 -0.015625 0.875l-14.4375 0q0.1875 3.1875 1.8125 4.890625q1.625 1.6875 4.046875 1.6875q1.796875 0 3.078125 -0.9375q1.28125 -0.953125 2.03125 -3.03125zm-10.78125 -5.296875l10.8125 0q-0.21875 -2.453125 -1.234375 -3.671875q-1.578125 -1.890625 -4.078125 -1.890625q-2.25 0 -3.796875 1.515625q-1.53125 1.5 -1.703125 4.046875z" fill-rule="nonzero"/>
    <path fill="#000000" fill-opacity="0.0" d="m349.58792 139.09186l204.53543 0l0 60.12599l-204.53543 0z" fill-rule="evenodd"/>
    <path fill="#a64d79" d="m407.96503 180.87485l0 -22.90625l16.984375 0l0 3.875l-12.359375 0l0 5.078125l11.5 0l0 3.859375l-11.5 0l0 6.234375l12.796875 0l0 3.859375l-17.421875 0zm36.53125 0l-4.078125 0l0 -2.4375q-1.015625 1.421875 -2.40625 2.125q-1.375 0.6875 -2.78125 0.6875q-2.859375 0 -4.90625 -2.296875q-2.03125 -2.3125 -2.03125 -6.4375q0 -4.21875 1.984375 -6.40625q1.984375 -2.203125 5.015625 -2.203125q2.78125 0 4.8125 2.3125l0 -8.25l4.390625 0l0 22.90625zm-11.71875 -8.65625q0 2.65625 0.734375 3.84375q1.0625 1.71875 2.96875 1.71875q1.515625 0 2.578125 -1.28125q1.0625 -1.296875 1.0625 -3.859375q0 -2.859375 -1.03125 -4.109375q-1.03125 -1.265625 -2.640625 -1.265625q-1.5625 0 -2.625 1.25q-1.046875 1.234375 -1.046875 3.703125zm16.046875 -10.1875l0 -4.0625l4.390625 0l0 4.0625l-4.390625 0zm0 18.84375l0 -16.59375l4.390625 0l0 16.59375l-4.390625 0zm16.5 -16.59375l0 3.5l-3.0 0l0 6.6875q0 2.03125 0.078125 2.375q0.09375 0.328125 0.390625 0.546875q0.3125 0.21875 0.75 0.21875q0.609375 0 1.765625 -0.421875l0.375 3.40625q-1.53125 0.65625 -3.46875 0.65625q-1.1875 0 -2.140625 -0.390625q-0.953125 -0.40625 -1.40625 -1.03125q-0.4375 -0.640625 -0.609375 -1.71875q-0.140625 -0.765625 -0.140625 -3.09375l0 -7.234375l-2.015625 0l0 -3.5l2.015625 0l0 -3.296875l4.40625 -2.5625l0 5.859375l3.0 0zm2.03125 8.0625q0 -2.1875 1.078125 -4.234375q1.078125 -2.046875 3.046875 -3.125q1.984375 -1.078125 4.421875 -1.078125q3.765625 0 6.171875 2.453125q2.40625 2.4375 2.40625 6.171875q0 3.765625 -2.4375 6.25q-2.421875 2.46875 -6.109375 2.46875q-2.28125 0 -4.359375 -1.03125q-2.0625 -1.03125 -3.140625 -3.015625q-1.078125 -2.0 -1.078125 -4.859375zm4.5 0.234375q0 2.46875 1.171875 3.78125q1.171875 1.3125 2.890625 1.3125q1.71875 0 2.875 -1.3125q1.171875 -1.3125 1.171875 -3.8125q0 -2.4375 -1.171875 -3.75q-1.15625 -1.3125 -2.875 -1.3125q-1.71875 0 -2.890625 1.3125q-1.171875 1.3125 -1.171875 3.78125zm20.265625 8.296875l-4.390625 0l0 -16.59375l4.078125 0l0 2.359375q1.046875 -1.671875 1.875 -2.203125q0.84375 -0.53125 1.90625 -0.53125q1.5 0 2.890625 0.828125l-1.359375 3.828125q-1.109375 -0.71875 -2.0625 -0.71875q-0.921875 0 -1.5625 0.515625q-0.640625 0.5 -1.015625 1.828125q-0.359375 1.328125 -0.359375 5.5625l0 5.125z" fill-rule="nonzero"/>
    <path fill="#000000" fill-opacity="0.0" d="m349.58792 314.2651l204.53543 0l0 60.125977l-204.53543 0z" fill-rule="evenodd"/>
    <path fill="#980000" d="m418.61346 333.14185l8.453125 0q2.859375 0 4.359375 0.4375q2.015625 0.59375 3.453125 2.109375q1.4375 1.515625 2.1875 3.71875q0.75 2.1875 0.75 5.40625q0 2.828125 -0.703125 4.875q-0.859375 2.5 -2.453125 4.046875q-1.203125 1.171875 -3.25 1.828125q-1.53125 0.484375 -4.09375 0.484375l-8.703125 0l0 -22.90625zm4.625 3.875l0 15.171875l3.453125 0q1.9375 0 2.796875 -0.21875q1.125 -0.28125 1.859375 -0.953125q0.75 -0.671875 1.21875 -2.203125q0.46875 -1.546875 0.46875 -4.203125q0 -2.65625 -0.46875 -4.078125q-0.46875 -1.421875 -1.3125 -2.21875q-0.84375 -0.796875 -2.140625 -1.078125q-0.96875 -0.21875 -3.796875 -0.21875l-2.078125 0zm18.4375 19.03125l0 -22.90625l6.921875 0l4.15625 15.625l4.109375 -15.625l6.9375 0l0 22.90625l-4.296875 0l0 -18.03125l-4.546875 18.03125l-4.453125 0l-4.53125 -18.03125l0 18.03125l-4.296875 0zm25.546875 -7.453125l4.5 -0.4375q0.40625 2.265625 1.640625 3.328125q1.25 1.0625 3.359375 1.0625q2.234375 0 3.359375 -0.9375q1.140625 -0.953125 1.140625 -2.21875q0 -0.8125 -0.484375 -1.375q-0.46875 -0.578125 -1.65625 -1.0q-0.8125 -0.28125 -3.703125 -1.0q-3.71875 -0.921875 -5.21875 -2.265625q-2.109375 -1.890625 -2.109375 -4.609375q0 -1.75 0.984375 -3.265625q1.0 -1.53125 2.859375 -2.328125q1.875 -0.796875 4.515625 -0.796875q4.3125 0 6.484375 1.890625q2.1875 1.890625 2.296875 5.046875l-4.625 0.203125q-0.296875 -1.765625 -1.28125 -2.53125q-0.96875 -0.78125 -2.921875 -0.78125q-2.015625 0 -3.15625 0.828125q-0.734375 0.53125 -0.734375 1.421875q0 0.8125 0.6875 1.390625q0.875 0.734375 4.25 1.53125q3.375 0.796875 4.984375 1.65625q1.625 0.84375 2.53125 2.328125q0.921875 1.46875 0.921875 3.640625q0 1.96875 -1.09375 3.6875q-1.09375 1.71875 -3.09375 2.5625q-2.0 0.828125 -4.984375 0.828125q-4.34375 0 -6.671875 -2.0q-2.328125 -2.015625 -2.78125 -5.859375z" fill-rule="nonzero"/>
    <path fill="#000000" fill-opacity="0.0" d="m389.57217 236.30052l124.566925 0l0 40.88188l-124.566925 0z" fill-rule="evenodd"/>
    <path fill="#0000ff" d="m430.88885 262.45334l0.34375 0.3125q-1.125 1.359375 -2.234375 2.0q-1.46875 0.84375 -3.03125 0.84375q-1.0625 0 -1.875 -0.453125q-0.8125 -0.453125 -1.203125 -1.265625q-0.375 -0.8125 -0.375 -1.671875q0 -1.921875 1.03125 -3.78125q1.046875 -1.859375 2.75 -2.9375q1.71875 -1.078125 3.375 -1.078125q1.328125 0 1.984375 0.59375q0.671875 0.578125 0.671875 1.4375q0 0.78125 -0.5 1.34375q-0.5 0.546875 -1.125 0.546875q-0.546875 0 -0.90625 -0.34375q-0.34375 -0.359375 -0.34375 -0.84375q0 -0.625 0.625 -1.09375q0.4375 -0.328125 0.4375 -0.578125q0 -0.21875 -0.171875 -0.34375q-0.234375 -0.1875 -0.609375 -0.1875q-0.984375 0 -1.859375 0.796875q-1.140625 1.0625 -1.75 2.6875q-0.609375 1.609375 -0.609375 3.0625q0 1.140625 0.609375 1.828125q0.625 0.6875 1.484375 0.6875q0.75 0 1.625 -0.390625q0.875 -0.390625 1.65625 -1.171875zm7.3242188 -8.03125l-1.765625 6.578125q2.171875 -4.8125 3.28125 -5.921875q0.640625 -0.65625 1.359375 -0.65625q0.484375 0 0.78125 0.359375q0.3125 0.34375 0.3125 1.0q0 1.140625 -0.546875 1.921875q-0.359375 0.484375 -0.78125 0.484375q-0.46875 0 -0.703125 -0.421875q-0.234375 -0.4375 -0.328125 -0.515625q-0.09375 -0.078125 -0.203125 -0.078125q-0.125 0 -0.25 0.0625q-0.25 0.140625 -0.671875 0.6875q-0.421875 0.546875 -1.03125 1.828125q-0.609375 1.28125 -0.953125 2.171875q-0.328125 0.875 -0.9375 3.359375l-2.84375 0l1.9375 -7.765625q0.21875 -0.875 0.21875 -1.15625q0 -0.3125 -0.125 -0.484375q-0.109375 -0.1875 -0.296875 -0.265625q-0.1875 -0.078125 -0.796875 -0.078125l0.09375 -0.34375l3.546875 -0.765625l0.703125 0zm7.4023438 6.46875q-0.109375 0.75 -0.109375 1.25q0 0.875 0.515625 1.40625q0.515625 0.53125 1.359375 0.53125q0.828125 0 1.65625 -0.390625q0.828125 -0.40625 1.90625 -1.40625l0.359375 0.3125q-1.34375 1.625 -2.625 2.328125q-1.28125 0.6875 -2.828125 0.6875q-1.953125 0 -2.703125 -0.9375q-0.75 -0.9375 -0.75 -2.171875q0 -1.921875 1.109375 -3.84375q1.125 -1.921875 3.046875 -3.078125q1.9375 -1.15625 3.875 -1.15625q0.984375 0 1.484375 0.46875q0.515625 0.46875 0.515625 1.171875q0 0.859375 -0.5 1.671875q-0.671875 1.09375 -1.703125 1.78125q-1.03125 0.671875 -2.3125 1.015625q-0.859375 0.234375 -2.296875 0.359375zm0.109375 -0.609375q1.03125 -0.15625 1.59375 -0.421875q0.578125 -0.265625 1.109375 -0.84375q0.546875 -0.578125 0.9375 -1.453125q0.40625 -0.890625 0.40625 -1.671875q0 -0.328125 -0.1875 -0.515625q-0.171875 -0.1875 -0.453125 -0.1875q-0.5625 0 -1.265625 0.78125q-1.28125 1.4375 -2.140625 4.3125zm18.292969 -5.703125l-2.28125 7.796875l-0.234375 0.953125q-0.03125 0.171875 -0.03125 0.25q0 0.140625 0.09375 0.25q0.109375 0.109375 0.21875 0.109375q0.234375 0 0.671875 -0.375q0.171875 -0.15625 0.84375 -1.078125l0.40625 0.203125q-0.828125 1.53125 -1.78125 2.234375q-0.9375 0.6875 -2.015625 0.6875q-0.671875 0 -1.03125 -0.34375q-0.34375 -0.34375 -0.34375 -0.875q0 -0.453125 0.375 -1.703125l0.28125 -0.953125q-1.359375 2.34375 -2.609375 3.3125q-0.734375 0.5625 -1.546875 0.5625q-1.078125 0 -1.5625 -0.875q-0.484375 -0.890625 -0.484375 -2.015625q0 -1.640625 1.0 -3.78125q1.015625 -2.140625 2.65625 -3.4375q1.34375 -1.078125 2.53125 -1.078125q0.65625 0 1.046875 0.375q0.40625 0.375 0.59375 1.390625l0.421875 -1.4375l2.78125 -0.171875zm-3.75 2.234375q0 -0.953125 -0.296875 -1.375q-0.203125 -0.296875 -0.578125 -0.296875q-0.359375 0 -0.75 0.359375q-0.78125 0.71875 -1.6875 2.9375q-0.90625 2.21875 -0.90625 3.84375q0 0.625 0.203125 0.90625q0.203125 0.265625 0.453125 0.265625q0.53125 0 1.0625 -0.609375q0.78125 -0.875 1.390625 -2.125q1.109375 -2.203125 1.109375 -3.90625zm11.125 -5.25l-0.9375 3.1875l1.546875 0l-0.421875 1.34375l-1.5 0l-1.96875 6.796875q-0.1875 0.625 -0.1875 0.953125q0 0.15625 0.109375 0.265625q0.109375 0.109375 0.234375 0.109375q0.203125 0 0.40625 -0.15625q0.546875 -0.40625 1.265625 -1.4375l0.40625 0.265625q-0.8125 1.40625 -1.78125 2.0625q-0.96875 0.65625 -1.90625 0.65625q-0.796875 0 -1.25 -0.40625q-0.4375 -0.40625 -0.4375 -1.03125q0 -0.671875 0.3125 -1.734375l1.84375 -6.34375l-1.59375 0l0.234375 -0.875q1.5 -0.546875 2.53125 -1.28125q1.03125 -0.734375 2.484375 -2.375l0.609375 0zm3.5429688 9.328125q-0.109375 0.75 -0.109375 1.25q0 0.875 0.515625 1.40625q0.515625 0.53125 1.359375 0.53125q0.828125 0 1.65625 -0.390625q0.828125 -0.40625 1.90625 -1.40625l0.359375 0.3125q-1.34375 1.625 -2.625 2.328125q-1.28125 0.6875 -2.828125 0.6875q-1.953125 0 -2.703125 -0.9375q-0.75 -0.9375 -0.75 -2.171875q0 -1.921875 1.109375 -3.84375q1.125 -1.921875 3.046875 -3.078125q1.9375 -1.15625 3.875 -1.15625q0.984375 0 1.484375 0.46875q0.515625 0.46875 0.515625 1.171875q0 0.859375 -0.5 1.671875q-0.671875 1.09375 -1.703125 1.78125q-1.03125 0.671875 -2.3125 1.015625q-0.859375 0.234375 -2.296875 0.359375zm0.109375 -0.609375q1.03125 -0.15625 1.59375 -0.421875q0.578125 -0.265625 1.109375 -0.84375q0.546875 -0.578125 0.9375 -1.453125q0.40625 -0.890625 0.40625 -1.671875q0 -0.328125 -0.1875 -0.515625q-0.171875 -0.1875 -0.453125 -0.1875q-0.5625 0 -1.265625 0.78125q-1.28125 1.4375 -2.140625 4.3125z" fill-rule="nonzero"/>
    <path fill="#000000" fill-opacity="0.0" d="m253.09186 236.29921l124.566925 0l0 40.88188l-124.566925 0z" fill-rule="evenodd"/>
    <path fill="#0000ff" d="m299.06674 254.42078l-1.765625 6.578125q2.171875 -4.8125 3.28125 -5.921875q0.640625 -0.65625 1.359375 -0.65625q0.484375 0 0.78125 0.359375q0.3125 0.34375 0.3125 1.0q0 1.140625 -0.546875 1.921875q-0.359375 0.484375 -0.78125 0.484375q-0.46875 0 -0.703125 -0.421875q-0.234375 -0.4375 -0.328125 -0.515625q-0.09375 -0.078125 -0.203125 -0.078125q-0.125 0 -0.25 0.0625q-0.25 0.140625 -0.671875 0.6875q-0.421875 0.546875 -1.03125 1.828125q-0.609375 1.28125 -0.953125 2.171875q-0.328125 0.875 -0.9375 3.359375l-2.84375 0l1.9375 -7.765625q0.21875 -0.875 0.21875 -1.15625q0 -0.3125 -0.125 -0.484375q-0.109375 -0.1875 -0.296875 -0.265625q-0.1875 -0.078125 -0.796875 -0.078125l0.09375 -0.34375l3.546875 -0.765625l0.703125 0zm7.4023438 6.46875q-0.109375 0.75 -0.109375 1.25q0 0.875 0.515625 1.40625q0.515625 0.53125 1.359375 0.53125q0.828125 0 1.65625 -0.390625q0.828125 -0.40625 1.90625 -1.40625l0.359375 0.3125q-1.34375 1.625 -2.625 2.328125q-1.28125 0.6875 -2.828125 0.6875q-1.953125 0 -2.703125 -0.9375q-0.75 -0.9375 -0.75 -2.171875q0 -1.921875 1.109375 -3.84375q1.125 -1.921875 3.046875 -3.078125q1.9375 -1.15625 3.875 -1.15625q0.984375 0 1.484375 0.46875q0.515625 0.46875 0.515625 1.171875q0 0.859375 -0.5 1.671875q-0.671875 1.09375 -1.703125 1.78125q-1.03125 0.671875 -2.3125 1.015625q-0.859375 0.234375 -2.296875 0.359375zm0.109375 -0.609375q1.03125 -0.15625 1.59375 -0.421875q0.578125 -0.265625 1.109375 -0.84375q0.546875 -0.578125 0.9375 -1.453125q0.40625 -0.890625 0.40625 -1.671875q0 -0.328125 -0.1875 -0.515625q-0.171875 -0.1875 -0.453125 -0.1875q-0.5625 0 -1.265625 0.78125q-1.28125 1.4375 -2.140625 4.3125zm18.292969 -5.703125l-2.28125 7.796875l-0.234375 0.953125q-0.03125 0.171875 -0.03125 0.25q0 0.140625 0.09375 0.25q0.109375 0.109375 0.21875 0.109375q0.234375 0 0.671875 -0.375q0.171875 -0.15625 0.84375 -1.078125l0.40625 0.203125q-0.828125 1.53125 -1.78125 2.234375q-0.9375 0.6875 -2.015625 0.6875q-0.671875 0 -1.03125 -0.34375q-0.34375 -0.34375 -0.34375 -0.875q0 -0.453125 0.375 -1.703125l0.28125 -0.953125q-1.359375 2.34375 -2.609375 3.3125q-0.734375 0.5625 -1.546875 0.5625q-1.078125 0 -1.5625 -0.875q-0.484375 -0.890625 -0.484375 -2.015625q0 -1.640625 1.0 -3.78125q1.015625 -2.140625 2.65625 -3.4375q1.34375 -1.078125 2.53125 -1.078125q0.65625 0 1.046875 0.375q0.40625 0.375 0.59375 1.390625l0.421875 -1.4375l2.78125 -0.171875zm-3.75 2.234375q0 -0.953125 -0.296875 -1.375q-0.203125 -0.296875 -0.578125 -0.296875q-0.359375 0 -0.75 0.359375q-0.78125 0.71875 -1.6875 2.9375q-0.90625 2.21875 -0.90625 3.84375q0 0.625 0.203125 0.90625q0.203125 0.265625 0.453125 0.265625q0.53125 0 1.0625 -0.609375q0.78125 -0.875 1.390625 -2.125q1.109375 -2.203125 1.109375 -3.90625zm17.34375 -7.78125l-3.8125 13.109375q-0.359375 1.234375 -0.359375 1.484375q0 0.125 0.09375 0.21875q0.09375 0.09375 0.203125 0.09375q0.1875 0 0.453125 -0.1875q0.4375 -0.328125 1.046875 -1.25l0.421875 0.21875q-1.640625 2.890625 -3.625 2.890625q-0.703125 0 -1.09375 -0.359375q-0.375 -0.375 -0.375 -0.953125q0 -0.546875 0.3125 -1.578125l0.34375 -1.1875q-1.46875 2.59375 -2.546875 3.4375q-0.8125 0.640625 -1.59375 0.640625q-0.875 0 -1.484375 -0.71875q-0.59375 -0.71875 -0.59375 -2.078125q0 -1.75 0.765625 -3.453125q0.78125 -1.703125 1.796875 -2.828125q1.015625 -1.140625 1.921875 -1.625q0.921875 -0.484375 1.8125 -0.484375q0.46875 0 0.8125 0.1875q0.359375 0.1875 0.828125 0.703125l0.859375 -2.921875q0.3125 -1.078125 0.3125 -1.546875q0 -0.28125 -0.21875 -0.484375q-0.203125 -0.203125 -0.546875 -0.203125q-0.171875 0 -0.40625 0.046875l0.109375 -0.46875l3.859375 -0.703125l0.703125 0zm-5.15625 7.421875q0 -0.71875 -0.28125 -1.046875q-0.28125 -0.328125 -0.65625 -0.328125q-0.375 0 -0.8125 0.390625q-0.828125 0.75 -1.734375 3.015625q-0.90625 2.265625 -0.90625 3.8125q0 0.5625 0.1875 0.84375q0.203125 0.265625 0.453125 0.265625q0.40625 0 0.8125 -0.375q1.0 -0.890625 1.96875 -3.0625q0.96875 -2.171875 0.96875 -3.515625z" fill-rule="nonzero"/>
    <path fill="#000000" fill-opacity="0.0" d="m533.8845 236.29921l124.566895 0l0 40.88188l-124.566895 0z" fill-rule="evenodd"/>
    <path fill="#0000ff" d="m569.209 254.42078l-2.265625 7.96875q-0.171875 0.546875 -0.171875 0.75q0 0.109375 0.078125 0.171875q0.09375 0.09375 0.234375 0.09375q0.53125 0 1.4375 -0.96875q1.28125 -1.390625 2.703125 -4.0l1.0625 -3.59375l2.96875 -0.09375l-2.25 7.734375q-0.28125 0.984375 -0.28125 1.125q0 0.09375 0.078125 0.1875q0.09375 0.09375 0.1875 0.09375q0.171875 0 0.328125 -0.140625q0.421875 -0.328125 1.109375 -1.359375l0.390625 0.28125q-1.625 2.9375 -3.578125 2.9375q-0.734375 0 -1.15625 -0.359375q-0.40625 -0.375 -0.40625 -0.984375q0 -0.625 0.296875 -1.59375l0.578125 -1.984375q-1.53125 2.21875 -2.21875 2.984375q-1.0625 1.15625 -1.78125 1.546875q-0.71875 0.390625 -1.375 0.390625q-0.625 0 -1.078125 -0.453125q-0.4375 -0.46875 -0.4375 -1.171875q0 -0.59375 0.28125 -1.59375l1.328125 -4.6875q0.328125 -1.15625 0.328125 -1.546875q0 -0.1875 -0.09375 -0.3125q-0.09375 -0.140625 -0.3125 -0.21875q-0.21875 -0.078125 -0.796875 -0.078125l0.109375 -0.4375l4.0 -0.6875l0.703125 0zm8.425781 0.65625l3.875 -0.65625l0.703125 0l-0.515625 1.90625q1.21875 -1.125 2.0 -1.515625q0.796875 -0.390625 1.5625 -0.390625q1.109375 0 1.703125 0.84375q0.59375 0.84375 0.59375 2.078125q0 3.359375 -2.328125 5.96875q-2.0625 2.296875 -4.5 2.296875q-0.4375 0 -0.75 -0.078125q-0.296875 -0.078125 -0.84375 -0.375l-0.609375 2.125q-0.328125 1.140625 -0.328125 1.734375q0 0.375 0.25 0.59375q0.265625 0.21875 1.21875 0.375l-0.109375 0.4375l-6.3125 0l0.125 -0.4375q0.75 -0.03125 1.25 -0.484375q0.5 -0.453125 0.921875 -1.96875l2.875 -9.859375q0.3125 -1.09375 0.3125 -1.5625q0 -0.1875 -0.09375 -0.328125q-0.09375 -0.140625 -0.28125 -0.1875q-0.1875 -0.0625 -0.84375 -0.0625l0.125 -0.453125zm1.828125 9.0q0.359375 0.5625 0.640625 0.765625q0.28125 0.1875 0.65625 0.1875q0.375 0 0.71875 -0.203125q0.359375 -0.203125 0.890625 -0.828125q0.53125 -0.625 1.015625 -1.59375q0.484375 -0.96875 0.78125 -2.203125q0.296875 -1.234375 0.296875 -2.359375q0 -0.90625 -0.328125 -1.3125q-0.328125 -0.421875 -0.78125 -0.421875q-0.40625 0 -0.765625 0.21875q-0.53125 0.296875 -1.25 1.140625l-1.875 6.609375zm21.8125 -15.046875l-3.8125 13.109375q-0.359375 1.234375 -0.359375 1.484375q0 0.125 0.09375 0.21875q0.09375 0.09375 0.203125 0.09375q0.1875 0 0.453125 -0.1875q0.4375 -0.328125 1.046875 -1.25l0.421875 0.21875q-1.640625 2.890625 -3.625 2.890625q-0.703125 0 -1.09375 -0.359375q-0.375 -0.375 -0.375 -0.953125q0 -0.546875 0.3125 -1.578125l0.34375 -1.1875q-1.46875 2.59375 -2.546875 3.4375q-0.8125 0.640625 -1.59375 0.640625q-0.875 0 -1.484375 -0.71875q-0.59375 -0.71875 -0.59375 -2.078125q0 -1.75 0.765625 -3.453125q0.78125 -1.703125 1.796875 -2.828125q1.015625 -1.140625 1.921875 -1.625q0.921875 -0.484375 1.8125 -0.484375q0.46875 0 0.8125 0.1875q0.359375 0.1875 0.828125 0.703125l0.859375 -2.921875q0.3125 -1.078125 0.3125 -1.546875q0 -0.28125 -0.21875 -0.484375q-0.203125 -0.203125 -0.546875 -0.203125q-0.171875 0 -0.40625 0.046875l0.109375 -0.46875l3.859375 -0.703125l0.703125 0zm-5.15625 7.421875q0 -0.71875 -0.28125 -1.046875q-0.28125 -0.328125 -0.65625 -0.328125q-0.375 0 -0.8125 0.390625q-0.828125 0.75 -1.734375 3.015625q-0.90625 2.265625 -0.90625 3.8125q0 0.5625 0.1875 0.84375q0.203125 0.265625 0.453125 0.265625q0.40625 0 0.8125 -0.375q1.0 -0.890625 1.96875 -3.0625q0.96875 -2.171875 0.96875 -3.515625zm15.5625 -1.875l-2.28125 7.796875l-0.234375 0.953125q-0.03125 0.171875 -0.03125 0.25q0 0.140625 0.09375 0.25q0.109375 0.109375 0.21875 0.109375q0.234375 0 0.671875 -0.375q0.171875 -0.15625 0.84375 -1.078125l0.40625 0.203125q-0.828125 1.53125 -1.78125 2.234375q-0.9375 0.6875 -2.015625 0.6875q-0.671875 0 -1.03125 -0.34375q-0.34375 -0.34375 -0.34375 -0.875q0 -0.453125 0.375 -1.703125l0.28125 -0.953125q-1.359375 2.34375 -2.609375 3.3125q-0.734375 0.5625 -1.546875 0.5625q-1.078125 0 -1.5625 -0.875q-0.484375 -0.890625 -0.484375 -2.015625q0 -1.640625 1.0 -3.78125q1.015625 -2.140625 2.65625 -3.4375q1.34375 -1.078125 2.53125 -1.078125q0.65625 0 1.046875 0.375q0.40625 0.375 0.59375 1.390625l0.421875 -1.4375l2.78125 -0.171875zm-3.75 2.234375q0 -0.953125 -0.296875 -1.375q-0.203125 -0.296875 -0.578125 -0.296875q-0.359375 0 -0.75 0.359375q-0.78125 0.71875 -1.6875 2.9375q-0.90625 2.21875 -0.90625 3.84375q0 0.625 0.203125 0.90625q0.203125 0.265625 0.453125 0.265625q0.53125 0 1.0625 -0.609375q0.78125 -0.875 1.390625 -2.125q1.109375 -2.203125 1.109375 -3.90625zm11.125 -5.25l-0.9375 3.1875l1.546875 0l-0.421875 1.34375l-1.5 0l-1.96875 6.796875q-0.1875 0.625 -0.1875 0.953125q0 0.15625 0.109375 0.265625q0.109375 0.109375 0.234375 0.109375q0.203125 0 0.40625 -0.15625q0.546875 -0.40625 1.265625 -1.4375l0.40625 0.265625q-0.8125 1.40625 -1.78125 2.0625q-0.96875 0.65625 -1.90625 0.65625q-0.796875 0 -1.25 -0.40625q-0.4375 -0.40625 -0.4375 -1.03125q0 -0.671875 0.3125 -1.734375l1.84375 -6.34375l-1.59375 0l0.234375 -0.875q1.5 -0.546875 2.53125 -1.28125q1.03125 -0.734375 2.484375 -2.375l0.609375 0zm3.5429688 9.328125q-0.109375 0.75 -0.109375 1.25q0 0.875 0.515625 1.40625q0.515625 0.53125 1.359375 0.53125q0.828125 0 1.65625 -0.390625q0.828125 -0.40625 1.90625 -1.40625l0.359375 0.3125q-1.34375 1.625 -2.625 2.328125q-1.28125 0.6875 -2.828125 0.6875q-1.953125 0 -2.703125 -0.9375q-0.75 -0.9375 -0.75 -2.171875q0 -1.921875 1.109375 -3.84375q1.125 -1.921875 3.046875 -3.078125q1.9375 -1.15625 3.875 -1.15625q0.984375 0 1.484375 0.46875q0.515625 0.46875 0.515625 1.171875q0 0.859375 -0.5 1.671875q-0.671875 1.09375 -1.703125 1.78125q-1.03125 0.671875 -2.3125 1.015625q-0.859375 0.234375 -2.296875 0.359375zm0.109375 -0.609375q1.03125 -0.15625 1.59375 -0.421875q0.578125 -0.265625 1.109375 -0.84375q0.546875 -0.578125 0.9375 -1.453125q0.40625 -0.890625 0.40625 -1.671875q0 -0.328125 -0.1875 -0.515625q-0.171875 -0.1875 -0.453125 -0.1875q-0.5625 0 -1.265625 0.78125q-1.28125 1.4375 -2.140625 4.3125z" fill-rule="nonzero"/>
    <path fill="#000000" fill-opacity="0.0" d="m389.57217 446.43307l124.566925 0l0 40.881897l-124.566925 0z" fill-rule="evenodd"/>
    <path fill="#0000ff" d="m436.30292 459.164l-3.8125 13.109375q-0.359375 1.234375 -0.359375 1.484375q0 0.125 0.09375 0.21875q0.09375 0.09375 0.203125 0.09375q0.1875 0 0.453125 -0.1875q0.4375 -0.328125 1.046875 -1.25l0.421875 0.21875q-1.640625 2.890625 -3.625 2.890625q-0.703125 0 -1.09375 -0.359375q-0.375 -0.375 -0.375 -0.953125q0 -0.546875 0.3125 -1.578125l0.34375 -1.1875q-1.46875 2.59375 -2.546875 3.4375q-0.8125 0.640625 -1.59375 0.640625q-0.875 0 -1.484375 -0.71875q-0.59375 -0.71875 -0.59375 -2.078125q0 -1.75 0.765625 -3.453125q0.78125 -1.703125 1.796875 -2.828125q1.015625 -1.140625 1.921875 -1.625q0.921875 -0.484375 1.8125 -0.484375q0.46875 0 0.8125 0.1875q0.359375 0.1875 0.828125 0.703125l0.859375 -2.921875q0.3125 -1.078125 0.3125 -1.546875q0 -0.28125 -0.21875 -0.484375q-0.203125 -0.203125 -0.546875 -0.203125q-0.171875 0 -0.40625 0.046875l0.109375 -0.46875l3.859375 -0.703125l0.703125 0zm-5.15625 7.421875q0 -0.71875 -0.28125 -1.046875q-0.28125 -0.328125 -0.65625 -0.328125q-0.375 0 -0.8125 0.390625q-0.828125 0.75 -1.734375 3.015625q-0.90625 2.265625 -0.90625 3.8125q0 0.5625 0.1875 0.84375q0.203125 0.265625 0.453125 0.265625q0.40625 0 0.8125 -0.375q1.0 -0.890625 1.96875 -3.0625q0.96875 -2.171875 0.96875 -3.515625zm7.8125 4.4375q-0.109375 0.75 -0.109375 1.25q0 0.875 0.515625 1.40625q0.515625 0.53125 1.359375 0.53125q0.828125 0 1.65625 -0.390625q0.828125 -0.40625 1.90625 -1.40625l0.359375 0.3125q-1.34375 1.625 -2.625 2.328125q-1.28125 0.6875 -2.828125 0.6875q-1.953125 0 -2.703125 -0.9375q-0.75 -0.9375 -0.75 -2.171875q0 -1.921875 1.109375 -3.84375q1.125 -1.921875 3.046875 -3.078125q1.9375 -1.15625 3.875 -1.15625q0.984375 0 1.484375 0.46875q0.515625 0.46875 0.515625 1.171875q0 0.859375 -0.5 1.671875q-0.671875 1.09375 -1.703125 1.78125q-1.03125 0.671875 -2.3125 1.015625q-0.859375 0.234375 -2.296875 0.359375zm0.109375 -0.609375q1.03125 -0.15625 1.59375 -0.421875q0.578125 -0.265625 1.109375 -0.84375q0.546875 -0.578125 0.9375 -1.453125q0.40625 -0.890625 0.40625 -1.671875q0 -0.328125 -0.1875 -0.515625q-0.171875 -0.1875 -0.453125 -0.1875q-0.5625 0 -1.265625 0.78125q-1.28125 1.4375 -2.140625 4.3125zm14.386719 -11.25l-3.875 13.1875q-0.34375 1.171875 -0.34375 1.46875q0 0.15625 0.09375 0.265625q0.109375 0.09375 0.21875 0.09375q0.21875 0 0.40625 -0.15625q0.5625 -0.46875 1.25 -1.546875l0.453125 0.203125q-1.109375 1.78125 -2.1875 2.546875q-0.734375 0.515625 -1.5625 0.515625q-0.78125 0 -1.234375 -0.40625q-0.453125 -0.421875 -0.453125 -1.015625q0 -0.4375 0.28125 -1.390625l3.15625 -10.8125q0.265625 -0.890625 0.265625 -1.171875q0 -0.28125 -0.25 -0.453125q-0.328125 -0.234375 -1.0 -0.203125l0.125 -0.4375l3.953125 -0.6875l0.703125 0zm2.8242188 11.859375q-0.109375 0.75 -0.109375 1.25q0 0.875 0.515625 1.40625q0.515625 0.53125 1.359375 0.53125q0.828125 0 1.65625 -0.390625q0.828125 -0.40625 1.90625 -1.40625l0.359375 0.3125q-1.34375 1.625 -2.625 2.328125q-1.28125 0.6875 -2.828125 0.6875q-1.953125 0 -2.703125 -0.9375q-0.75 -0.9375 -0.75 -2.171875q0 -1.921875 1.109375 -3.84375q1.125 -1.921875 3.046875 -3.078125q1.9375 -1.15625 3.875 -1.15625q0.984375 0 1.484375 0.46875q0.515625 0.46875 0.515625 1.171875q0 0.859375 -0.5 1.671875q-0.671875 1.09375 -1.703125 1.78125q-1.03125 0.671875 -2.3125 1.015625q-0.859375 0.234375 -2.296875 0.359375zm0.109375 -0.609375q1.03125 -0.15625 1.59375 -0.421875q0.578125 -0.265625 1.109375 -0.84375q0.546875 -0.578125 0.9375 -1.453125q0.40625 -0.890625 0.40625 -1.671875q0 -0.328125 -0.1875 -0.515625q-0.171875 -0.1875 -0.453125 -0.1875q-0.5625 0 -1.265625 0.78125q-1.28125 1.4375 -2.140625 4.3125zm13.667969 -8.71875l-0.9375 3.1875l1.546875 0l-0.421875 1.34375l-1.5 0l-1.96875 6.796875q-0.1875 0.625 -0.1875 0.953125q0 0.15625 0.109375 0.265625q0.109375 0.109375 0.234375 0.109375q0.203125 0 0.40625 -0.15625q0.546875 -0.40625 1.265625 -1.4375l0.40625 0.265625q-0.8125 1.40625 -1.78125 2.0625q-0.96875 0.65625 -1.90625 0.65625q-0.796875 0 -1.25 -0.40625q-0.4375 -0.40625 -0.4375 -1.03125q0 -0.671875 0.3125 -1.734375l1.84375 -6.34375l-1.59375 0l0.234375 -0.875q1.5 -0.546875 2.53125 -1.28125q1.03125 -0.734375 2.484375 -2.375l0.609375 0zm3.5429688 9.328125q-0.109375 0.75 -0.109375 1.25q0 0.875 0.515625 1.40625q0.515625 0.53125 1.359375 0.53125q0.828125 0 1.65625 -0.390625q0.828125 -0.40625 1.90625 -1.40625l0.359375 0.3125q-1.34375 1.625 -2.625 2.328125q-1.28125 0.6875 -2.828125 0.6875q-1.953125 0 -2.703125 -0.9375q-0.75 -0.9375 -0.75 -2.171875q0 -1.921875 1.109375 -3.84375q1.125 -1.921875 3.046875 -3.078125q1.9375 -1.15625 3.875 -1.15625q0.984375 0 1.484375 0.46875q0.515625 0.46875 0.515625 1.171875q0 0.859375 -0.5 1.671875q-0.671875 1.09375 -1.703125 1.78125q-1.03125 0.671875 -2.3125 1.015625q-0.859375 0.234375 -2.296875 0.359375zm0.109375 -0.609375q1.03125 -0.15625 1.59375 -0.421875q0.578125 -0.265625 1.109375 -0.84375q0.546875 -0.578125 0.9375 -1.453125q0.40625 -0.890625 0.40625 -1.671875q0 -0.328125 -0.1875 -0.515625q-0.171875 -0.1875 -0.453125 -0.1875q-0.5625 0 -1.265625 0.78125q-1.28125 1.4375 -2.140625 4.3125z" fill-rule="nonzero"/>
    <path fill="#000000" fill-opacity="0.0" d="m451.85565 374.39108l0 72.031494" fill-rule="evenodd"/>
    <path stroke="#b7b7b7" stroke-width="8.0" stroke-linejoin="round" stroke-linecap="butt" d="m451.85565 374.39108l0 44.614777" fill-rule="evenodd"/>
    <path fill="#b7b7b7" stroke="#b7b7b7" stroke-width="8.0" stroke-linecap="butt" d="m451.85565 419.0059l-8.996674 -8.996674l8.996674 24.71814l8.996674 -24.71814z" fill-rule="evenodd"/>
    <path fill="#000000" fill-opacity="0.0" d="m157.70079 215.34383l168.0945 0l0 91.49608l-168.0945 0z" fill-rule="evenodd"/>
    <path fill="#000000" d="m168.13829 242.26382l0 -13.359375l4.609375 0q1.546875 0 2.375 0.203125q1.140625 0.25 1.953125 0.953125q1.0625 0.890625 1.578125 2.28125q0.53125 1.390625 0.53125 3.171875q0 1.515625 -0.359375 2.703125q-0.359375 1.171875 -0.921875 1.9375q-0.546875 0.765625 -1.203125 1.21875q-0.65625 0.4375 -1.59375 0.671875q-0.9375 0.21875 -2.140625 0.21875l-4.828125 0zm1.765625 -1.578125l2.859375 0q1.3125 0 2.0625 -0.234375q0.75 -0.25 1.203125 -0.703125q0.625 -0.625 0.96875 -1.6875q0.359375 -1.0625 0.359375 -2.578125q0 -2.09375 -0.6875 -3.21875q-0.6875 -1.125 -1.671875 -1.5q-0.703125 -0.28125 -2.28125 -0.28125l-2.8125 0l0 10.203125zm11.660446 1.578125l0 -13.359375l2.65625 0l3.15625 9.453125q0.4375 1.328125 0.640625 1.984375q0.234375 -0.734375 0.703125 -2.140625l3.203125 -9.296875l2.375 0l0 13.359375l-1.703125 0l0 -11.171875l-3.875 11.171875l-1.59375 0l-3.859375 -11.375l0 11.375l-1.703125 0zm15.587677 0l0 -13.359375l4.609375 0q1.546875 0 2.375 0.203125q1.140625 0.25 1.953125 0.953125q1.0625 0.890625 1.578125 2.28125q0.53125 1.390625 0.53125 3.171875q0 1.515625 -0.359375 2.703125q-0.359375 1.171875 -0.921875 1.9375q-0.546875 0.765625 -1.203125 1.21875q-0.65625 0.4375 -1.59375 0.671875q-0.9375 0.21875 -2.140625 0.21875l-4.828125 0zm1.765625 -1.578125l2.859375 0q1.3125 0 2.0625 -0.234375q0.75 -0.25 1.203125 -0.703125q0.625 -0.625 0.96875 -1.6875q0.359375 -1.0625 0.359375 -2.578125q0 -2.09375 -0.6875 -3.21875q-0.6875 -1.125 -1.671875 -1.5q-0.703125 -0.28125 -2.28125 -0.28125l-2.8125 0l0 10.203125zm10.863571 -2.4375l0 -1.640625l5.03125 0l0 1.640625l-5.03125 0zm7.353302 4.015625l0 -13.359375l1.765625 0l0 13.359375l-1.765625 0zm4.886429 0l0 -13.359375l4.609375 0q1.546875 0 2.375 0.203125q1.140625 0.25 1.953125 0.953125q1.0625 0.890625 1.578125 2.28125q0.53125 1.390625 0.53125 3.171875q0 1.515625 -0.359375 2.703125q-0.359375 1.171875 -0.921875 1.9375q-0.546875 0.765625 -1.203125 1.21875q-0.65625 0.4375 -1.59375 0.671875q-0.9375 0.21875 -2.140625 0.21875l-4.828125 0zm1.765625 -1.578125l2.859375 0q1.3125 0 2.0625 -0.234375q0.75 -0.25 1.203125 -0.703125q0.625 -0.625 0.96875 -1.6875q0.359375 -1.0625 0.359375 -2.578125q0 -2.09375 -0.6875 -3.21875q-0.6875 -1.125 -1.671875 -1.5q-0.703125 -0.28125 -2.28125 -0.28125l-2.8125 0l0 10.203125z" fill-rule="nonzero"/>
    <path fill="#000000" d="m174.56017 261.15445l1.6875 0.203125q-0.40625 1.484375 -1.484375 2.3125q-1.078125 0.8125 -2.765625 0.8125q-2.125 0 -3.375 -1.296875q-1.234375 -1.3125 -1.234375 -3.671875q0 -2.453125 1.25 -3.796875q1.265625 -1.34375 3.265625 -1.34375q1.9375 0 3.15625 1.328125q1.234375 1.3125 1.234375 3.703125q0 0.15625 0 0.4375l-7.21875 0q0.09375 1.59375 0.90625 2.453125q0.8125 0.84375 2.015625 0.84375q0.90625 0 1.546875 -0.46875q0.640625 -0.484375 1.015625 -1.515625zm-5.390625 -2.65625l5.40625 0q-0.109375 -1.21875 -0.625 -1.828125q-0.78125 -0.953125 -2.03125 -0.953125q-1.125 0 -1.90625 0.765625q-0.765625 0.75 -0.84375 2.015625zm9.141342 5.765625l0 -9.671875l1.46875 0l0 1.359375q0.453125 -0.71875 1.203125 -1.140625q0.765625 -0.4375 1.71875 -0.4375q1.078125 0 1.765625 0.453125q0.6875 0.4375 0.96875 1.234375q1.15625 -1.6875 2.984375 -1.6875q1.453125 0 2.21875 0.796875q0.78125 0.796875 0.78125 2.453125l0 6.640625l-1.640625 0l0 -6.09375q0 -0.984375 -0.15625 -1.40625q-0.15625 -0.4375 -0.578125 -0.703125q-0.421875 -0.265625 -0.984375 -0.265625q-1.015625 0 -1.6875 0.6875q-0.671875 0.671875 -0.671875 2.15625l0 5.625l-1.640625 0l0 -6.28125q0 -1.09375 -0.40625 -1.640625q-0.40625 -0.546875 -1.3125 -0.546875q-0.6875 0 -1.28125 0.359375q-0.59375 0.359375 -0.859375 1.0625q-0.25 0.703125 -0.25 2.03125l0 5.015625l-1.640625 0zm17.040802 0l-1.515625 0l0 -13.359375l1.640625 0l0 4.765625q1.046875 -1.296875 2.65625 -1.296875q0.890625 0 1.6875 0.359375q0.796875 0.359375 1.3125 1.015625q0.515625 0.640625 0.796875 1.5625q0.296875 0.921875 0.296875 1.96875q0 2.484375 -1.234375 3.84375q-1.21875 1.359375 -2.953125 1.359375q-1.703125 0 -2.6875 -1.4375l0 1.21875zm-0.015625 -4.90625q0 1.734375 0.484375 2.515625q0.765625 1.265625 2.09375 1.265625q1.078125 0 1.859375 -0.9375q0.78125 -0.9375 0.78125 -2.78125q0 -1.890625 -0.75 -2.796875q-0.75 -0.90625 -1.828125 -0.90625q-1.0625 0 -1.859375 0.9375q-0.78125 0.9375 -0.78125 2.703125zm15.516342 1.796875l1.6875 0.203125q-0.40625 1.484375 -1.484375 2.3125q-1.078125 0.8125 -2.765625 0.8125q-2.125 0 -3.375 -1.296875q-1.234375 -1.3125 -1.234375 -3.671875q0 -2.453125 1.25 -3.796875q1.265625 -1.34375 3.265625 -1.34375q1.9375 0 3.15625 1.328125q1.234375 1.3125 1.234375 3.703125q0 0.15625 0 0.4375l-7.21875 0q0.09375 1.59375 0.90625 2.453125q0.8125 0.84375 2.015625 0.84375q0.90625 0 1.546875 -0.46875q0.640625 -0.484375 1.015625 -1.515625zm-5.390625 -2.65625l5.40625 0q-0.109375 -1.21875 -0.625 -1.828125q-0.78125 -0.953125 -2.03125 -0.953125q-1.125 0 -1.90625 0.765625q-0.765625 0.75 -0.84375 2.015625zm15.406967 5.765625l0 -1.21875q-0.90625 1.4375 -2.703125 1.4375q-1.15625 0 -2.125 -0.640625q-0.96875 -0.640625 -1.5 -1.78125q-0.53125 -1.140625 -0.53125 -2.625q0 -1.453125 0.484375 -2.625q0.484375 -1.1875 1.4375 -1.8125q0.96875 -0.625 2.171875 -0.625q0.875 0 1.546875 0.375q0.6875 0.359375 1.109375 0.953125l0 -4.796875l1.640625 0l0 13.359375l-1.53125 0zm-5.171875 -4.828125q0 1.859375 0.78125 2.78125q0.78125 0.921875 1.84375 0.921875q1.078125 0 1.828125 -0.875q0.75 -0.890625 0.75 -2.6875q0 -1.984375 -0.765625 -2.90625q-0.765625 -0.9375 -1.890625 -0.9375q-1.078125 0 -1.8125 0.890625q-0.734375 0.890625 -0.734375 2.8125zm20.777771 1.28125l1.609375 0.21875q-0.265625 1.65625 -1.359375 2.609375q-1.078125 0.9375 -2.671875 0.9375q-1.984375 0 -3.1875 -1.296875q-1.203125 -1.296875 -1.203125 -3.71875q0 -1.578125 0.515625 -2.75q0.515625 -1.171875 1.578125 -1.75q1.0625 -0.59375 2.3125 -0.59375q1.578125 0 2.578125 0.796875q1.0 0.796875 1.28125 2.265625l-1.59375 0.234375q-0.234375 -0.96875 -0.8125 -1.453125q-0.578125 -0.5 -1.390625 -0.5q-1.234375 0 -2.015625 0.890625q-0.78125 0.890625 -0.78125 2.8125q0 1.953125 0.75 2.84375q0.75 0.875 1.953125 0.875q0.96875 0 1.609375 -0.59375q0.65625 -0.59375 0.828125 -1.828125zm2.40625 -1.296875q0 -2.6875 1.484375 -3.96875q1.25 -1.078125 3.046875 -1.078125q2.0 0 3.265625 1.3125q1.265625 1.296875 1.265625 3.609375q0 1.859375 -0.5625 2.9375q-0.5625 1.0625 -1.640625 1.65625q-1.0625 0.59375 -2.328125 0.59375q-2.03125 0 -3.28125 -1.296875q-1.25 -1.3125 -1.25 -3.765625zm1.6875 0q0 1.859375 0.796875 2.796875q0.8125 0.921875 2.046875 0.921875q1.21875 0 2.03125 -0.921875q0.8125 -0.9375 0.8125 -2.84375q0 -1.796875 -0.8125 -2.71875q-0.8125 -0.921875 -2.03125 -0.921875q-1.234375 0 -2.046875 0.921875q-0.796875 0.90625 -0.796875 2.765625zm15.563202 4.84375l0 -1.21875q-0.90623474 1.4375 -2.7031097 1.4375q-1.15625 0 -2.125 -0.640625q-0.96875 -0.640625 -1.5 -1.78125q-0.53125 -1.140625 -0.53125 -2.625q0 -1.453125 0.484375 -2.625q0.484375 -1.1875 1.4375 -1.8125q0.96875 -0.625 2.171875 -0.625q0.875 0 1.546875 0.375q0.6875 0.359375 1.1093597 0.953125l0 -4.796875l1.640625 0l0 13.359375l-1.53125 0zm-5.1718597 -4.828125q0 1.859375 0.78125 2.78125q0.78125 0.921875 1.84375 0.921875q1.078125 0 1.828125 -0.875q0.74998474 -0.890625 0.74998474 -2.6875q0 -1.984375 -0.76560974 -2.90625q-0.765625 -0.9375 -1.890625 -0.9375q-1.078125 0 -1.8125 0.890625q-0.734375 0.890625 -0.734375 2.8125zm15.906967 1.71875l1.6875 0.203125q-0.40625 1.484375 -1.484375 2.3125q-1.078125 0.8125 -2.765625 0.8125q-2.125 0 -3.375 -1.296875q-1.234375 -1.3125 -1.234375 -3.671875q0 -2.453125 1.25 -3.796875q1.265625 -1.34375 3.265625 -1.34375q1.9375 0 3.15625 1.328125q1.234375 1.3125 1.234375 3.703125q0 0.15625 0 0.4375l-7.21875 0q0.09375 1.59375 0.90625 2.453125q0.8125 0.84375 2.015625 0.84375q0.90625 0 1.546875 -0.46875q0.640625 -0.484375 1.015625 -1.515625zm-5.390625 -2.65625l5.40625 0q-0.109375 -1.21875 -0.625 -1.828125q-0.78125 -0.953125 -2.03125 -0.953125q-1.125 0 -1.90625 0.765625q-0.765625 0.75 -0.84375 2.015625z" fill-rule="nonzero"/>
    <path fill="#000000" d="m174.24767 282.71695l1.609375 0.21875q-0.265625 1.65625 -1.359375 2.609375q-1.078125 0.9375 -2.671875 0.9375q-1.984375 0 -3.1875 -1.296875q-1.203125 -1.296875 -1.203125 -3.71875q0 -1.578125 0.515625 -2.75q0.515625 -1.171875 1.578125 -1.75q1.0625 -0.59375 2.3125 -0.59375q1.578125 0 2.578125 0.796875q1.0 0.796875 1.28125 2.265625l-1.59375 0.234375q-0.234375 -0.96875 -0.8125 -1.453125q-0.578125 -0.5 -1.390625 -0.5q-1.234375 0 -2.015625 0.890625q-0.78125 0.890625 -0.78125 2.8125q0 1.953125 0.75 2.84375q0.75 0.875 1.953125 0.875q0.96875 0 1.609375 -0.59375q0.65625 -0.59375 0.828125 -1.828125zm2.40625 -1.296875q0 -2.6875 1.484375 -3.96875q1.25 -1.078125 3.046875 -1.078125q2.0 0 3.265625 1.3125q1.265625 1.296875 1.265625 3.609375q0 1.859375 -0.5625 2.9375q-0.5625 1.0625 -1.640625 1.65625q-1.0625 0.59375 -2.328125 0.59375q-2.03125 0 -3.28125 -1.296875q-1.25 -1.3125 -1.25 -3.765625zm1.6875 0q0 1.859375 0.796875 2.796875q0.8125 0.921875 2.046875 0.921875q1.21875 0 2.03125 -0.921875q0.8125 -0.9375 0.8125 -2.84375q0 -1.796875 -0.8125 -2.71875q-0.8125 -0.921875 -2.03125 -0.921875q-1.234375 0 -2.046875 0.921875q-0.796875 0.90625 -0.796875 2.765625zm9.297592 4.84375l0 -9.671875l1.46875 0l0 1.359375q0.453125 -0.71875 1.203125 -1.140625q0.765625 -0.4375 1.71875 -0.4375q1.078125 0 1.765625 0.453125q0.6875 0.4375 0.96875 1.234375q1.15625 -1.6875 2.984375 -1.6875q1.453125 0 2.21875 0.796875q0.78125 0.796875 0.78125 2.453125l0 6.640625l-1.640625 0l0 -6.09375q0 -0.984375 -0.15625 -1.40625q-0.15625 -0.4375 -0.578125 -0.703125q-0.421875 -0.265625 -0.984375 -0.265625q-1.015625 0 -1.6875 0.6875q-0.671875 0.671875 -0.671875 2.15625l0 5.625l-1.640625 0l0 -6.28125q0 -1.09375 -0.40625 -1.640625q-0.40625 -0.546875 -1.3125 -0.546875q-0.6875 0 -1.28125 0.359375q-0.59375 0.359375 -0.859375 1.0625q-0.25 0.703125 -0.25 2.03125l0 5.015625l-1.640625 0zm15.540802 3.703125l0 -13.375l1.484375 0l0 1.25q0.53125 -0.734375 1.1875 -1.09375q0.671875 -0.375 1.625 -0.375q1.234375 0 2.171875 0.640625q0.953125 0.625 1.4375 1.796875q0.484375 1.15625 0.484375 2.546875q0 1.484375 -0.53125 2.671875q-0.53125 1.1875 -1.546875 1.828125q-1.015625 0.625 -2.140625 0.625q-0.8125 0 -1.46875 -0.34375q-0.65625 -0.34375 -1.0625 -0.875l0 4.703125l-1.640625 0zm1.484375 -8.484375q0 1.859375 0.75 2.765625q0.765625 0.890625 1.828125 0.890625q1.09375 0 1.875 -0.921875q0.78125 -0.9375 0.78125 -2.875q0 -1.84375 -0.765625 -2.765625q-0.75 -0.921875 -1.8125 -0.921875q-1.046875 0 -1.859375 0.984375q-0.796875 0.96875 -0.796875 2.84375zm8.281967 -0.0625q0 -2.6875 1.484375 -3.96875q1.25 -1.078125 3.046875 -1.078125q2.0 0 3.265625 1.3125q1.265625 1.296875 1.265625 3.609375q0 1.859375 -0.5625 2.9375q-0.5625 1.0625 -1.640625 1.65625q-1.0625 0.59375 -2.328125 0.59375q-2.03125 0 -3.28125 -1.296875q-1.25 -1.3125 -1.25 -3.765625zm1.6875 0q0 1.859375 0.796875 2.796875q0.8125 0.921875 2.046875 0.921875q1.21875 0 2.03125 -0.921875q0.8125 -0.9375 0.8125 -2.84375q0 -1.796875 -0.8125 -2.71875q-0.8125 -0.921875 -2.03125 -0.921875q-1.234375 0 -2.046875 0.921875q-0.796875 0.90625 -0.796875 2.765625zm9.297592 4.84375l0 -9.671875l1.46875 0l0 1.375q1.0625 -1.59375 3.078125 -1.59375q0.875 0 1.609375 0.3125q0.734375 0.3125 1.09375 0.828125q0.375 0.5 0.515625 1.203125q0.09375 0.453125 0.09375 1.59375l0 5.953125l-1.640625 0l0 -5.890625q0 -1.0 -0.203125 -1.484375q-0.1875 -0.5 -0.671875 -0.796875q-0.484375 -0.296875 -1.140625 -0.296875q-1.046875 0 -1.8125 0.671875q-0.75 0.65625 -0.75 2.515625l0 5.28125l-1.640625 0zm17.000717 -3.109375l1.6875 0.203125q-0.40625 1.484375 -1.484375 2.3125q-1.078125 0.8125 -2.765625 0.8125q-2.125 0 -3.375 -1.296875q-1.234375 -1.3125 -1.234375 -3.671875q0 -2.453125 1.25 -3.796875q1.265625 -1.34375 3.265625 -1.34375q1.9375 0 3.15625 1.328125q1.234375 1.3125 1.234375 3.703125q0 0.15625 0 0.4375l-7.21875 0q0.09375 1.59375 0.90625 2.453125q0.8125 0.84375 2.015625 0.84375q0.90625 0 1.546875 -0.46875q0.640625 -0.484375 1.015625 -1.515625zm-5.390625 -2.65625l5.40625 0q-0.109375 -1.21875 -0.625 -1.828125q-0.78125 -0.953125 -2.03125 -0.953125q-1.125 0 -1.90625 0.765625q-0.765625 0.75 -0.84375 2.015625zm9.141342 5.765625l0 -9.671875l1.46875 0l0 1.375q1.0625 -1.59375 3.078125 -1.59375q0.875 0 1.609375 0.3125q0.734375 0.3125 1.09375 0.828125q0.375 0.5 0.515625 1.203125q0.09375 0.453125 0.09375 1.59375l0 5.953125l-1.640625 0l0 -5.890625q0 -1.0 -0.203125 -1.484375q-0.1875 -0.5 -0.671875 -0.796875q-0.484375 -0.296875 -1.140625 -0.296875q-1.046875 0 -1.8125 0.671875q-0.75 0.65625 -0.75 2.515625l0 5.28125l-1.640625 0zm13.953827 -1.46875l0.234375 1.453125q-0.6875 0.140625 -1.234375 0.140625q-0.890625 0 -1.390625 -0.28125q-0.48435974 -0.28125 -0.68748474 -0.734375q-0.203125 -0.46875 -0.203125 -1.9375l0 -5.578125l-1.203125 0l0 -1.265625l1.203125 0l0 -2.390625l1.6249847 -0.984375l0 3.375l1.65625 0l0 1.265625l-1.65625 0l0 5.671875q0 0.6875 0.078125 0.890625q0.09375 0.203125 0.28125 0.328125q0.203125 0.109375 0.578125 0.109375q0.265625 0 0.71875 -0.0625z" fill-rule="nonzero"/>
  </g>
</svg>