<?xml version="1.0" encoding="utf-8"?>
<svg version="1.1" viewBox="0.0 0.0 650.0 630.0" fill="none" stroke="none" stroke-linecap="square" stroke-miterlimit="10" xmlns="http://www.w3.org/2000/svg" xmlns:xlink="http://www.w3.org/1999/xlink">
  <clipPath id="g762aacfeaf_0_5.0">
    <path d="m0 0l960.0 0l0 720.0l-960.0 0l0 -720.0z" clip-rule="nonzero"/>
  </clipPath>
  <g clip-path="url(#g762aacfeaf_0_5.0)" style="" transform="matrix(1.20283, 0, 0, 1.22556, -254.71675, -116.87904)">
    <path fill="#ffffff" d="m0 0l960.0 0l0 720.0l-960.0 0z" fill-rule="evenodd"/>
    <g filter="url(#shadowFilter-g762aacfeaf_0_5.1)">
      <use transform="matrix(1, 0, 0, 1, 7.641242027282715, 7.912737846374512)" xlink:href="#g762aacfeaf_0_5.1"/>
    </g>
    <defs>
      <filter id="shadowFilter-g762aacfeaf_0_5.1" filterUnits="userSpaceOnUse">
        <feGaussianBlur in="SourceAlpha" stdDeviation="4.0" result="blur"/>
        <feComponentTransfer in="blur" color-interpolation-filters="sRGB">
          <feFuncR type="linear" slope="0" intercept="0.0"/>
          <feFuncG type="linear" slope="0" intercept="0.0"/>
          <feFuncB type="linear" slope="0" intercept="0.0"/>
          <feFuncA type="linear" slope="0.5" intercept="0"/>
        </feComponentTransfer>
      </filter>
    </defs>
    <g id="g762aacfeaf_0_5.1">
      <path fill="#ead1dc" d="m225.35957 340.69028l0 0c0 -123.12904 105.110855 -222.94487 234.77165 -222.94487l0 0c62.26532 0 121.98041 23.48877 166.0086 65.29904c44.02826 41.810272 68.76306 98.517166 68.76306 157.64583l0 0c0 123.12906 -105.11084 222.94492 -234.77167 222.94492l0 0c-129.6608 0 -234.77165 -99.81586 -234.77165 -222.94492z" fill-rule="evenodd"/>
      <path stroke="#d5a6bd" stroke-width="16.0" stroke-linejoin="round" stroke-linecap="butt" d="m225.35957 340.69028l0 0c0 -123.12904 105.110855 -222.94487 234.77165 -222.94487l0 0c62.26532 0 121.98041 23.48877 166.0086 65.29904c44.02826 41.810272 68.76306 98.517166 68.76306 157.64583l0 0c0 123.12906 -105.11084 222.94492 -234.77167 222.94492l0 0c-129.6608 0 -234.77165 -99.81586 -234.77165 -222.94492z" fill-rule="evenodd"/>
    </g>
    <g filter="url(#shadowFilter-g762aacfeaf_0_5.2)">
      <use transform="matrix(1, 0, 0, 1, 5.870693683624268, 3.8124730587005615)" xlink:href="#g762aacfeaf_0_5.2"/>
    </g>
    <defs>
      <filter id="shadowFilter-g762aacfeaf_0_5.2" filterUnits="userSpaceOnUse">
        <feGaussianBlur in="SourceAlpha" stdDeviation="0.0" result="blur"/>
        <feComponentTransfer in="blur" color-interpolation-filters="sRGB">
          <feFuncR type="linear" slope="0" intercept="0.0"/>
          <feFuncG type="linear" slope="0" intercept="0.0"/>
          <feFuncB type="linear" slope="0" intercept="0.0"/>
          <feFuncA type="linear" slope="0.5" intercept="0"/>
        </feComponentTransfer>
      </filter>
    </defs>
    <g id="g762aacfeaf_0_5.2">
      <path fill="#ff0000" d="m329.61725 279.92468c-13.207916 -4.890747 -9.477509 -18.403076 -9.947144 -26.526733c-0.469635 -8.123657 4.421417 -16.882416 7.1293335 -22.21521c2.7079468 -5.332779 5.7749634 -6.769684 9.118256 -9.781509c3.3433228 -3.0118103 8.786377 -6.0234985 10.941589 -8.289398c2.155243 -2.2658997 2.7358093 -2.6256714 1.9897461 -5.3059998c-0.7460327 -2.6803284 -5.029297 -7.018097 -6.4660645 -10.77597c-1.4367676 -3.7578735 -2.9559326 -6.8805084 -2.154541 -11.771271c0.8013916 -4.890747 3.3431702 -12.710114 6.9628906 -17.573273c3.619751 -4.863144 8.814789 -9.422684 14.755493 -11.605652c5.9407043 -2.182953 14.643982 -2.901413 20.888702 -1.492096c6.2447205 1.4093018 12.600647 5.8030853 16.57962 9.947922c3.9789429 4.1448364 5.8849487 9.83699 7.2941284 14.921097c1.4091492 5.084091 1.9069214 11.024384 1.1608887 15.583511c-0.74606323 4.559143 -4.117523 8.704117 -5.6372375 11.771271c-1.5196838 3.067154 -3.536377 4.807953 -3.4810486 6.6316833c0.055358887 1.8237305 1.3262329 2.3765717 3.8130798 4.3107147c2.486847 1.9341431 7.433075 4.2546997 11.108032 7.294113c3.6749268 3.0394287 8.34433 5.8305664 10.941589 10.942413c2.597229 5.1118317 4.3932495 12.599701 4.6419373 19.728622c0.24865723 7.1289215 1.9066467 18.54097 -3.1498413 23.044876c-5.056488 4.503937 -11.107605 3.7852173 -27.189178 3.9786987c-16.081573 0.19348145 -56.092346 2.0729675 -69.30023 -2.81781z" fill-rule="evenodd"/>
      <path stroke="#595959" stroke-width="2.0" stroke-linejoin="round" stroke-linecap="butt" d="m329.61725 279.92468c-13.207916 -4.890747 -9.477509 -18.403076 -9.947144 -26.526733c-0.469635 -8.123657 4.421417 -16.882416 7.1293335 -22.21521c2.7079468 -5.332779 5.7749634 -6.769684 9.118256 -9.781509c3.3433228 -3.0118103 8.786377 -6.0234985 10.941589 -8.289398c2.155243 -2.2658997 2.7358093 -2.6256714 1.9897461 -5.3059998c-0.7460327 -2.6803284 -5.029297 -7.018097 -6.4660645 -10.77597c-1.4367676 -3.7578735 -2.9559326 -6.8805084 -2.154541 -11.771271c0.8013916 -4.890747 3.3431702 -12.710114 6.9628906 -17.573273c3.619751 -4.863144 8.814789 -9.422684 14.755493 -11.605652c5.9407043 -2.182953 14.643982 -2.901413 20.888702 -1.492096c6.2447205 1.4093018 12.600647 5.8030853 16.57962 9.947922c3.9789429 4.1448364 5.8849487 9.83699 7.2941284 14.921097c1.4091492 5.084091 1.9069214 11.024384 1.1608887 15.583511c-0.74606323 4.559143 -4.117523 8.704117 -5.6372375 11.771271c-1.5196838 3.067154 -3.536377 4.807953 -3.4810486 6.6316833c0.055358887 1.8237305 1.3262329 2.3765717 3.8130798 4.3107147c2.486847 1.9341431 7.433075 4.2546997 11.108032 7.294113c3.6749268 3.0394287 8.34433 5.8305664 10.941589 10.942413c2.597229 5.1118317 4.3932495 12.599701 4.6419373 19.728622c0.24865723 7.1289215 1.9066467 18.54097 -3.1498413 23.044876c-5.056488 4.503937 -11.107605 3.7852173 -27.189178 3.9786987c-16.081573 0.19348145 -56.092346 2.0729675 -69.30023 -2.81781z" fill-rule="evenodd"/>
    </g>
    <path fill="#000000" d="m475.46143 252.16037l49.044067 33.33914l15.014099 -22.061798l9.916626 52.093933l-52.12137 9.921814l15.01413 -22.061798l-49.044037 -33.33914z" fill-rule="evenodd"/>
    <path stroke="#595959" stroke-width="1.0" stroke-linejoin="round" stroke-linecap="butt" d="m475.46143 252.16037l49.044067 33.33914l15.014099 -22.061798l9.916626 52.093933l-52.12137 9.921814l15.01413 -22.061798l-49.044037 -33.33914z" fill-rule="evenodd"/>
    <path fill="#000000" d="m536.98334 382.6643l-49.139862 33.203674l14.935699 22.117798l-52.072723 -10.085571l10.08847 -52.087646l14.935669 22.117798l49.139893 -33.203674z" fill-rule="evenodd"/>
    <path stroke="#595959" stroke-width="1.0" stroke-linejoin="round" stroke-linecap="butt" d="m536.98334 382.6643l-49.139862 33.203674l14.935699 22.117798l-52.072723 -10.085571l10.08847 -52.087646l14.935669 22.117798l49.139893 -33.203674z" fill-rule="evenodd"/>
    <g filter="url(#shadowFilter-g762aacfeaf_0_5.3)">
      <use transform="matrix(1, 0, 0, 1, 5.870693683624268, 3.8124730587005615)" xlink:href="#g762aacfeaf_0_5.3"/>
    </g>
    <defs>
      <filter id="shadowFilter-g762aacfeaf_0_5.3" filterUnits="userSpaceOnUse">
        <feGaussianBlur in="SourceAlpha" stdDeviation="0.0" result="blur"/>
        <feComponentTransfer in="blur" color-interpolation-filters="sRGB">
          <feFuncR type="linear" slope="0" intercept="0.0"/>
          <feFuncG type="linear" slope="0" intercept="0.0"/>
          <feFuncB type="linear" slope="0" intercept="0.0"/>
          <feFuncA type="linear" slope="0.5" intercept="0"/>
        </feComponentTransfer>
      </filter>
    </defs>
    <g id="g762aacfeaf_0_5.3">
      <path fill="#ffff00" d="m569.67236 411.70422c-13.207886 -4.890747 -9.477478 -18.403076 -9.947144 -26.526733c-0.4696045 -8.123657 4.4213867 -16.882416 7.1293335 -22.21521c2.7079468 -5.332794 5.7749634 -6.7697144 9.118286 -9.781525c3.3432617 -3.0118103 8.786377 -6.0234985 10.941589 -8.289398c2.1552124 -2.2658997 2.7357788 -2.6256714 1.9897461 -5.3059998c-0.74609375 -2.6803284 -5.029297 -7.018097 -6.4660645 -10.77597c-1.4367676 -3.7578735 -2.9559937 -6.880493 -2.154602 -11.771271c0.80145264 -4.890747 3.3432007 -12.710114 6.9629517 -17.573273c3.61969 -4.863159 8.814758 -9.422699 14.755432 -11.605652c5.940735 -2.182953 14.644043 -2.9013977 20.888733 -1.492096c6.244751 1.4093018 12.600647 5.8031006 16.57959 9.947937c3.979004 4.1448364 5.88501 9.836975 7.2941284 14.921082c1.4091797 5.0841064 1.9069824 11.024384 1.1608887 15.583527c-0.7460327 4.5591125 -4.1174927 8.704102 -5.637207 11.77124c-1.5197144 3.0671692 -3.536377 4.807953 -3.481018 6.6316833c0.05529785 1.823761 1.3262329 2.376587 3.8130493 4.31073c2.4868774 1.9341431 7.4331055 4.2546997 11.108032 7.2941284c3.6749268 3.0394287 8.344299 5.8305664 10.941589 10.942383c2.597229 5.111847 4.3932495 12.599731 4.6419067 19.728638c0.24871826 7.128937 1.9066772 18.540955 -3.1497803 23.044891c-5.0565186 4.5039062 -11.107605 3.7851868 -27.189209 3.9786682c-16.081543 0.19348145 -56.092346 2.0729675 -69.30023 -2.8177795z" fill-rule="evenodd"/>
      <path stroke="#595959" stroke-width="2.0" stroke-linejoin="round" stroke-linecap="butt" d="m569.67236 411.70422c-13.207886 -4.890747 -9.477478 -18.403076 -9.947144 -26.526733c-0.4696045 -8.123657 4.4213867 -16.882416 7.1293335 -22.21521c2.7079468 -5.332794 5.7749634 -6.7697144 9.118286 -9.781525c3.3432617 -3.0118103 8.786377 -6.0234985 10.941589 -8.289398c2.1552124 -2.2658997 2.7357788 -2.6256714 1.9897461 -5.3059998c-0.74609375 -2.6803284 -5.029297 -7.018097 -6.4660645 -10.77597c-1.4367676 -3.7578735 -2.9559937 -6.880493 -2.154602 -11.771271c0.80145264 -4.890747 3.3432007 -12.710114 6.9629517 -17.573273c3.61969 -4.863159 8.814758 -9.422699 14.755432 -11.605652c5.940735 -2.182953 14.644043 -2.9013977 20.888733 -1.492096c6.244751 1.4093018 12.600647 5.8031006 16.57959 9.947937c3.979004 4.1448364 5.88501 9.836975 7.2941284 14.921082c1.4091797 5.0841064 1.9069824 11.024384 1.1608887 15.583527c-0.7460327 4.5591125 -4.1174927 8.704102 -5.637207 11.77124c-1.5197144 3.0671692 -3.536377 4.807953 -3.481018 6.6316833c0.05529785 1.823761 1.3262329 2.376587 3.8130493 4.31073c2.4868774 1.9341431 7.4331055 4.2546997 11.108032 7.2941284c3.6749268 3.0394287 8.344299 5.8305664 10.941589 10.942383c2.597229 5.111847 4.3932495 12.599731 4.6419067 19.728638c0.24871826 7.128937 1.9066772 18.540955 -3.1497803 23.044891c-5.0565186 4.5039062 -11.107605 3.7851868 -27.189209 3.9786682c-16.081543 0.19348145 -56.092346 2.0729675 -69.30023 -2.8177795z" fill-rule="evenodd"/>
    </g>
    <g filter="url(#shadowFilter-g762aacfeaf_0_5.4)">
      <use transform="matrix(1, 0, 0, 1, 5.870693683624268, 3.8124730587005615)" xlink:href="#g762aacfeaf_0_5.4"/>
    </g>
    <defs>
      <filter id="shadowFilter-g762aacfeaf_0_5.4" filterUnits="userSpaceOnUse">
        <feGaussianBlur in="SourceAlpha" stdDeviation="0.0" result="blur"/>
        <feComponentTransfer in="blur" color-interpolation-filters="sRGB">
          <feFuncR type="linear" slope="0" intercept="0.0"/>
          <feFuncG type="linear" slope="0" intercept="0.0"/>
          <feFuncB type="linear" slope="0" intercept="0.0"/>
          <feFuncA type="linear" slope="0.5" intercept="0"/>
        </feComponentTransfer>
      </filter>
    </defs>
    <g id="g762aacfeaf_0_5.4">
      <path fill="#0000ff" d="m329.61725 508.64124c-13.207916 -4.8907776 -9.477509 -18.403076 -9.947144 -26.526733c-0.469635 -8.123657 4.421417 -16.882446 7.1293335 -22.21521c2.7079468 -5.332794 5.7749634 -6.7697144 9.118256 -9.781525c3.3433228 -3.0118103 8.786377 -6.0234985 10.941589 -8.289398c2.155243 -2.2658997 2.7358093 -2.6256714 1.9897461 -5.3059998c-0.7460327 -2.6803284 -5.029297 -7.018097 -6.4660645 -10.77597c-1.4367676 -3.7578735 -2.9559326 -6.8805237 -2.154541 -11.771271c0.8013916 -4.890747 3.3431702 -12.710114 6.9628906 -17.573273c3.619751 -4.863159 8.814789 -9.422699 14.755493 -11.605652c5.9407043 -2.182953 14.643982 -2.9013977 20.888702 -1.492096c6.2447205 1.4093018 12.600647 5.8031006 16.57962 9.947937c3.9789429 4.1448364 5.8849487 9.836975 7.2941284 14.921082c1.4091492 5.0841064 1.9069214 11.024384 1.1608887 15.583527c-0.74606323 4.5591125 -4.117523 8.704102 -5.6372375 11.77124c-1.5196838 3.0671692 -3.536377 4.807953 -3.4810486 6.6316833c0.055358887 1.8237305 1.3262329 2.376587 3.8130798 4.31073c2.486847 1.9341431 7.433075 4.2546997 11.108032 7.2941284c3.6749268 3.0393982 8.34433 5.8305664 10.941589 10.942383c2.597229 5.111847 4.3932495 12.599731 4.6419373 19.728638c0.24865723 7.1289062 1.9066467 18.540955 -3.1498413 23.044891c-5.056488 4.5039062 -11.107605 3.7851868 -27.189178 3.9786682c-16.081573 0.19348145 -56.092346 2.0729675 -69.30023 -2.8177795z" fill-rule="evenodd"/>
      <path stroke="#595959" stroke-width="2.0" stroke-linejoin="round" stroke-linecap="butt" d="m329.61725 508.64124c-13.207916 -4.8907776 -9.477509 -18.403076 -9.947144 -26.526733c-0.469635 -8.123657 4.421417 -16.882446 7.1293335 -22.21521c2.7079468 -5.332794 5.7749634 -6.7697144 9.118256 -9.781525c3.3433228 -3.0118103 8.786377 -6.0234985 10.941589 -8.289398c2.155243 -2.2658997 2.7358093 -2.6256714 1.9897461 -5.3059998c-0.7460327 -2.6803284 -5.029297 -7.018097 -6.4660645 -10.77597c-1.4367676 -3.7578735 -2.9559326 -6.8805237 -2.154541 -11.771271c0.8013916 -4.890747 3.3431702 -12.710114 6.9628906 -17.573273c3.619751 -4.863159 8.814789 -9.422699 14.755493 -11.605652c5.9407043 -2.182953 14.643982 -2.9013977 20.888702 -1.492096c6.2447205 1.4093018 12.600647 5.8031006 16.57962 9.947937c3.9789429 4.1448364 5.8849487 9.836975 7.2941284 14.921082c1.4091492 5.0841064 1.9069214 11.024384 1.1608887 15.583527c-0.74606323 4.5591125 -4.117523 8.704102 -5.6372375 11.77124c-1.5196838 3.0671692 -3.536377 4.807953 -3.4810486 6.6316833c0.055358887 1.8237305 1.3262329 2.376587 3.8130798 4.31073c2.486847 1.9341431 7.433075 4.2546997 11.108032 7.2941284c3.6749268 3.0393982 8.34433 5.8305664 10.941589 10.942383c2.597229 5.111847 4.3932495 12.599731 4.6419373 19.728638c0.24865723 7.1289062 1.9066467 18.540955 -3.1498413 23.044891c-5.056488 4.5039062 -11.107605 3.7851868 -27.189178 3.9786682c-16.081573 0.19348145 -56.092346 2.0729675 -69.30023 -2.8177795z" fill-rule="evenodd"/>
    </g>
  </g>
</svg>
