<?xml version="1.0" encoding="utf-8"?>
<svg baseProfile="tiny" id="Layer_1" version="1.2" viewBox="0 0 512 512" xmlns="http://www.w3.org/2000/svg" xmlns:bx="https://boxy-svg.com">
  <g id="XMLID_785_">
    <rect height="19" id="XMLID_17_" width="227" x="140" y="124" style="fill: rgb(79, 118, 190);"/>
    <rect height="19" id="XMLID_16_" width="227" x="140" y="155" style="fill: rgb(79, 118, 190);"/>
    <rect height="19" id="XMLID_15_" width="227" x="140" y="186" style="fill: rgb(79, 118, 190);"/>
    <rect height="19" id="XMLID_14_" width="227" x="140" y="217" style="fill: rgb(79, 118, 190);"/>
    <rect height="19" id="XMLID_13_" width="177" x="140" y="248" style="fill: rgb(79, 118, 190);"/>
    <path d="M 407 430 C 407 445 394 458 378 458 L 130 458 C 114 458 101 445 101 430 L 101 421 L 88 421 L 88 434 C 88 455 104 471 125 471 L 383 471 C 403 471 420 455 420 434 L 420 46 L 407 58 L 407 430 Z" id="XMLID_9_" style="fill: rgb(79, 118, 190);"/>
    <path d="M 101 76 C 101 60 114 47 130 47 L 393 47 C 392 42 403 39 407 35 L 125 34 C 104 34 88 50 88 71 L 88 298 L 101 298 L 101 76 Z" id="XMLID_8_" style="fill: rgb(79, 118, 190);"/>
    <path d="M 365 360 C 365 331 342 307 313 307 L 75 307 L 75 412 L 313 412 C 342 412 365 388 365 360" id="XMLID_788_" style="fill: rgb(79, 118, 190);" bx:origin="0 0"/>
    <text style="fill: rgb(251, 249, 249); font-family: Roboto; font-size: 108px; font-weight: bold; white-space: pre;" x="75" y="397">JSON</text>
  </g>
  <g transform="matrix(0, -7.13033, 7.10127, 0, 108.97592, 426.59979)"/>
  <g transform="matrix(7.72018, -0.77954, 1.56764, 7.73909, -0.41922, -31.11909)" bx:origin="5 1">
    <path d="M 55 22 L 48 15 C 47 14 45 14 44 15 L 40 18 L 40 19 L 23 35 L 21 45 L 20 49 L 25 48 L 35 47 L 51 30 L 52 30 L 55 26 C 56 25 56 23 55 22 Z" fill="#231F20" opacity="0.2"/>
    <path d="M 51 28 C 50 30 48 30 47 28 L 40 21 C 38 20 38 18 40 17 L 44 13 C 45 12 47 12 48 13 L 55 20 C 56 21 56 23 55 24 L 51 28 Z" fill="#C75C5C"/>
    <rect fill="#E0995E" height="4" transform="matrix(0.70711, -0.70711, 0.70711, 0.70711, -8.8823, 31.1838)" width="24" x="21" y="24"/>
    <rect fill="#F5CF87" height="9" transform="matrix(0.70711, -0.70711, 0.70711, 0.70711, -16.03371, 30.44649)" width="26" x="24" y="33"/>
    <rect fill="#E0995E" height="4" transform="matrix(0.70711, -0.70711, 0.70711, 0.70711, -12.397, 39.669)" width="24" x="30" y="33"/>
    <polygon fill="#4F5D73" points="20 48 25 47 21 43"/>
    <polygon fill="#FFFFFF" points="23 33 21 43 25 47 35 45 33 43 33 40 28 40 28 35 25 35"/>
  </g>
</svg>