<svg version="1.1" viewBox="0.0 0.0 780.0 720.0" fill="none" stroke="none" stroke-linecap="square" stroke-miterlimit="10" xmlns:xlink="http://www.w3.org/1999/xlink" xmlns="http://www.w3.org/2000/svg"><clipPath id="g762aacfeaf_0_19.0"><path d="m0 0l960.0 0l0 720.0l-960.0 0l0 -720.0z" clip-rule="nonzero"/></clipPath><g clip-path="url(#g762aacfeaf_0_19.0)"><path fill="#ffffff" d="m0 0l960.0 0l0 720.0l-960.0 0z" fill-rule="evenodd"/><g filter="url(#shadowFilter-g762aacfeaf_0_19.1)"><use xlink:href="#g762aacfeaf_0_19.1" transform="matrix(1.0 0.0 0.0 1.0 7.641242079847441 7.912737989050196)"/></g><defs><filter id="shadowFilter-g762aacfeaf_0_19.1" filterUnits="userSpaceOnUse"><feGaussianBlur in="SourceAlpha" stdDeviation="4.0" result="blur"/><feComponentTransfer in="blur" color-interpolation-filters="sRGB"><feFuncR type="linear" slope="0" intercept="0.0"/><feFuncG type="linear" slope="0" intercept="0.0"/><feFuncB type="linear" slope="0" intercept="0.0"/><feFuncA type="linear" slope="0.5" intercept="0"/></feComponentTransfer></filter></defs><g id="g762aacfeaf_0_19.1"><path fill="#ead1dc" d="m16.0 357.74277l0 0c0 -187.23756 165.48543 -339.02362 369.62204 -339.02362l0 0c204.13663 0 369.62204 151.78604 369.62204 339.02362l0 0c0 187.23758 -165.48541 339.02365 -369.62204 339.02365l0 0c-204.13661 0 -369.62204 -151.78607 -369.62204 -339.02365z" fill-rule="evenodd"/><path stroke="#d5a6bd" stroke-width="16.0" stroke-linejoin="round" stroke-linecap="butt" d="m16.0 357.74277l0 0c0 -187.23756 165.48543 -339.02362 369.62204 -339.02362l0 0c204.13663 0 369.62204 151.78604 369.62204 339.02362l0 0c0 187.23758 -165.48541 339.02365 -369.62204 339.02365l0 0c-204.13661 0 -369.62204 -151.78607 -369.62204 -339.02365z" fill-rule="evenodd"/></g><g filter="url(#shadowFilter-g762aacfeaf_0_19.2)"><use xlink:href="#g762aacfeaf_0_19.2" transform="matrix(1.0 0.0 0.0 1.0 5.870693897637795 3.812473086860236)"/></g><defs><filter id="shadowFilter-g762aacfeaf_0_19.2" filterUnits="userSpaceOnUse"><feGaussianBlur in="SourceAlpha" stdDeviation="0.0" result="blur"/><feComponentTransfer in="blur" color-interpolation-filters="sRGB"><feFuncR type="linear" slope="0" intercept="0.0"/><feFuncG type="linear" slope="0" intercept="0.0"/><feFuncB type="linear" slope="0" intercept="0.0"/><feFuncA type="linear" slope="0.5" intercept="0"/></feComponentTransfer></filter></defs><g id="g762aacfeaf_0_19.2"><path fill="#ff0000" d="m180.14029 265.36392c-20.791855 -7.438141 -14.919449 -27.988388 -15.658752 -40.343292c-0.73928833 -12.354889 6.9601593 -25.67569 11.222977 -33.78607c4.2628326 -8.110397 9.090942 -10.295715 14.353973 -14.876251c5.263031 -4.580536 13.831497 -9.160858 17.224243 -12.606964c3.3927612 -3.446106 4.3067017 -3.9932556 3.1322632 -8.069641c-1.1744385 -4.0763855 -7.9171295 -10.673508 -10.178894 -16.388687c-2.2617645 -5.7151794 -4.653244 -10.464249 -3.3916779 -17.902367c1.2615509 -7.438118 5.2628174 -19.33023 10.960999 -26.726372c5.698181 -7.3961487 13.876221 -14.330536 23.228058 -17.650497c9.351852 -3.3199615 23.052567 -4.4126205 32.882996 -2.2692795c9.830444 2.1433487 19.835968 8.825661 26.09964 15.129349c6.263672 6.303688 9.264099 14.960617 11.482422 22.692787c2.2182922 7.7321777 3.001892 16.766495 1.8274536 23.700256c-1.1744385 6.933777 -6.481781 13.237671 -8.874084 17.902359c-2.392334 4.6647034 -5.566986 7.312195 -5.479889 10.085831c0.087127686 2.7736359 2.0877686 3.6144257 6.0025635 6.555969c3.914795 2.9415436 11.701141 6.4707794 17.486237 11.093292c5.7850647 4.622513 13.135651 8.867432 17.224243 16.641785c4.0885925 7.774353 6.9158325 19.162323 7.307312 30.004364c0.3914795 10.842041 3.0014954 28.198074 -4.958435 35.047867c-7.959961 6.849823 -17.485596 5.7567444 -42.80121 6.0510254c-25.315613 0.2942505 -88.30057 3.152649 -109.09244 -4.2854614z" fill-rule="evenodd"/><path stroke="#595959" stroke-width="2.0" stroke-linejoin="round" stroke-linecap="butt" d="m180.14029 265.36392c-20.791855 -7.438141 -14.919449 -27.988388 -15.658752 -40.343292c-0.73928833 -12.354889 6.9601593 -25.67569 11.222977 -33.78607c4.2628326 -8.110397 9.090942 -10.295715 14.353973 -14.876251c5.263031 -4.580536 13.831497 -9.160858 17.224243 -12.606964c3.3927612 -3.446106 4.3067017 -3.9932556 3.1322632 -8.069641c-1.1744385 -4.0763855 -7.9171295 -10.673508 -10.178894 -16.388687c-2.2617645 -5.7151794 -4.653244 -10.464249 -3.3916779 -17.902367c1.2615509 -7.438118 5.2628174 -19.33023 10.960999 -26.726372c5.698181 -7.3961487 13.876221 -14.330536 23.228058 -17.650497c9.351852 -3.3199615 23.052567 -4.4126205 32.882996 -2.2692795c9.830444 2.1433487 19.835968 8.825661 26.09964 15.129349c6.263672 6.303688 9.264099 14.960617 11.482422 22.692787c2.2182922 7.7321777 3.001892 16.766495 1.8274536 23.700256c-1.1744385 6.933777 -6.481781 13.237671 -8.874084 17.902359c-2.392334 4.6647034 -5.566986 7.312195 -5.479889 10.085831c0.087127686 2.7736359 2.0877686 3.6144257 6.0025635 6.555969c3.914795 2.9415436 11.701141 6.4707794 17.486237 11.093292c5.7850647 4.622513 13.135651 8.867432 17.224243 16.641785c4.0885925 7.774353 6.9158325 19.162323 7.307312 30.004364c0.3914795 10.842041 3.0014954 28.198074 -4.958435 35.047867c-7.959961 6.849823 -17.485596 5.7567444 -42.80121 6.0510254c-25.315613 0.2942505 -88.30057 3.152649 -109.09244 -4.2854614z" fill-rule="evenodd"/></g><path fill="#000000" d="m409.7543 223.11911l77.82617 51.086792l23.641632 -33.54648l14.992737 78.80298l-81.44943 15.496246l23.641632 -33.54648l-77.82614 -51.086792z" fill-rule="evenodd"/><path stroke="#595959" stroke-width="1.0" stroke-linejoin="round" stroke-linecap="butt" d="m409.7543 223.11911l77.82617 51.086792l23.641632 -33.54648l14.992737 78.80298l-81.44943 15.496246l23.641632 -33.54648l-77.82614 -51.086792z" fill-rule="evenodd"/><g filter="url(#shadowFilter-g762aacfeaf_0_19.3)"><use xlink:href="#g762aacfeaf_0_19.3" transform="matrix(1.0 0.0 0.0 1.0 5.870693897637795 3.812473086860236)"/></g><defs><filter id="shadowFilter-g762aacfeaf_0_19.3" filterUnits="userSpaceOnUse"><feGaussianBlur in="SourceAlpha" stdDeviation="0.0" result="blur"/><feComponentTransfer in="blur" color-interpolation-filters="sRGB"><feFuncR type="linear" slope="0" intercept="0.0"/><feFuncG type="linear" slope="0" intercept="0.0"/><feFuncB type="linear" slope="0" intercept="0.0"/><feFuncA type="linear" slope="0.5" intercept="0"/></feComponentTransfer></filter></defs><g id="g762aacfeaf_0_19.3"><path fill="#ffff00" d="m558.0807 465.75873c-20.79187 -7.438141 -14.919495 -27.988403 -15.658752 -40.343292c-0.73931885 -12.354889 6.960144 -25.67569 11.222961 -33.78607c4.2628174 -8.110382 9.090942 -10.295715 14.353943 -14.876251c5.2630615 -4.580536 13.831543 -9.160858 17.224243 -12.606964c3.3927612 -3.446106 4.3067017 -3.9932556 3.1322632 -8.069641c-1.1744385 -4.0763855 -7.9171143 -10.673523 -10.178894 -16.388702c-2.2617188 -5.7151794 -4.6531982 -10.464233 -3.3916626 -17.902344c1.2615356 -7.438141 5.2628174 -19.33023 10.960999 -26.72638c5.698181 -7.3961487 13.876221 -14.330536 23.228088 -17.650513c9.351807 -3.3199463 23.052551 -4.4125977 32.882996 -2.2692566c9.830444 2.143341 19.835938 8.825653 26.09961 15.1293335c6.263672 6.3036804 9.264099 14.960602 11.482422 22.69278c2.2183228 7.7321777 3.001892 16.76651 1.8274536 23.700256c-1.1744385 6.933777 -6.4817505 13.237671 -8.874084 17.902374c-2.392334 4.6647034 -5.5669556 7.312195 -5.4798584 10.085815c0.08709717 2.7736511 2.0877686 3.614441 6.0025635 6.555969c3.914795 2.9415588 11.701111 6.4707947 17.486206 11.093292c5.785095 4.622528 13.13562 8.867432 17.224243 16.641785c4.088623 7.774353 6.9158325 19.162323 7.307312 30.004364c0.3914795 10.842041 3.0015259 28.19809 -4.958435 35.047882c-7.959961 6.849823 -17.485596 5.7567444 -42.80121 6.050995c-25.315613 0.294281 -88.30054 3.1526794 -109.09241 -4.285431z" fill-rule="evenodd"/><path stroke="#595959" stroke-width="2.0" stroke-linejoin="round" stroke-linecap="butt" d="m558.0807 465.75873c-20.79187 -7.438141 -14.919495 -27.988403 -15.658752 -40.343292c-0.73931885 -12.354889 6.960144 -25.67569 11.222961 -33.78607c4.2628174 -8.110382 9.090942 -10.295715 14.353943 -14.876251c5.2630615 -4.580536 13.831543 -9.160858 17.224243 -12.606964c3.3927612 -3.446106 4.3067017 -3.9932556 3.1322632 -8.069641c-1.1744385 -4.0763855 -7.9171143 -10.673523 -10.178894 -16.388702c-2.2617188 -5.7151794 -4.6531982 -10.464233 -3.3916626 -17.902344c1.2615356 -7.438141 5.2628174 -19.33023 10.960999 -26.72638c5.698181 -7.3961487 13.876221 -14.330536 23.228088 -17.650513c9.351807 -3.3199463 23.052551 -4.4125977 32.882996 -2.2692566c9.830444 2.143341 19.835938 8.825653 26.09961 15.1293335c6.263672 6.3036804 9.264099 14.960602 11.482422 22.69278c2.2183228 7.7321777 3.001892 16.76651 1.8274536 23.700256c-1.1744385 6.933777 -6.4817505 13.237671 -8.874084 17.902374c-2.392334 4.6647034 -5.5669556 7.312195 -5.4798584 10.085815c0.08709717 2.7736511 2.0877686 3.614441 6.0025635 6.555969c3.914795 2.9415588 11.701111 6.4707947 17.486206 11.093292c5.785095 4.622528 13.13562 8.867432 17.224243 16.641785c4.088623 7.774353 6.9158325 19.162323 7.307312 30.004364c0.3914795 10.842041 3.0015259 28.19809 -4.958435 35.047882c-7.959961 6.849823 -17.485596 5.7567444 -42.80121 6.050995c-25.315613 0.294281 -88.30054 3.1526794 -109.09241 -4.285431z" fill-rule="evenodd"/></g><g filter="url(#shadowFilter-g762aacfeaf_0_19.4)"><use xlink:href="#g762aacfeaf_0_19.4" transform="matrix(1.0 0.0 0.0 1.0 0.0 2.0)"/></g><defs><filter id="shadowFilter-g762aacfeaf_0_19.4" filterUnits="userSpaceOnUse"><feGaussianBlur in="SourceAlpha" stdDeviation="2.0" result="blur"/><feComponentTransfer in="blur" color-interpolation-filters="sRGB"><feFuncR type="linear" slope="0" intercept="0.0"/><feFuncG type="linear" slope="0" intercept="0.0"/><feFuncB type="linear" slope="0" intercept="0.0"/><feFuncA type="linear" slope="0.5" intercept="0"/></feComponentTransfer></filter></defs><g id="g762aacfeaf_0_19.4"><path fill="#0ba1e2" d="m370.7105 417.6319c3.772461 5.438141 14.433136 18.406708 18.697601 22.589874c4.2644653 4.183136 4.6748657 2.676422 6.8891907 2.5089722c2.214325 -0.16748047 0.082092285 1.5894165 6.396698 -3.513794c6.3146057 -5.10318 22.387451 -19.408478 31.490997 -27.105408c9.103516 -7.69693 18.70105 -13.80542 23.130188 -19.07608c4.4291077 -5.2706604 -0.32785034 -7.507782 3.44458 -12.547913c3.772461 -5.040161 13.203339 -13.322205 19.190094 -17.692963c5.986786 -4.3707886 10.661682 -11.292419 16.73053 -8.531738c6.0688477 2.7606812 18.944855 18.486908 19.682587 25.095795c0.73779297 6.608917 -9.432831 10.353699 -15.25592 14.557526c-5.8230896 4.203827 -14.187866 8.302216 -19.682617 10.665405c-5.494751 2.3632202 -2.870514 -3.7644653 -13.285919 3.513794c-10.415405 7.2782593 -39.9393 31.622467 -49.206512 40.15573c-9.267212 8.533234 -5.5768433 7.0280457 -6.396698 11.043732c-0.81985474 4.0156555 -3.8530579 5.0189514 1.4775391 13.050293c5.3305664 8.031342 22.63321 26.10263 30.50595 35.137787c7.8727417 9.035156 10.005493 13.886108 16.73053 19.07306c6.7250366 5.1869507 16.812592 7.279724 23.61972 12.048523c6.807129 4.768799 13.532166 9.453308 17.223022 16.564087c3.690857 7.110779 5.9061584 17.985535 4.922119 26.100586c-0.9840088 8.115112 -5.6593933 16.649841 -10.826324 22.589905c-5.1669006 5.9400024 -12.548126 10.875244 -20.17511 13.050293c-7.6269836 2.1750488 -18.369751 1.756897 -25.586792 0c-7.2170715 -1.756897 -12.958557 -5.8563232 -17.715546 -10.541321c-4.756958 -4.6850586 -9.021942 -11.126953 -10.826324 -17.568909c-1.8043823 -6.4418945 2.5421753 -13.888123 0 -21.082642c-2.5421448 -7.194519 -6.477783 -11.292419 -15.25296 -22.084473c-8.7752075 -10.791992 -30.181091 -34.970795 -37.398163 -42.667694c-7.217041 -7.69693 -3.1973572 -4.8318176 -5.904175 -3.513794c-2.7068481 1.3180542 -9.516418 7.5945435 -10.336792 11.422058c-0.820343 3.8275452 3.446106 8.447968 5.4146423 11.543121c1.9685669 3.0950928 7.298645 6.253784 6.396698 7.027527c-0.901947 0.7738037 -7.8717346 -2.6567383 -11.80838 -2.3848877c-3.936615 0.27191162 -9.432831 0.8373413 -11.81134 4.0161743c-2.378479 3.178833 0.08258057 9.368042 -2.4595642 15.056885c-2.5421753 5.688843 -1.3939819 8.45105 -12.793396 19.07611c-11.399445 10.625061 -42.97351 35.63916 -55.60324 44.674316c-12.62973 9.035095 -14.926117 8.616455 -20.17511 9.536499c-5.248993 0.92004395 -5.577835 1.505188 -11.318832 -4.0161743c-5.7410126 -5.5213623 -18.534409 -21.499329 -23.127213 -29.112c-4.592804 -7.612671 -5.413666 -11.711548 -4.4296265 -16.564087c0.98402405 -4.852478 -1.803894 -1.842102 10.333817 -12.550903c12.137695 -10.708801 49.370193 -41.913635 62.492416 -51.701874c13.122253 -9.788239 11.4019165 -6.023773 16.240967 -7.0275574c4.839081 -1.0037842 9.677155 2.92865 12.793396 1.0047913c3.116272 -1.9238281 5.0022583 -8.177124 5.9042053 -12.547882c0.901947 -4.3707886 -1.6407166 -12.819305 -0.4925232 -13.676819c1.1482239 -0.8575134 4.5112305 5.436615 7.3817444 8.531738c2.8704834 3.0951233 6.2330017 9.181427 9.841278 10.03894c3.6082764 0.8575134 9.511993 -2.32135 11.80838 -4.89386c2.2964172 -2.5725403 3.0361633 -6.5256653 1.9700623 -10.541351c-1.0661316 -4.0156555 -5.25 -9.118866 -8.36676 -13.552704c-3.1167603 -4.433838 -6.6434326 -10.289612 -10.333801 -13.050293c-3.6903687 -2.7606812 -6.1499634 -3.7644958 -11.80838 -3.513794c-5.6584167 0.2507019 -15.007233 5.185425 -22.142181 5.0179443c-7.1349792 -0.16744995 -14.926636 -2.17453 -20.667633 -6.0227356c-5.741028 -3.8482056 -9.431885 -9.620789 -13.778442 -17.066498c-4.346527 -7.445709 -10.086563 -19.074554 -12.300873 -27.607819c-2.214325 -8.533234 -2.2148132 -17.986542 -0.98501587 -23.591644c1.2297821 -5.605072 4.755493 -10.37384 8.36377 -10.03891c3.6082764 0.33493042 8.036926 6.6941223 13.285919 12.048523c5.248993 5.3544006 13.697296 15.811493 18.208038 20.07785c4.5107117 4.266388 4.673889 6.189728 8.856262 5.520355c4.1824036 -0.66934204 10.414917 -5.0189514 16.238007 -9.53653c5.8230896 -4.5175476 16.56784 -12.214478 18.700562 -17.568878c2.132721 -5.3544006 -1.3934631 -7.5299377 -5.904175 -14.557495c-4.510742 -7.0275574 -17.387207 -21.417114 -21.160156 -27.607819c-3.7729492 -6.190735 -3.9381104 -7.194519 -1.4775085 -9.53653c2.4605713 -2.3420105 6.9732666 -7.276245 16.240967 -4.515564c9.2677 2.7606812 30.262177 14.554474 39.365204 21.07965c9.103027 6.5251465 12.136719 11.713074 15.252991 18.07129c3.1162415 6.358185 3.8545227 14.054596 3.4446106 20.07785c-0.40994263 6.0232544 -3.9361267 11.544098 -5.9042053 16.061676c-1.9680481 4.517578 -5.576355 7.5299683 -5.904175 11.043732c-0.32785034 3.513794 0.16464233 4.6007996 3.9371033 10.03894z" fill-rule="evenodd"/><path stroke="#000000" stroke-width="2.0" stroke-linejoin="round" stroke-linecap="butt" d="m370.7105 417.6319c3.772461 5.438141 14.433136 18.406708 18.697601 22.589874c4.2644653 4.183136 4.6748657 2.676422 6.8891907 2.5089722c2.214325 -0.16748047 0.082092285 1.5894165 6.396698 -3.513794c6.3146057 -5.10318 22.387451 -19.408478 31.490997 -27.105408c9.103516 -7.69693 18.70105 -13.80542 23.130188 -19.07608c4.4291077 -5.2706604 -0.32785034 -7.507782 3.44458 -12.547913c3.772461 -5.040161 13.203339 -13.322205 19.190094 -17.692963c5.986786 -4.3707886 10.661682 -11.292419 16.73053 -8.531738c6.0688477 2.7606812 18.944855 18.486908 19.682587 25.095795c0.73779297 6.608917 -9.432831 10.353699 -15.25592 14.557526c-5.8230896 4.203827 -14.187866 8.302216 -19.682617 10.665405c-5.494751 2.3632202 -2.870514 -3.7644653 -13.285919 3.513794c-10.415405 7.2782593 -39.9393 31.622467 -49.206512 40.15573c-9.267212 8.533234 -5.5768433 7.0280457 -6.396698 11.043732c-0.81985474 4.0156555 -3.8530579 5.0189514 1.4775391 13.050293c5.3305664 8.031342 22.63321 26.10263 30.50595 35.137787c7.8727417 9.035156 10.005493 13.886108 16.73053 19.07306c6.7250366 5.1869507 16.812592 7.279724 23.61972 12.048523c6.807129 4.768799 13.532166 9.453308 17.223022 16.564087c3.690857 7.110779 5.9061584 17.985535 4.922119 26.100586c-0.9840088 8.115112 -5.6593933 16.649841 -10.826324 22.589905c-5.1669006 5.9400024 -12.548126 10.875244 -20.17511 13.050293c-7.6269836 2.1750488 -18.369751 1.756897 -25.586792 0c-7.2170715 -1.756897 -12.958557 -5.8563232 -17.715546 -10.541321c-4.756958 -4.6850586 -9.021942 -11.126953 -10.826324 -17.568909c-1.8043823 -6.4418945 2.5421753 -13.888123 0 -21.082642c-2.5421448 -7.194519 -6.477783 -11.292419 -15.25296 -22.084473c-8.7752075 -10.791992 -30.181091 -34.970795 -37.398163 -42.667694c-7.217041 -7.69693 -3.1973572 -4.8318176 -5.904175 -3.513794c-2.7068481 1.3180542 -9.516418 7.5945435 -10.336792 11.422058c-0.820343 3.8275452 3.446106 8.447968 5.4146423 11.543121c1.9685669 3.0950928 7.298645 6.253784 6.396698 7.027527c-0.901947 0.7738037 -7.8717346 -2.6567383 -11.80838 -2.3848877c-3.936615 0.27191162 -9.432831 0.8373413 -11.81134 4.0161743c-2.378479 3.178833 0.08258057 9.368042 -2.4595642 15.056885c-2.5421753 5.688843 -1.3939819 8.45105 -12.793396 19.07611c-11.399445 10.625061 -42.97351 35.63916 -55.60324 44.674316c-12.62973 9.035095 -14.926117 8.616455 -20.17511 9.536499c-5.248993 0.92004395 -5.577835 1.505188 -11.318832 -4.0161743c-5.7410126 -5.5213623 -18.534409 -21.499329 -23.127213 -29.112c-4.592804 -7.612671 -5.413666 -11.711548 -4.4296265 -16.564087c0.98402405 -4.852478 -1.803894 -1.842102 10.333817 -12.550903c12.137695 -10.708801 49.370193 -41.913635 62.492416 -51.701874c13.122253 -9.788239 11.4019165 -6.023773 16.240967 -7.0275574c4.839081 -1.0037842 9.677155 2.92865 12.793396 1.0047913c3.116272 -1.9238281 5.0022583 -8.177124 5.9042053 -12.547882c0.901947 -4.3707886 -1.6407166 -12.819305 -0.4925232 -13.676819c1.1482239 -0.8575134 4.5112305 5.436615 7.3817444 8.531738c2.8704834 3.0951233 6.2330017 9.181427 9.841278 10.03894c3.6082764 0.8575134 9.511993 -2.32135 11.80838 -4.89386c2.2964172 -2.5725403 3.0361633 -6.5256653 1.9700623 -10.541351c-1.0661316 -4.0156555 -5.25 -9.118866 -8.36676 -13.552704c-3.1167603 -4.433838 -6.6434326 -10.289612 -10.333801 -13.050293c-3.6903687 -2.7606812 -6.1499634 -3.7644958 -11.80838 -3.513794c-5.6584167 0.2507019 -15.007233 5.185425 -22.142181 5.0179443c-7.1349792 -0.16744995 -14.926636 -2.17453 -20.667633 -6.0227356c-5.741028 -3.8482056 -9.431885 -9.620789 -13.778442 -17.066498c-4.346527 -7.445709 -10.086563 -19.074554 -12.300873 -27.607819c-2.214325 -8.533234 -2.2148132 -17.986542 -0.98501587 -23.591644c1.2297821 -5.605072 4.755493 -10.37384 8.36377 -10.03891c3.6082764 0.33493042 8.036926 6.6941223 13.285919 12.048523c5.248993 5.3544006 13.697296 15.811493 18.208038 20.07785c4.5107117 4.266388 4.673889 6.189728 8.856262 5.520355c4.1824036 -0.66934204 10.414917 -5.0189514 16.238007 -9.53653c5.8230896 -4.5175476 16.56784 -12.214478 18.700562 -17.568878c2.132721 -5.3544006 -1.3934631 -7.5299377 -5.904175 -14.557495c-4.510742 -7.0275574 -17.387207 -21.417114 -21.160156 -27.607819c-3.7729492 -6.190735 -3.9381104 -7.194519 -1.4775085 -9.53653c2.4605713 -2.3420105 6.9732666 -7.276245 16.240967 -4.515564c9.2677 2.7606812 30.262177 14.554474 39.365204 21.07965c9.103027 6.5251465 12.136719 11.713074 15.252991 18.07129c3.1162415 6.358185 3.8545227 14.054596 3.4446106 20.07785c-0.40994263 6.0232544 -3.9361267 11.544098 -5.9042053 16.061676c-1.9680481 4.517578 -5.576355 7.5299683 -5.904175 11.043732c-0.32785034 3.513794 0.16464233 4.6007996 3.9371033 10.03894z" fill-rule="evenodd"/></g></g></svg>
