<?xml version="1.0" encoding="utf-8"?>
<svg version="1.1" viewBox="0 0 300 300" xmlns="http://www.w3.org/2000/svg">
  <defs>
    <pattern id="pattern-0" x="0" y="0" width="25" height="25" patternUnits="userSpaceOnUse" viewBox="0 0 100 100">
      <rect x="0" y="0" width="50" height="100" style="fill: black;"/>
    </pattern>
  </defs>
  <g id="Layer_1">
    <g>
      <circle cx="150" cy="150" r="150" style="fill: rgb(255, 208, 0);"/>
    </g>
  </g>
  <g id="Layer_2"/>
  <polygon style="stroke: rgb(0, 0, 0); fill: rgb(246, 220, 207);" points="47.2 76.62 67.69 76.62 67.13 50.77 121.04 56.5 149.44 83.85 172.65 71.89 213.22 50.51 243.89 51.08 239.81 80.53 268.91 78.21 267.17 225.44 222.5 222.19 166.35 219.2 151.07 229.24 109.37 218.07 74.1 218.07 41.01 230.4"/>
  <g transform="matrix(0.81932, 0, 0, 0.82818, 95.98274, 89.7575)" style="">
    <path d="M 208.35 -30.1 L 187.53 -30.1 L 187.53 -51.65 C 187.53 -56.59 183.92 -60.78 179.04 -61.51 C 178.19 -61.64 157.91 -64.58 133.48 -60.14 C 106.26 -55.19 84.54 -42.97 69.82 -24.5 C 55.09 -42.97 33.37 -55.19 6.15 -60.14 C -18.28 -64.58 -38.56 -61.64 -39.41 -61.51 C -44.29 -60.78 -47.9 -56.59 -47.9 -51.65 L -47.9 -30.1 L -68.72 -30.1 C -74.22 -30.1 -78.68 -25.64 -78.68 -20.14 L -78.68 167.67 C -78.68 170.9 -77.12 173.92 -74.49 175.79 C -71.86 177.66 -68.49 178.14 -65.44 177.08 C -64.69 176.82 9.99 151.33 65.68 176.74 C 68.31 177.93 71.32 177.93 73.95 176.74 C 129.49 151.41 204.33 176.82 205.07 177.08 C 206.14 177.45 207.25 177.64 208.35 177.64 C 210.39 177.64 212.41 177.01 214.12 175.79 C 216.75 173.92 218.32 170.9 218.32 167.67 L 218.32 -20.14 C 218.32 -25.64 213.85 -30.1 208.35 -30.1 Z M -58.75 154.33 L -58.75 -10.17 L -47.9 -10.17 L -47.9 122.56 C -47.9 125.45 -46.63 128.2 -44.44 130.09 C -42.25 131.99 -39.34 132.84 -36.47 132.41 C -35.92 132.33 7.37 126.39 39.01 148.09 C 0.04 141.43 -38.96 149.14 -58.75 154.33 Z M 59.85 139.1 C 45.92 126.52 27.77 118 6.15 114.07 C -4.26 112.18 -13.91 111.62 -21.63 111.62 C -23.92 111.62 -26.05 111.67 -27.97 111.75 L -27.97 -42.5 L -27.97 -42.5 C -8.81 -43.37 37.79 -41.32 59.85 -3.92 L 59.85 139.1 Z M 79.78 -3.91 C 101.77 -41.16 148.44 -43.3 167.6 -42.48 L 167.6 111.75 C 159.21 111.41 146.98 111.61 133.48 114.07 C 111.86 118 93.71 126.52 79.78 139.1 L 79.78 -3.91 Z M 100.59 148.1 C 132.23 126.38 175.55 132.33 176.09 132.41 C 178.96 132.84 181.87 132 184.07 130.11 C 186.27 128.21 187.53 125.46 187.53 122.56 L 187.53 -10.17 L 198.38 -10.17 L 198.38 154.33 C 178.58 149.13 139.57 141.42 100.59 148.1 Z" style="fill: rgb(206, 128, 4);"/>
  </g>
  <path style="fill: rgb(216, 216, 216); stroke: rgb(0, 0, 0);"/>
  <path style="fill: rgb(216, 216, 216); stroke: rgb(0, 0, 0);"/>
</svg>