<?xml version="1.0" encoding="utf-8"?>
<svg version="1.1" viewBox="0 0 300 300" xmlns="http://www.w3.org/2000/svg" xmlns:bx="https://boxy-svg.com">
  <defs>
    <pattern id="pattern-0" x="0" y="0" width="25" height="25" patternUnits="userSpaceOnUse" viewBox="0 0 100 100">
      <rect x="0" y="0" width="50" height="100" style="fill: black;"/>
    </pattern>
  </defs>
  <g id="Layer_1">
    <g>
      <circle cx="150" cy="150" r="150" style="fill: rgba(255, 208, 0, 0.62);"/>
    </g>
  </g>
  <g id="Layer_2"/>
  <g transform="matrix(1.23285, 0, 0, 1.18251, -356.09552, -162.65204)" style="">
    <polygon style="stroke: rgb(0, 0, 0); fill: rgb(246, 220, 207);" points="299.09 199.37 319.58 199.37 319.02 173.52 372.93 179.25 401.33 203.72 424.54 194.64 465.11 173.26 495.78 173.83 491.7 203.28 520.8 200.96 519.06 348.19 474.39 344.94 418.24 341.95 402.96 351.99 361.26 340.82 325.99 340.82 292.9 353.15"/>
    <g transform="matrix(0.81932, 0, 0, 0.82818, 353.30396, 212.91666)" style="">
      <path d="M 208.35 -30.1 L 187.53 -30.1 L 187.53 -51.65 C 187.53 -56.59 183.92 -60.78 179.04 -61.51 C 178.19 -61.64 157.91 -64.58 133.48 -60.14 C 106.26 -55.19 84.54 -42.97 69.82 -24.5 C 55.09 -42.97 33.37 -55.19 6.15 -60.14 C -18.28 -64.58 -38.56 -61.64 -39.41 -61.51 C -44.29 -60.78 -47.9 -56.59 -47.9 -51.65 L -47.9 -30.1 L -68.72 -30.1 C -74.22 -30.1 -78.68 -25.64 -78.68 -20.14 L -78.68 167.67 C -78.68 170.9 -77.12 173.92 -74.49 175.79 C -71.86 177.66 -68.49 178.14 -65.44 177.08 C -64.69 176.82 9.99 151.33 65.68 176.74 C 68.31 177.93 71.32 177.93 73.95 176.74 C 129.49 151.41 204.33 176.82 205.07 177.08 C 206.14 177.45 207.25 177.64 208.35 177.64 C 210.39 177.64 212.41 177.01 214.12 175.79 C 216.75 173.92 218.32 170.9 218.32 167.67 L 218.32 -20.14 C 218.32 -25.64 213.85 -30.1 208.35 -30.1 Z M -58.75 154.33 L -58.75 -10.17 L -47.9 -10.17 L -47.9 122.56 C -47.9 125.45 -46.63 128.2 -44.44 130.09 C -42.25 131.99 -39.34 132.84 -36.47 132.41 C -35.92 132.33 7.37 126.39 39.01 148.09 C 0.04 141.43 -38.96 149.14 -58.75 154.33 Z M 59.85 139.1 C 45.92 126.52 27.77 118 6.15 114.07 C -4.26 112.18 -13.91 111.62 -21.63 111.62 C -23.92 111.62 -26.05 111.67 -27.97 111.75 L -27.97 -42.5 L -27.97 -42.5 C -8.81 -43.37 37.79 -41.32 59.85 -3.92 L 59.85 139.1 Z M 79.78 -3.91 C 101.77 -41.16 148.44 -43.3 167.6 -42.48 L 167.6 111.75 C 159.21 111.41 146.98 111.61 133.48 114.07 C 111.86 118 93.71 126.52 79.78 139.1 L 79.78 -3.91 Z M 100.59 148.1 C 132.23 126.38 175.55 132.33 176.09 132.41 C 178.96 132.84 181.87 132 184.07 130.11 C 186.27 128.21 187.53 125.46 187.53 122.56 L 187.53 -10.17 L 198.38 -10.17 L 198.38 154.33 C 178.58 149.13 139.57 141.42 100.59 148.1 Z" style="fill: rgb(206, 128, 4);"/>
    </g>
  </g>
  <path style="fill: rgb(216, 216, 216); stroke: rgb(0, 0, 0);"/>
  <path style="fill: rgb(216, 216, 216); stroke: rgb(0, 0, 0);"/>
  <g transform="matrix(5.48446, -0.55379, 1.05014, 5.1843, -41.83686, -42.9549)" style="" bx:origin="5 1">
    <path d="M 55 22 L 48 15 C 47 14 45 14 44 15 L 40 18 L 40 19 L 23 35 L 21 45 L 20 49 L 25 48 L 35 47 L 51 30 L 52 30 L 55 26 C 56 25 56 23 55 22 Z" fill="#231F20" opacity="0.2"/>
    <path d="M 51 28 C 50 30 48 30 47 28 L 40 21 C 38 20 38 18 40 17 L 44 13 C 45 12 47 12 48 13 L 55 20 C 56 21 56 23 55 24 L 51 28 Z" fill="#C75C5C"/>
    <rect height="4" transform="matrix(0.70711, -0.70711, 0.70711, 0.70711, -8.8823, 31.1838)" width="24" x="21" y="24" style="fill: rgb(79, 93, 115);"/>
    <rect fill="#F5CF87" height="9" transform="matrix(0.70711, -0.70711, 0.70711, 0.70711, -16.03371, 30.44649)" width="26" x="24" y="33"/>
    <rect height="4" transform="matrix(0.70711, -0.70711, 0.70711, 0.70711, -12.397, 39.669)" width="24" x="30" y="33" style="fill: rgb(79, 93, 115);"/>
    <polygon fill="#4F5D73" points="20 48 25 47 21 43"/>
    <polygon fill="#FFFFFF" points="23 33 21 43 25 47 35 45 33 43 33 40 28 40 28 35 25 35"/>
    <path d="M 11.74 36.92 C 12.33 35.84 13.73 34.67 13.97 33.44 C 14.16 32.41 12.46 37.03 13.39 36.54 C 16.39 34.99 13.4 37.27 14.92 37.33 C 16.12 37.37 19.3 38.47 18.18 38.89" style="stroke: rgb(0, 0, 0); stroke-width: 0.371198px; fill: none;"/>
    <path d="M 10.85 41.58 C 11.43 40.51 12.83 39.34 13.07 38.11 C 13.27 37.08 11.56 41.69 12.5 41.21 C 15.49 39.66 12.51 41.94 14.02 41.99 C 15.23 42.04 18.41 43.13 17.28 43.56" style="stroke: rgb(0, 0, 0); stroke-width: 0.371198px; fill: none;"/>
    <path d="M 12.71 31.9 C 13.29 30.83 14.69 29.66 14.93 28.43 C 15.13 27.4 13.42 32.01 14.36 31.53 C 17.35 29.98 14.37 32.26 15.88 32.31 C 17.09 32.36 20.27 33.45 19.14 33.88" style="stroke: rgb(0, 0, 0); stroke-width: 0.371198px; fill: none;"/>
  </g>
</svg>