<?xml version="1.0" encoding="utf-8"?>
<svg enable-background="new 0 0 64 64" height="64px" id="Layer_1" version="1.1" viewBox="0 0 64 64" width="64px" xmlns="http://www.w3.org/2000/svg">
  <defs>
    <radialGradient id="gradient-12" gradientUnits="userSpaceOnUse" cx="20" cy="46" r="10" gradientTransform="matrix(1, 0, 0, 1, 0, -8)">
      <stop offset="0" style="stop-color: rgba(41, 216, 236, 1)"/>
      <stop offset="1" style="stop-color: rgba(14, 146, 161, 1)"/>
    </radialGradient>
    <radialGradient id="gradient-3" gradientUnits="userSpaceOnUse" cx="44" cy="46" r="10" gradientTransform="matrix(1, 0, 0, 1, 0, -8)">
      <stop offset="0" style="stop-color: rgba(250, 3, 3, 0.7)"/>
      <stop offset="1" style="stop-color: rgba(149, 2, 2, 0.7)"/>
    </radialGradient>
  </defs>
  <circle cx="32" cy="32" r="32" style="fill: rgba(199, 92, 92, 0.55);"/>
  <text style="font-size: 8px; font-weight: bold; white-space: pre;" x="24" y="12">Play</text>
  <text style="fill: rgb(8, 101, 251); font-size: 20px; white-space: pre;" x="9" y="31">1234</text>
  <rect style="fill: url(#gradient-12); stroke-width: 3px;" x="10" y="33" width="20" height="10" rx="3" ry="3"/>
  <rect style="stroke-width: 3px; fill-rule: evenodd; fill: url(#gradient-3);" x="34" y="33" width="20" height="10" rx="3" ry="3"/>
  <text style="fill: rgb(51, 51, 51); font-size: 6px; font-weight: bold; white-space: pre;" x="13" y="40">Even</text>
  <text style="fill: rgb(253, 253, 253); font-size: 6px; font-weight: bold; letter-spacing: 0.3px; white-space: pre;" x="38" y="40">Odd</text>
  <path d="M 24 62 C 24 61 24 58 23 57 C 22 57 21 55 20 54 C 19 54 20 52 21 52 C 22 52 23 52 23 53 L 24 53 C 24 54 25 54 25 54 C 25 53 25 52 24 49 C 24 47 23 45 23 43 C 23 42 22 40 24 40 C 26 40 27 44 27 44 C 28 47 28 49 29 51 C 29 52 29 53 29 54 C 29 55 29 53 29 53 L 31 52 C 32 53 32 54 32 54 L 32 55 C 33 55 33 53 35 54 C 35 54 36 55 36 56 C 36 56 35 56 35 57 C 36 57 36 56 36 56 C 36 55 37 55 37 55 L 38 55 C 40 57 37 60 36 60 L 35 61 C 35 62 35 63 34 63 L 34 64" style="stroke: rgb(0, 0, 0); fill: rgb(216, 216, 216);"/>
</svg>