<?xml version="1.0" encoding="utf-8"?>
<svg enable-background="new 0 0 64 64" height="64px" id="Layer_1" version="1.1" viewBox="0 0 64 64" width="64px" xmlns="http://www.w3.org/2000/svg">
  <defs>
    <linearGradient id="gradient-0" gradientUnits="userSpaceOnUse" x1="32" y1="41" x2="32" y2="54" spreadMethod="pad">
      <stop offset="0" style="stop-color: rgba(224, 209, 209, 1)"/>
      <stop offset="1" style="stop-color: rgba(183, 148, 148, 1)"/>
    </linearGradient>
    <linearGradient id="gradient-1" gradientUnits="userSpaceOnUse" x1="32" y1="20" x2="32" y2="49" spreadMethod="pad">
      <stop offset="0" style="stop-color: rgba(224, 209, 209, 1)"/>
      <stop offset="1" style="stop-color: rgba(183, 148, 148, 1)"/>
    </linearGradient>
    <linearGradient id="gradient-2" gradientUnits="userSpaceOnUse" x1="32" y1="18" x2="32" y2="46" spreadMethod="pad">
      <stop offset="0" style="stop-color: rgba(224, 209, 209, 1)"/>
      <stop offset="1" style="stop-color: rgba(183, 148, 148, 1)"/>
    </linearGradient>
    <linearGradient id="gradient-3" gradientUnits="userSpaceOnUse" x1="32" y1="12" x2="32" y2="17" spreadMethod="pad">
      <stop offset="0" style="stop-color: rgba(224, 209, 209, 1)"/>
      <stop offset="1" style="stop-color: rgba(183, 148, 148, 1)"/>
    </linearGradient>
    <linearGradient id="gradient-4" gradientUnits="userSpaceOnUse" x1="52" y1="33" x2="52" y2="36" spreadMethod="pad">
      <stop offset="0" style="stop-color: rgba(224, 209, 209, 1)"/>
      <stop offset="1" style="stop-color: rgba(183, 148, 148, 1)"/>
    </linearGradient>
    <linearGradient id="gradient-5" gradientUnits="userSpaceOnUse" x1="13" y1="33" x2="13" y2="36" spreadMethod="pad">
      <stop offset="0" style="stop-color: rgba(224, 209, 209, 1)"/>
      <stop offset="1" style="stop-color: rgba(183, 148, 148, 1)"/>
    </linearGradient>
    <linearGradient id="gradient-6" gradientUnits="userSpaceOnUse" x1="22" y1="15" x2="22" y2="19" spreadMethod="pad">
      <stop offset="0" style="stop-color: rgba(224, 209, 209, 1)"/>
      <stop offset="1" style="stop-color: rgba(183, 148, 148, 1)"/>
    </linearGradient>
    <linearGradient id="gradient-7" gradientUnits="userSpaceOnUse" x1="49" y1="22" x2="49" y2="26" spreadMethod="pad">
      <stop offset="0" style="stop-color: rgba(224, 209, 209, 1)"/>
      <stop offset="1" style="stop-color: rgba(183, 148, 148, 1)"/>
    </linearGradient>
    <linearGradient id="gradient-8" gradientUnits="userSpaceOnUse" x1="15" y1="42" x2="15" y2="46" spreadMethod="pad">
      <stop offset="0" style="stop-color: rgba(224, 209, 209, 1)"/>
      <stop offset="1" style="stop-color: rgba(183, 148, 148, 1)"/>
    </linearGradient>
    <linearGradient id="gradient-9" gradientUnits="userSpaceOnUse" x1="15" y1="22" x2="15" y2="26" spreadMethod="pad">
      <stop offset="0" style="stop-color: rgba(224, 209, 209, 1)"/>
      <stop offset="1" style="stop-color: rgba(183, 148, 148, 1)"/>
    </linearGradient>
    <linearGradient id="gradient-10" gradientUnits="userSpaceOnUse" x1="49" y1="42" x2="49" y2="46" spreadMethod="pad">
      <stop offset="0" style="stop-color: rgba(224, 209, 209, 1)"/>
      <stop offset="1" style="stop-color: rgba(183, 148, 148, 1)"/>
    </linearGradient>
    <linearGradient id="gradient-11" gradientUnits="userSpaceOnUse" x1="42" y1="15" x2="42" y2="19" spreadMethod="pad">
      <stop offset="0" style="stop-color: rgba(224, 209, 209, 1)"/>
      <stop offset="1" style="stop-color: rgba(183, 148, 148, 1)"/>
    </linearGradient>
    <linearGradient id="gradient-13" gradientUnits="userSpaceOnUse" x1="32" y1="10" x2="32" y2="15" spreadMethod="pad">
      <stop offset="0" style="stop-color: rgba(224, 209, 209, 1)"/>
      <stop offset="1" style="stop-color: rgba(183, 148, 148, 1)"/>
    </linearGradient>
    <linearGradient id="gradient-14" gradientUnits="userSpaceOnUse" x1="52" y1="31" x2="52" y2="34" spreadMethod="pad">
      <stop offset="0" style="stop-color: rgba(224, 209, 209, 1)"/>
      <stop offset="1" style="stop-color: rgba(183, 148, 148, 1)"/>
    </linearGradient>
    <linearGradient id="gradient-15" gradientUnits="userSpaceOnUse" x1="13" y1="31" x2="13" y2="34" spreadMethod="pad">
      <stop offset="0" style="stop-color: rgba(224, 209, 209, 1)"/>
      <stop offset="1" style="stop-color: rgba(183, 148, 148, 1)"/>
    </linearGradient>
    <linearGradient id="gradient-16" gradientUnits="userSpaceOnUse" x1="22" y1="13" x2="22" y2="17" spreadMethod="pad">
      <stop offset="0" style="stop-color: rgba(224, 209, 209, 1)"/>
      <stop offset="1" style="stop-color: rgba(183, 148, 148, 1)"/>
    </linearGradient>
    <linearGradient id="gradient-17" gradientUnits="userSpaceOnUse" x1="49" y1="20" x2="49" y2="24" spreadMethod="pad">
      <stop offset="0" style="stop-color: rgba(224, 209, 209, 1)"/>
      <stop offset="1" style="stop-color: rgba(183, 148, 148, 1)"/>
    </linearGradient>
    <linearGradient id="gradient-18" gradientUnits="userSpaceOnUse" x1="15" y1="40" x2="15" y2="44" spreadMethod="pad">
      <stop offset="0" style="stop-color: rgba(224, 209, 209, 1)"/>
      <stop offset="1" style="stop-color: rgba(183, 148, 148, 1)"/>
    </linearGradient>
    <linearGradient id="gradient-19" gradientUnits="userSpaceOnUse" x1="15" y1="20" x2="15" y2="24" spreadMethod="pad">
      <stop offset="0" style="stop-color: rgba(224, 209, 209, 1)"/>
      <stop offset="1" style="stop-color: rgba(183, 148, 148, 1)"/>
    </linearGradient>
    <linearGradient id="gradient-20" gradientUnits="userSpaceOnUse" x1="49" y1="40" x2="49" y2="44" spreadMethod="pad">
      <stop offset="0" style="stop-color: rgba(224, 209, 209, 1)"/>
      <stop offset="1" style="stop-color: rgba(183, 148, 148, 1)"/>
    </linearGradient>
    <linearGradient id="gradient-21" gradientUnits="userSpaceOnUse" x1="42" y1="13" x2="42" y2="17" spreadMethod="pad">
      <stop offset="0" style="stop-color: rgba(224, 209, 209, 1)"/>
      <stop offset="1" style="stop-color: rgba(183, 148, 148, 1)"/>
    </linearGradient>
  </defs>
  <circle cx="32" cy="32" fill="#C75C5C" r="32"/>
  <g opacity="0.2">
    <path d="M25,43.338v7.895c0,0.481,0.563,1.308,0.98,1.548l5.262,3.038c0.417,0.241,1.099,0.241,1.516,0l5.262-3.038   c0.417-0.241,0.98-1.067,0.98-1.548v-7.895C36.888,44.392,34.516,45,32,45C29.484,45,27.112,44.392,25,43.338z" style="fill: rgb(62, 54, 228);"/>
  </g>
  <g transform="matrix(0.58254, 0, 0, 0.58254, -2.99146, 10.84637)">
    <path d="M25,41.338v7.895c0,0.481,0.563,1.308,0.98,1.548l5.262,3.038c0.417,0.241,1.099,0.241,1.516,0l5.262-3.038   c0.417-0.241,0.98-1.067,0.98-1.548v-7.895C36.888,42.392,34.516,43,32,43C29.484,43,27.112,42.392,25,41.338z" fill="#E0E0D1"/>
  </g>
  <g opacity="0.2" transform="matrix(0.58254, 0, 0, 0.58254, -2.99146, 10.84637)">
    <circle cx="32" cy="34.567" fill="#231F20" r="14.433"/>
  </g>
  <g transform="matrix(0.58254, 0, 0, 0.58254, -2.99146, 10.84637)">
    <circle cx="32" cy="32" fill="#FFFFFF" r="14.433"/>
  </g>
  <g transform="matrix(0.58254, 0, 0, 0.58254, -2.99146, 10.84637)">
    <path d="M33.5,15.5c0,0.828-0.672,1.5-1.5,1.5l0,0c-0.828,0-1.5-0.672-1.5-1.5v-2   c0-0.828,0.672-1.5,1.5-1.5l0,0c0.828,0,1.5,0.672,1.5,1.5V15.5z" fill="#231F20" opacity="0.2"/>
    <path d="M50.5,35.5c-0.828,0-1.5-0.671-1.5-1.5l0,0c0-0.828,0.672-1.5,1.5-1.5h2   c0.828,0,1.5,0.672,1.5,1.5l0,0c0,0.829-0.672,1.5-1.5,1.5H50.5z" fill="#231F20" opacity="0.2"/>
    <path d="M13.5,32.5c0.828,0,1.5,0.672,1.5,1.5l0,0c0,0.829-0.672,1.5-1.5,1.5h-2   c-0.828,0-1.5-0.671-1.5-1.5l0,0c0-0.828,0.672-1.5,1.5-1.5H13.5z" fill="#231F20" opacity="0.2"/>
    <path d="M24.049,17.228c0.414,0.717,0.168,1.635-0.549,2.049l0,0   c-0.717,0.414-1.635,0.168-2.049-0.549l-1-1.732c-0.414-0.717-0.168-1.635,0.549-2.049l0,0c0.717-0.414,1.635-0.168,2.049,0.549   L24.049,17.228z" fill="#231F20" opacity="0.2"/>
    <path d="M48.771,26.049c-0.717,0.414-1.635,0.168-2.049-0.549l0,0   c-0.414-0.717-0.168-1.635,0.549-2.049l1.732-1c0.718-0.414,1.635-0.168,2.049,0.549l0,0c0.414,0.717,0.168,1.635-0.549,2.049   L48.771,26.049z" fill="#231F20" opacity="0.2"/>
    <path d="M15.228,41.951c0.718-0.414,1.635-0.168,2.049,0.549l0,0   c0.414,0.718,0.168,1.635-0.549,2.049l-1.732,1c-0.717,0.414-1.635,0.168-2.049-0.549l0,0c-0.414-0.717-0.168-1.635,0.549-2.049   L15.228,41.951z" fill="#231F20" opacity="0.2"/>
    <path d="M16.728,23.451c0.718,0.414,0.963,1.332,0.549,2.049l0,0   c-0.414,0.717-1.332,0.963-2.049,0.549l-1.732-1c-0.717-0.414-0.963-1.332-0.549-2.049l0,0c0.414-0.717,1.332-0.963,2.049-0.549   L16.728,23.451z" fill="#231F20" opacity="0.2"/>
    <path d="M47.271,44.549c-0.717-0.414-0.963-1.332-0.549-2.049l0,0   c0.414-0.717,1.332-0.963,2.049-0.549l1.732,1c0.718,0.414,0.963,1.332,0.549,2.049l0,0c-0.414,0.718-1.332,0.963-2.049,0.549   L47.271,44.549z" fill="#231F20" opacity="0.2"/>
    <path d="M42.549,18.728c-0.414,0.717-1.332,0.963-2.049,0.549l0,0   c-0.717-0.414-0.963-1.332-0.549-2.049l1-1.732c0.414-0.717,1.332-0.963,2.049-0.549l0,0c0.717,0.414,0.963,1.332,0.549,2.049   L42.549,18.728z" fill="#231F20" opacity="0.2"/>
  </g>
  <g transform="matrix(0.58254, 0, 0, 0.58254, -2.99146, 10.84637)">
    <circle cx="32" cy="32" r="14.433" style="fill: rgb(118, 172, 99);"/>
  </g>
  <g transform="matrix(0.58254, 0, 0, 0.58254, -2.99146, 10.84637)">
    <path d="M33.5,13.5c0,0.828-0.672,1.5-1.5,1.5l0,0c-0.828,0-1.5-0.672-1.5-1.5v-2c0-0.828,0.672-1.5,1.5-1.5l0,0   c0.828,0,1.5,0.672,1.5,1.5V13.5z" fill="#E0E0D1"/>
    <path d="M50.5,33.5c-0.828,0-1.5-0.672-1.5-1.5l0,0c0-0.828,0.672-1.5,1.5-1.5h2c0.828,0,1.5,0.672,1.5,1.5l0,0   c0,0.828-0.672,1.5-1.5,1.5H50.5z" fill="#E0E0D1"/>
    <path d="M13.5,30.5c0.828,0,1.5,0.672,1.5,1.5l0,0c0,0.828-0.672,1.5-1.5,1.5h-2c-0.828,0-1.5-0.672-1.5-1.5l0,0   c0-0.828,0.672-1.5,1.5-1.5H13.5z" fill="#E0E0D1"/>
    <path d="M24.049,15.229c0.414,0.717,0.168,1.635-0.549,2.049l0,0c-0.717,0.414-1.635,0.168-2.049-0.549l-1-1.732   c-0.414-0.717-0.168-1.635,0.549-2.049l0,0c0.717-0.414,1.635-0.168,2.049,0.549L24.049,15.229z" fill="#E0E0D1"/>
    <path d="M48.771,24.049c-0.717,0.414-1.635,0.168-2.049-0.549l0,0c-0.414-0.717-0.168-1.635,0.549-2.049l1.732-1   c0.718-0.414,1.635-0.168,2.049,0.549l0,0c0.414,0.717,0.168,1.635-0.549,2.049L48.771,24.049z" fill="#E0E0D1"/>
    <path d="M15.228,39.951c0.718-0.414,1.635-0.168,2.049,0.549l0,0c0.414,0.717,0.168,1.635-0.549,2.049l-1.732,1   c-0.717,0.414-1.635,0.168-2.049-0.549l0,0c-0.414-0.717-0.168-1.635,0.549-2.049L15.228,39.951z" fill="#E0E0D1"/>
    <path d="M16.728,21.451c0.718,0.414,0.963,1.332,0.549,2.049l0,0c-0.414,0.717-1.332,0.963-2.049,0.549l-1.732-1   c-0.717-0.414-0.963-1.332-0.549-2.049l0,0c0.414-0.717,1.332-0.963,2.049-0.549L16.728,21.451z" fill="#E0E0D1"/>
    <path d="M47.271,42.549c-0.717-0.414-0.963-1.332-0.549-2.049l0,0c0.414-0.717,1.332-0.963,2.049-0.549l1.732,1   c0.718,0.414,0.963,1.332,0.549,2.049l0,0c-0.414,0.717-1.332,0.963-2.049,0.549L47.271,42.549z" fill="#E0E0D1"/>
    <path d="M42.549,16.729c-0.414,0.717-1.332,0.963-2.049,0.549l0,0c-0.717-0.414-0.963-1.332-0.549-2.049l1-1.732   c0.414-0.717,1.332-0.963,2.049-0.549l0,0c0.717,0.414,0.963,1.332,0.549,2.049L42.549,16.729z" fill="#E0E0D1"/>
  </g>
  <g transform="matrix(0.58254, 0, 0, 0.58254, 29.21446, 10.84637)">
    <path d="M25,41.338v7.895c0,0.481,0.563,1.308,0.98,1.548l5.262,3.038c0.417,0.241,1.099,0.241,1.516,0l5.262-3.038   c0.417-0.241,0.98-1.067,0.98-1.548v-7.895C36.888,42.392,34.516,43,32,43C29.484,43,27.112,42.392,25,41.338z" style="fill: url(#gradient-0);"/>
  </g>
  <g opacity="0.2" transform="matrix(0.58254, 0, 0, 0.58254, 29.21446, 10.84637)">
    <circle cx="32" cy="34.567" r="14.433" style="fill: url(#gradient-1);"/>
  </g>
  <g transform="matrix(0.58254, 0, 0, 0.58254, 29.21446, 10.84637)">
    <circle cx="32" cy="32" r="14.433" style="fill: url(#gradient-2);"/>
  </g>
  <g transform="matrix(0.58254, 0, 0, 0.58254, 29.21446, 10.84637)">
    <path d="M33.5,15.5c0,0.828-0.672,1.5-1.5,1.5l0,0c-0.828,0-1.5-0.672-1.5-1.5v-2   c0-0.828,0.672-1.5,1.5-1.5l0,0c0.828,0,1.5,0.672,1.5,1.5V15.5z" opacity="0.2" style="fill: url(#gradient-3);"/>
    <path d="M50.5,35.5c-0.828,0-1.5-0.671-1.5-1.5l0,0c0-0.828,0.672-1.5,1.5-1.5h2   c0.828,0,1.5,0.672,1.5,1.5l0,0c0,0.829-0.672,1.5-1.5,1.5H50.5z" opacity="0.2" style="fill: url(#gradient-4);"/>
    <path d="M13.5,32.5c0.828,0,1.5,0.672,1.5,1.5l0,0c0,0.829-0.672,1.5-1.5,1.5h-2   c-0.828,0-1.5-0.671-1.5-1.5l0,0c0-0.828,0.672-1.5,1.5-1.5H13.5z" opacity="0.2" style="fill: url(#gradient-5);"/>
    <path d="M24.049,17.228c0.414,0.717,0.168,1.635-0.549,2.049l0,0   c-0.717,0.414-1.635,0.168-2.049-0.549l-1-1.732c-0.414-0.717-0.168-1.635,0.549-2.049l0,0c0.717-0.414,1.635-0.168,2.049,0.549   L24.049,17.228z" opacity="0.2" style="fill: url(#gradient-6);"/>
    <path d="M48.771,26.049c-0.717,0.414-1.635,0.168-2.049-0.549l0,0   c-0.414-0.717-0.168-1.635,0.549-2.049l1.732-1c0.718-0.414,1.635-0.168,2.049,0.549l0,0c0.414,0.717,0.168,1.635-0.549,2.049   L48.771,26.049z" opacity="0.2" style="fill: url(#gradient-7);"/>
    <path d="M15.228,41.951c0.718-0.414,1.635-0.168,2.049,0.549l0,0   c0.414,0.718,0.168,1.635-0.549,2.049l-1.732,1c-0.717,0.414-1.635,0.168-2.049-0.549l0,0c-0.414-0.717-0.168-1.635,0.549-2.049   L15.228,41.951z" opacity="0.2" style="fill: url(#gradient-8);"/>
    <path d="M16.728,23.451c0.718,0.414,0.963,1.332,0.549,2.049l0,0   c-0.414,0.717-1.332,0.963-2.049,0.549l-1.732-1c-0.717-0.414-0.963-1.332-0.549-2.049l0,0c0.414-0.717,1.332-0.963,2.049-0.549   L16.728,23.451z" opacity="0.2" style="fill: url(#gradient-9);"/>
    <path d="M47.271,44.549c-0.717-0.414-0.963-1.332-0.549-2.049l0,0   c0.414-0.717,1.332-0.963,2.049-0.549l1.732,1c0.718,0.414,0.963,1.332,0.549,2.049l0,0c-0.414,0.718-1.332,0.963-2.049,0.549   L47.271,44.549z" opacity="0.2" style="fill: url(#gradient-10);"/>
    <path d="M42.549,18.728c-0.414,0.717-1.332,0.963-2.049,0.549l0,0   c-0.717-0.414-0.963-1.332-0.549-2.049l1-1.732c0.414-0.717,1.332-0.963,2.049-0.549l0,0c0.717,0.414,0.963,1.332,0.549,2.049   L42.549,18.728z" opacity="0.2" style="fill: url(#gradient-11);"/>
  </g>
  <g transform="matrix(0.58254, 0, 0, 0.58254, 29.21446, 10.84637)">
    <circle cx="32" cy="32" r="14.433" style="fill: rgb(134, 0, 0);"/>
  </g>
  <g transform="matrix(0.58254, 0, 0, 0.58254, 29.21446, 10.84637)">
    <path d="M33.5,13.5c0,0.828-0.672,1.5-1.5,1.5l0,0c-0.828,0-1.5-0.672-1.5-1.5v-2c0-0.828,0.672-1.5,1.5-1.5l0,0   c0.828,0,1.5,0.672,1.5,1.5V13.5z" style="fill: url(#gradient-13);"/>
    <path d="M50.5,33.5c-0.828,0-1.5-0.672-1.5-1.5l0,0c0-0.828,0.672-1.5,1.5-1.5h2c0.828,0,1.5,0.672,1.5,1.5l0,0   c0,0.828-0.672,1.5-1.5,1.5H50.5z" style="fill: url(#gradient-14);"/>
    <path d="M13.5,30.5c0.828,0,1.5,0.672,1.5,1.5l0,0c0,0.828-0.672,1.5-1.5,1.5h-2c-0.828,0-1.5-0.672-1.5-1.5l0,0   c0-0.828,0.672-1.5,1.5-1.5H13.5z" style="fill: url(#gradient-15);"/>
    <path d="M24.049,15.229c0.414,0.717,0.168,1.635-0.549,2.049l0,0c-0.717,0.414-1.635,0.168-2.049-0.549l-1-1.732   c-0.414-0.717-0.168-1.635,0.549-2.049l0,0c0.717-0.414,1.635-0.168,2.049,0.549L24.049,15.229z" style="fill: url(#gradient-16);"/>
    <path d="M48.771,24.049c-0.717,0.414-1.635,0.168-2.049-0.549l0,0c-0.414-0.717-0.168-1.635,0.549-2.049l1.732-1   c0.718-0.414,1.635-0.168,2.049,0.549l0,0c0.414,0.717,0.168,1.635-0.549,2.049L48.771,24.049z" style="fill: url(#gradient-17);"/>
    <path d="M15.228,39.951c0.718-0.414,1.635-0.168,2.049,0.549l0,0c0.414,0.717,0.168,1.635-0.549,2.049l-1.732,1   c-0.717,0.414-1.635,0.168-2.049-0.549l0,0c-0.414-0.717-0.168-1.635,0.549-2.049L15.228,39.951z" style="fill: url(#gradient-18);"/>
    <path d="M16.728,21.451c0.718,0.414,0.963,1.332,0.549,2.049l0,0c-0.414,0.717-1.332,0.963-2.049,0.549l-1.732-1   c-0.717-0.414-0.963-1.332-0.549-2.049l0,0c0.414-0.717,1.332-0.963,2.049-0.549L16.728,21.451z" style="fill: url(#gradient-19);"/>
    <path d="M47.271,42.549c-0.717-0.414-0.963-1.332-0.549-2.049l0,0c0.414-0.717,1.332-0.963,2.049-0.549l1.732,1   c0.718,0.414,0.963,1.332,0.549,2.049l0,0c-0.414,0.717-1.332,0.963-2.049,0.549L47.271,42.549z" style="fill: url(#gradient-20);"/>
    <path d="M42.549,16.729c-0.414,0.717-1.332,0.963-2.049,0.549l0,0c-0.717-0.414-0.963-1.332-0.549-2.049l1-1.732   c0.414-0.717,1.332-0.963,2.049-0.549l0,0c0.717,0.414,0.963,1.332,0.549,2.049L42.549,16.729z" style="fill: url(#gradient-21);"/>
  </g>
  <text style="fill: rgb(51, 51, 51); font-size: 16px; white-space: pre;" x="11" y="34">A</text>
  <text style="fill: rgb(250, 244, 244); font-size: 16px; white-space: pre;" x="43" y="35">B</text>
</svg>