<svg style="padding: 15px;" width="230" height="200" viewport="0 0 200 200"><polygon id="first" points="100.00,110.00  115.64,112.47  129.25,93.32  117.36,63.96  78.31,54.95  41.50,86.65  45.27,143.64" style="fill: orange; stroke: red; stroke-width: 3; fill-opacity: 0.5;"></polygon><polygon id="second" points="100.00,170.00  146.91,137.41  148.75,88.87  117.36,63.96  86.98,72.97  80.50,95.55  92.18,106.23" style="fill: lime; stroke: purple; stroke-width: 3; fill-opacity: 0.5;"></polygon><line x1="100" y1="100" x2="100" y2="200" class="radiants" stroke-width="0.1" stroke="black" stroke-dasharray="5, 2"></line><circle cx="100" cy="200" r="2" fill="grey" stroke-width="0.1" stroke="grey"></circle><text fill="grey" x="73" y="195" class="radiant_text" style="font-family: Verdana; font-size: 10px;">pünktlich</text><line x1="100" y1="100" x2="178.183148246803" y2="162.34898018587336" class="radiants" stroke-width="0.1" stroke="black" stroke-dasharray="5, 2"></line><circle cx="178.183148246803" cy="162.34898018587336" r="2" fill="grey" stroke-width="0.1" stroke="grey"></circle><text fill="grey" x="145.183148246803" y="157.34898018587336" class="radiant_text" style="font-family: Verdana; font-size: 10px;">zuverlässig</text><line x1="100" y1="100" x2="197.49279121818236" y2="77.74790660436855" class="radiants" stroke-width="0.1" stroke="black" stroke-dasharray="5, 2"></line><circle cx="197.49279121818236" cy="77.74790660436855" r="2" fill="grey" stroke-width="0.1" stroke="grey"></circle><text fill="grey" x="167.49279121818236" y="72.74790660436855" class="radiant_text" style="font-family: Verdana; font-size: 10px;">kooperativ</text><line x1="100" y1="100" x2="143.38837391175582" y2="9.90311320975809" class="radiants" stroke-width="0.1" stroke="black" stroke-dasharray="5, 2"></line><circle cx="143.38837391175582" cy="9.90311320975809" r="2" fill="grey" stroke-width="0.1" stroke="grey"></circle><text fill="grey" x="113.38837391175582" y="4.903113209758089" class="radiant_text" style="font-family: Verdana; font-size: 10px;">erreichbar</text><line x1="100" y1="100" x2="56.61162608824419" y2="9.90311320975809" class="radiants" stroke-width="0.1" stroke="black" stroke-dasharray="5, 2"></line><circle cx="56.61162608824419" cy="9.90311320975809" r="2" fill="grey" stroke-width="0.1" stroke="grey"></circle><text fill="grey" x="32.61162608824419" y="4.903113209758089" class="radiant_text" style="font-family: Verdana; font-size: 10px;">effektiv</text><line x1="100" y1="100" x2="2.5072087818176385" y2="77.74790660436855" class="radiants" stroke-width="0.1" stroke="black" stroke-dasharray="5, 2"></line><circle cx="2.5072087818176385" cy="77.74790660436855" r="2" fill="grey" stroke-width="0.1" stroke="grey"></circle><text fill="grey" x="-30.49279121818236" y="72.74790660436855" class="radiant_text" style="font-family: Verdana; font-size: 10px;">hilfsbereit</text><line x1="100" y1="100" x2="21.816851753197014" y2="162.34898018587333" class="radiants" stroke-width="0.1" stroke="black" stroke-dasharray="5, 2"></line><circle cx="21.816851753197014" cy="162.34898018587333" r="2" fill="grey" stroke-width="0.1" stroke="grey"></circle><text fill="grey" x="-32.183148246802986" y="157.34898018587333" class="radiant_text" style="font-family: Verdana; font-size: 10px;">durchsetzungsstark</text><circle cx="100" cy="100" r="50" fill="none" stroke-width="0.4" stroke="black" stroke-dasharray="5, 2"></circle><circle cx="100" cy="100" r="100" fill="none" stroke-width="0.4" stroke="black" stroke-dasharray="5, 2"></circle></svg>