<?xml version="1.0" encoding="utf-8"?>
<svg version="1.1" viewBox="0 0 64 64" xmlns="http://www.w3.org/2000/svg">
  <g id="Layer_1">
    <g>
      <circle cx="32" cy="32" fill="#E0995E" r="32"/>
    </g>
  </g>
  <g id="Layer_2"/>
  <rect x="7.39" y="11.95" width="23.36" height="19.84" style="fill: rgb(216, 216, 216);"/>
  <rect x="32.3" y="11.92" width="23.36" height="19.84" style="fill: rgb(216, 216, 216);"/>
  <rect x="7.32" y="32.89" width="23.36" height="19.84" style="fill: rgb(216, 216, 216);"/>
  <rect x="32.29" y="32.89" width="23.36" height="19.84" style="fill: rgb(216, 216, 216);"/>
  <rect x="8.76" y="13.54" width="21.5" height="18.04" style="" transform="matrix(1, 0, -0.01118, 1, -0.1729, -0.72987)"/>
  <rect x="8.76" y="13.54" width="21.5" height="18.04" style="" transform="matrix(1, 0, -0.01118, 1, 24.64752, -0.76626)"/>
  <rect x="8.76" y="13.54" width="21.5" height="18.04" style="" transform="matrix(1, 0, -0.01118, 1, -0.3754, 20.13048)"/>
  <rect x="8.76" y="13.54" width="21.5" height="18.04" style="" transform="matrix(1, 0, -0.01118, 1, 24.82592, 20.22689)"/>
  <rect x="9.87" y="14.03" width="18.67" height="15.51" style="fill: rgb(255, 255, 255);"/>
  <rect x="34.62" y="14.17" width="18.67" height="15.51" style="fill: rgb(255, 255, 255);"/>
  <rect x="9.38" y="34.85" width="18.67" height="15.51" style="fill: rgb(255, 255, 255);"/>
  <rect x="34.71" y="35.06" width="18.67" height="15.51" style="fill: rgb(255, 255, 255);"/>
  <text style="fill: rgb(51, 51, 51); font-family: &quot;Open Sans&quot;; font-size: 23px; white-space: pre;" transform="matrix(1, 0, 0, 0.78511, -6.31852, 11.29867)"><tspan x="19.63" y="21.9">1</tspan><tspan x="19.63" dy="1em">​</tspan></text>
  <text style="fill: rgb(51, 51, 51); font-family: &quot;Open Sans&quot;; font-size: 23px; white-space: pre;" transform="matrix(1, 0, 0, 0.78511, 17.8639, 11.26015)"><tspan x="19.63" y="21.9">2</tspan><tspan x="19.6299991607666" dy="1em">​</tspan></text>
  <text style="fill: rgb(51, 51, 51); font-family: &quot;Open Sans&quot;; font-size: 23px; white-space: pre;" transform="matrix(1, 0, 0, 0.78511, -6.89461, 32.03449)"><tspan x="19.63" y="21.9">3</tspan><tspan x="19.6299991607666" dy="1em">​</tspan></text>
  <text x="4.35" y="61.52" style="white-space: pre; fill: rgb(51, 51, 51); font-family: &quot;Open Sans&quot;; font-size: 28px;"><tspan x="4.349999904632568" dy="1em">​</tspan></text>
  <text transform="matrix(0.27275, 0, 0, 0.44181, 25.9896, 28.83805)" style="fill: rgb(51, 51, 51); font-family: &quot;Open Sans&quot;; font-size: 28px; white-space: pre;"><tspan x="35.76" y="41.7">SUM</tspan><tspan x="35.76" dy="1em">​</tspan></text>
</svg>
