<?xml version="1.0" encoding="utf-8"?>
<svg baseProfile="tiny" id="Layer_1" version="1.2" viewBox="0 0 512 512" xmlns="http://www.w3.org/2000/svg" xmlns:bx="https://boxy-svg.com">
  <g id="XMLID_785_">
    <rect height="19" id="XMLID_17_" width="227" x="158" y="123" style="fill: rgb(79, 190, 82);"/>
    <rect height="19" id="XMLID_16_" width="227" x="158" y="154" style="fill: rgb(79, 190, 82);"/>
    <rect height="19" id="XMLID_15_" width="227" x="158" y="185" style="fill: rgb(79, 190, 82);"/>
    <rect height="19" id="XMLID_14_" width="227" x="158" y="216" style="fill: rgb(79, 190, 82);"/>
    <rect height="19" id="XMLID_13_" width="177" x="158" y="247" style="fill: rgb(79, 190, 82);"/>
    <path d="M 425 429 C 425 444 412 457 396 457 L 148 457 C 132 457 119 444 119 429 L 119 420 L 106 420 L 106 433 C 106 454 122 470 143 470 L 401 470 C 421 470 438 454 438 433 L 438 45 L 425 57 L 425 429 Z" id="XMLID_9_" style="fill: rgb(79, 190, 82);"/>
    <path d="M 119 75 C 119 59 132 46 148 46 L 411 46 C 410 41 421 38 425 34 L 143 33 C 122 33 106 49 106 70 L 106 297 L 119 297 L 119 75 Z" id="XMLID_8_" style="fill: rgb(79, 190, 82);"/>
    <path d="M 383 359 C 383 330 360 306 331 306 L 93 306 L 93 411 L 331 411 C 360 411 383 387 383 359" id="XMLID_788_" style="fill: rgb(79, 190, 82);" bx:origin="0 0"/>
    <text style="fill: rgb(255, 255, 255); font-family: Roboto; font-size: 108px; font-weight: bold; white-space: pre;" x="155" y="400">md</text>
  </g>
  <g transform="matrix(7.72018, -0.77954, 1.56764, 7.73909, 0.52412, -31.71444)" bx:origin="5 1">
    <path d="M 55 22 L 48 15 C 47 14 45 14 44 15 L 40 18 L 40 19 L 23 35 L 21 45 L 20 49 L 25 48 L 35 47 L 51 30 L 52 30 L 55 26 C 56 25 56 23 55 22 Z" fill="#231F20" opacity="0.2"/>
    <path d="M 51 28 C 50 30 48 30 47 28 L 40 21 C 38 20 38 18 40 17 L 44 13 C 45 12 47 12 48 13 L 55 20 C 56 21 56 23 55 24 L 51 28 Z" fill="#C75C5C"/>
    <rect fill="#E0995E" height="4" transform="matrix(0.70711, -0.70711, 0.70711, 0.70711, -8.8823, 31.1838)" width="24" x="21" y="24"/>
    <rect fill="#F5CF87" height="9" transform="matrix(0.70711, -0.70711, 0.70711, 0.70711, -16.03371, 30.44649)" width="26" x="24" y="33"/>
    <rect fill="#E0995E" height="4" transform="matrix(0.70711, -0.70711, 0.70711, 0.70711, -12.397, 39.669)" width="24" x="30" y="33"/>
    <polygon fill="#4F5D73" points="20 48 25 47 21 43"/>
    <polygon fill="#FFFFFF" points="23 33 21 43 25 47 35 45 33 43 33 40 28 40 28 35 25 35"/>
  </g>
</svg>