<?xml version="1.0" encoding="utf-8"?>
<svg baseProfile="tiny" id="Layer_1" version="1.2" viewBox="0 0 512 512" xmlns="http://www.w3.org/2000/svg" xmlns:bx="https://boxy-svg.com">
  <g id="XMLID_785_">
    <rect height="19" id="XMLID_17_" width="227" x="158" y="123" style="fill: rgb(79, 190, 82);"/>
    <rect height="19" id="XMLID_16_" width="227" x="158" y="154" style="fill: rgb(79, 190, 82);"/>
    <rect height="19" id="XMLID_15_" width="227" x="158" y="185" style="fill: rgb(79, 190, 82);"/>
    <rect height="19" id="XMLID_14_" width="227" x="158" y="216" style="fill: rgb(79, 190, 82);"/>
    <rect height="19" id="XMLID_13_" width="177" x="158" y="247" style="fill: rgb(79, 190, 82);"/>
    <path d="M 425 429 C 425 444 412 457 396 457 L 148 457 C 132 457 119 444 119 429 L 119 420 L 106 420 L 106 433 C 106 454 122 470 143 470 L 401 470 C 421 470 438 454 438 433 L 438 45 L 425 57 L 425 429 Z" id="XMLID_9_" style="fill: rgb(79, 190, 82);"/>
    <path d="M 119 75 C 119 59 132 46 148 46 L 411 46 C 410 41 421 38 425 34 L 143 33 C 122 33 106 49 106 70 L 106 297 L 119 297 L 119 75 Z" id="XMLID_8_" style="fill: rgb(79, 190, 82);"/>
    <path d="M 383 359 C 383 330 360 306 331 306 L 93 306 L 93 411 L 331 411 C 360 411 383 387 383 359" id="XMLID_788_" style="fill: rgb(79, 190, 82);" bx:origin="0 0"/>
    <text style="fill: rgb(255, 255, 255); font-family: Roboto; font-size: 108px; font-weight: bold; white-space: pre;" x="155" y="400">md</text>
  </g>
</svg>