<?xml version="1.0" encoding="utf-8"?>
<svg version="1.1" viewBox="0 0 64 64" xmlns="http://www.w3.org/2000/svg" xmlns:bx="https://boxy-svg.com">
  <g id="Layer_1">
    <g>
      <circle cx="32" cy="32" fill="#E0995E" r="32"/>
    </g>
  </g>
  <g id="Layer_2"/>
  <path transform="matrix(-0.03799, 0.06211, -0.06211, -0.03799, 49.49563, 8.30066)" d="M 294 87 L 348 87 L 359 169 A 143 143 0 0 1 391 182 L 458 132 L 496 170 L 446 237 A 143 143 0 0 1 459 269 L 541 280 L 541 334 L 459 345 A 143 143 0 0 1 446 377 L 496 444 L 458 482 L 391 432 A 143 143 0 0 1 359 445 L 348 527 L 294 527 L 283 445 A 143 143 0 0 1 251 432 L 184 482 L 146 444 L 196 377 A 143 143 0 0 1 183 345 L 101 334 L 101 280 L 183 269 A 143 143 0 0 1 196 237 L 146 170 L 184 132 L 251 182 A 143 143 0 0 1 283 169 Z M 321 241 A 66 66 0 0 0 321 373 A 66 66 0 0 0 321 241" style="fill: rgb(255, 251, 110);" bx:shape="cog 321 307 66 143 220 0 8 1@e810707d"/>
  <path transform="matrix(-0.05391, 0.04676, -0.04676, -0.05391, 76.77984, 50.09508)" d="M 290 275 L 348 275 L 361 365 A 156 156 0 0 1 396 379 L 468 325 L 509 366 L 455 438 A 156 156 0 0 1 469 473 L 559 486 L 559 544 L 469 557 A 156 156 0 0 1 455 592 L 509 664 L 468 705 L 396 651 A 156 156 0 0 1 361 665 L 348 755 L 290 755 L 277 665 A 156 156 0 0 1 242 651 L 170 705 L 129 664 L 183 592 A 156 156 0 0 1 169 557 L 79 544 L 79 486 L 169 473 A 156 156 0 0 1 183 438 L 129 366 L 170 325 L 242 379 A 156 156 0 0 1 277 365 Z M 319 443 A 72 72 0 0 0 319 587 A 72 72 0 0 0 319 443" style="fill: rgb(32, 255, 255);" bx:shape="cog 319 515 72 156 240 0 8 1@61aac476"/>
  <text style="fill: rgb(51, 51, 51); font-size: 21px; font-weight: bold; white-space: pre;" x="4" y="64">HTML</text>
  <polyline style="stroke: rgb(0, 0, 0); fill: none;" points="7 13 3 10 6 6 10 9" transform=""/>
  <polyline style="stroke: rgb(0, 0, 0); fill: none;" points="13 6 12 1 16 0 18 4" transform=""/>
</svg>