<?xml version="1.0" encoding="utf-8"?>
<svg version="1.1" viewBox="0.0 0.0 710 420" fill="none" stroke="none" stroke-linecap="square" stroke-miterlimit="10" xmlns="http://www.w3.org/2000/svg">
  <clipPath id="g1a0c986bfa_0_1065.0">
    <path d="m0 0l960.0 0l0 540.0l-960.0 0l0 -540.0z" clip-rule="nonzero"/>
  </clipPath>
  <g clip-path="url(#g1a0c986bfa_0_1065.0)" transform="matrix(1, 0, 0, 1, -127.92176, -75.11002)">
    <path fill="#000000" fill-opacity="0.0" d="m904.1667 8.094488l45.0 0l0 62.0l-45.0 0z" fill-rule="evenodd"/>
    <path fill="#000000" fill-opacity="0.0" d="m196.65355 4.3149605l0 67.52756" fill-rule="evenodd"/>
    <path stroke="#595959" stroke-width="1.0" stroke-linejoin="round" stroke-linecap="butt" d="m196.65355 4.3149605l0 67.52756" fill-rule="evenodd"/>
    <path fill="#000000" fill-opacity="0.0" d="m0 78.25606l960.0 0l0 3.464569l-960.0 0z" fill-rule="evenodd"/>
    <path fill="#000000" fill-opacity="0.0" d="m14.672068 489.2706l184.0 0l0 36.409454l-184.0 0z" fill-rule="evenodd"/>
    <path fill="#000000" fill-opacity="0.0" d="m866.3828 493.09647l53.95276 0l0 28.75589l-53.95276 0z" fill-rule="evenodd"/>
    <path fill="#000000" fill-opacity="0.0" d="m226.7889 231.97115l0 0c0 -77.53729 65.34526 -140.3937 145.95274 -140.3937l0 0c38.709076 0 75.83273 14.791435 103.20419 41.12037c27.37146 26.328918 42.748566 62.038605 42.748566 99.27333l0 0c0 77.53731 -65.345276 140.39369 -145.95276 140.39369l0 0c-80.60748 0 -145.95274 -62.856384 -145.95274 -140.39369z" fill-rule="evenodd"/>
    <path stroke="#bf7200" stroke-width="8.0" stroke-linejoin="round" stroke-linecap="butt" d="m226.7889 231.97115l0 0c0 -77.53729 65.34526 -140.3937 145.95274 -140.3937l0 0c38.709076 0 75.83273 14.791435 103.20419 41.12037c27.37146 26.328918 42.748566 62.038605 42.748566 99.27333l0 0c0 77.53731 -65.345276 140.39369 -145.95276 140.39369l0 0c-80.60748 0 -145.95274 -62.856384 -145.95274 -140.39369z" fill-rule="evenodd"/>
    <path fill="#000000" fill-opacity="0.0" d="m299.76236 104.85155l170.29922 0l0 33.196854l-170.29922 0z" fill-rule="evenodd"/>
    <path fill="#bf7200" d="m323.40298 126.771545l-3.203125 0l-1.8125 -7.0q-0.09375 -0.375 -0.34375 -1.53125q-0.234375 -1.171875 -0.265625 -1.578125q-0.0625 0.484375 -0.28125 1.578125q-0.21875 1.09375 -0.328125 1.546875l-1.796875 6.984375l-3.21875 0l-3.390625 -13.3125l2.78125 0l1.703125 7.265625q0.4375 2.015625 0.640625 3.484375q0.0625 -0.515625 0.25 -1.59375q0.203125 -1.09375 0.375 -1.703125l1.9375 -7.453125l2.671875 0l1.9375 7.453125q0.125 0.5 0.3125 1.53125q0.203125 1.03125 0.296875 1.765625q0.09375 -0.703125 0.296875 -1.765625q0.203125 -1.0625 0.359375 -1.71875l1.703125 -7.265625l2.765625 0l-3.390625 13.3125zm4.739929 -12.8125q0 -1.359375 1.5 -1.359375q1.515625 0 1.515625 1.359375q0 0.640625 -0.375 1.0q-0.375 0.359375 -1.140625 0.359375q-1.5 0 -1.5 -1.359375zm2.890625 12.8125l-2.78125 0l0 -10.1875l2.78125 0l0 10.1875zm10.021545 -3.03125q0 1.578125 -1.09375 2.40625q-1.078125 0.8125 -3.25 0.8125q-1.109375 0 -1.890625 -0.15625q-0.78125 -0.15625 -1.46875 -0.4375l0 -2.296875q0.765625 0.359375 1.734375 0.609375q0.984375 0.25 1.71875 0.25q1.515625 0 1.515625 -0.875q0 -0.328125 -0.203125 -0.53125q-0.203125 -0.21875 -0.703125 -0.46875q-0.484375 -0.265625 -1.3125 -0.609375q-1.171875 -0.484375 -1.71875 -0.90625q-0.546875 -0.421875 -0.796875 -0.953125q-0.25 -0.546875 -0.25 -1.34375q0 -1.359375 1.046875 -2.09375q1.046875 -0.75 2.984375 -0.75q1.84375 0 3.578125 0.796875l-0.84375 2.015625q-0.765625 -0.328125 -1.4375 -0.53125q-0.65625 -0.21875 -1.34375 -0.21875q-1.234375 0 -1.234375 0.65625q0 0.375 0.390625 0.65625q0.40625 0.265625 1.75 0.8125q1.1875 0.46875 1.734375 0.890625q0.5625 0.421875 0.828125 0.96875q0.265625 0.546875 0.265625 1.296875zm9.273468 0q0 1.578125 -1.09375 2.40625q-1.078125 0.8125 -3.25 0.8125q-1.109375 0 -1.890625 -0.15625q-0.78125 -0.15625 -1.46875 -0.4375l0 -2.296875q0.765625 0.359375 1.734375 0.609375q0.984375 0.25 1.71875 0.25q1.515625 0 1.515625 -0.875q0 -0.328125 -0.203125 -0.53125q-0.203125 -0.21875 -0.703125 -0.46875q-0.484375 -0.265625 -1.3125 -0.609375q-1.171875 -0.484375 -1.71875 -0.90625q-0.546875 -0.421875 -0.796875 -0.953125q-0.25 -0.546875 -0.25 -1.34375q0 -1.359375 1.046875 -2.09375q1.046875 -0.75 2.984375 -0.75q1.84375 0 3.578125 0.796875l-0.84375 2.015625q-0.765625 -0.328125 -1.4375 -0.53125q-0.65625 -0.21875 -1.34375 -0.21875q-1.234375 0 -1.234375 0.65625q0 0.375 0.390625 0.65625q0.40625 0.265625 1.75 0.8125q1.1875 0.46875 1.734375 0.890625q0.5625 0.421875 0.828125 0.96875q0.265625 0.546875 0.265625 1.296875zm6.382843 -5.375q-0.875 0 -1.375 0.5625q-0.5 0.5625 -0.578125 1.59375l3.890625 0q-0.015625 -1.03125 -0.53125 -1.59375q-0.515625 -0.5625 -1.40625 -0.5625zm0.390625 8.59375q-2.453125 0 -3.84375 -1.359375q-1.375 -1.359375 -1.375 -3.84375q0 -2.5625 1.265625 -3.953125q1.28125 -1.40625 3.546875 -1.40625q2.15625 0 3.359375 1.234375q1.203125 1.21875 1.203125 3.390625l0 1.34375l-6.5625 0q0.046875 1.1875 0.703125 1.859375q0.65625 0.65625 1.828125 0.65625q0.921875 0 1.734375 -0.1875q0.828125 -0.1875 1.71875 -0.609375l0 2.15625q-0.71875 0.359375 -1.546875 0.53125q-0.828125 0.1875 -2.03125 0.1875zm15.819366 -0.1875l-2.78125 0l0 -5.953125q0 -1.09375 -0.390625 -1.640625q-0.390625 -0.5625 -1.25 -0.5625q-1.15625 0 -1.6875 0.78125q-0.515625 0.78125 -0.515625 2.578125l0 4.796875l-2.78125 0l0 -10.1875l2.125 0l0.375 1.3125l0.15625 0q0.46875 -0.75 1.28125 -1.125q0.8125 -0.375 1.84375 -0.375q1.78125 0 2.703125 0.96875q0.921875 0.953125 0.921875 2.765625l0 6.640625zm9.964508 -3.03125q0 1.578125 -1.09375 2.40625q-1.078125 0.8125 -3.25 0.8125q-1.109375 0 -1.890625 -0.15625q-0.78125 -0.15625 -1.46875 -0.4375l0 -2.296875q0.765625 0.359375 1.734375 0.609375q0.984375 0.25 1.71875 0.25q1.515625 0 1.515625 -0.875q0 -0.328125 -0.203125 -0.53125q-0.203125 -0.21875 -0.703125 -0.46875q-0.484375 -0.265625 -1.3125 -0.609375q-1.171875 -0.484375 -1.71875 -0.90625q-0.546875 -0.421875 -0.796875 -0.953125q-0.25 -0.546875 -0.25 -1.34375q0 -1.359375 1.046875 -2.09375q1.046875 -0.75 2.984375 -0.75q1.84375 0 3.578125 0.796875l-0.84375 2.015625q-0.765625 -0.328125 -1.4375 -0.53125q-0.65625 -0.21875 -1.34375 -0.21875q-1.234375 0 -1.234375 0.65625q0 0.375 0.390625 0.65625q0.40625 0.265625 1.75 0.8125q1.1875 0.46875 1.734375 0.890625q0.5625 0.421875 0.828125 0.96875q0.265625 0.546875 0.265625 1.296875zm6.304718 3.21875q-4.75 0 -4.75 -5.21875q0 -2.609375 1.28125 -3.96875q1.296875 -1.375 3.71875 -1.375q1.765625 0 3.171875 0.6875l-0.828125 2.15625q-0.65625 -0.265625 -1.21875 -0.4375q-0.5625 -0.171875 -1.125 -0.171875q-2.171875 0 -2.171875 3.078125q0 3.0 2.171875 3.0q0.796875 0 1.46875 -0.21875q0.6875 -0.21875 1.375 -0.671875l0 2.375q-0.671875 0.4375 -1.359375 0.59375q-0.6875 0.171875 -1.734375 0.171875zm14.857941 -0.1875l-2.78125 0l0 -5.953125q0 -2.203125 -1.640625 -2.203125q-1.15625 0 -1.6875 0.796875q-0.515625 0.796875 -0.515625 2.5625l0 4.796875l-2.78125 0l0 -14.171875l2.78125 0l0 2.890625q0 0.328125 -0.0625 1.578125l-0.0625 0.828125l0.140625 0q0.9375 -1.5 2.953125 -1.5q1.796875 0 2.71875 0.96875q0.9375 0.96875 0.9375 2.765625l0 6.640625zm9.323883 0l-0.53125 -1.390625l-0.078125 0q-0.703125 0.890625 -1.453125 1.234375q-0.734375 0.34375 -1.921875 0.34375q-1.46875 0 -2.3125 -0.84375q-0.84375 -0.84375 -0.84375 -2.390625q0 -1.625 1.125 -2.390625q1.140625 -0.765625 3.4375 -0.84375l1.765625 -0.0625l0 -0.4375q0 -1.546875 -1.59375 -1.546875q-1.21875 0 -2.859375 0.734375l-0.921875 -1.875q1.75 -0.921875 3.890625 -0.921875q2.046875 0 3.140625 0.890625q1.09375 0.890625 1.09375 2.71875l0 6.78125l-1.9375 0zm-0.8125 -4.71875l-1.078125 0.03125q-1.21875 0.046875 -1.8125 0.453125q-0.578125 0.390625 -0.578125 1.203125q0 1.1875 1.34375 1.1875q0.96875 0 1.546875 -0.546875q0.578125 -0.5625 0.578125 -1.484375l0 -0.84375zm11.252808 -3.375l-2.40625 0l0 8.09375l-2.78125 0l0 -8.09375l-1.53125 0l0 -1.34375l1.53125 -0.75l0 -0.75q0 -1.734375 0.84375 -2.53125q0.859375 -0.8125 2.75 -0.8125q1.4375 0 2.5625 0.4375l-0.71875 2.03125q-0.828125 -0.25 -1.546875 -0.25q-0.59375 0 -0.859375 0.34375q-0.25 0.34375 -0.25 0.890625l0 0.640625l2.40625 0l0 2.09375zm5.8800964 6.0625q0.734375 0 1.75 -0.3125l0 2.0625q-1.046875 0.46875 -2.546875 0.46875q-1.671875 0 -2.4375 -0.84375q-0.75 -0.84375 -0.75 -2.53125l0 -4.90625l-1.34375 0l0 -1.1875l1.53125 -0.921875l0.8125 -2.15625l1.765625 0l0 2.171875l2.859375 0l0 2.09375l-2.859375 0l0 4.90625q0 0.59375 0.328125 0.875q0.34375 0.28125 0.890625 0.28125z" fill-rule="nonzero"/>
    <path fill="#000000" fill-opacity="0.0" d="m433.54706 231.97115l0 0c0 -77.53729 65.345276 -140.3937 145.95276 -140.3937l0 0c38.709045 0 75.8327 14.791435 103.20416 41.12037c27.37146 26.328918 42.748596 62.038605 42.748596 99.27333l0 0c0 77.53731 -65.345276 140.39369 -145.95276 140.39369l0 0c-80.60748 0 -145.95276 -62.856384 -145.95276 -140.39369z" fill-rule="evenodd"/>
    <path stroke="#0000ff" stroke-width="8.0" stroke-linejoin="round" stroke-linecap="butt" d="m433.54706 231.97115l0 0c0 -77.53729 65.345276 -140.3937 145.95276 -140.3937l0 0c38.709045 0 75.8327 14.791435 103.20416 41.12037c27.37146 26.328918 42.748596 62.038605 42.748596 99.27333l0 0c0 77.53731 -65.345276 140.39369 -145.95276 140.39369l0 0c-80.60748 0 -145.95276 -62.856384 -145.95276 -140.39369z" fill-rule="evenodd"/>
    <path fill="#000000" fill-opacity="0.0" d="m506.52054 104.85155l170.29922 0l0 33.196854l-170.29922 0z" fill-rule="evenodd"/>
    <path fill="#0000ff" d="m524.86426 126.771545l-7.671875 0l0 -13.3125l7.671875 0l0 2.3125l-4.84375 0l0 2.921875l4.515625 0l0 2.3125l-4.515625 0l0 3.4375l4.84375 0l0 2.328125zm11.964233 0l-2.78125 0l0 -5.953125q0 -1.09375 -0.390625 -1.640625q-0.390625 -0.5625 -1.25 -0.5625q-1.15625 0 -1.6875 0.78125q-0.515625 0.78125 -0.515625 2.578125l0 4.796875l-2.78125 0l0 -10.1875l2.125 0l0.375 1.3125l0.15625 0q0.46875 -0.75 1.28125 -1.125q0.8125 -0.375 1.84375 -0.375q1.78125 0 2.703125 0.96875q0.921875 0.953125 0.921875 2.765625l0 6.640625zm11.730164 -10.1875l0 1.421875l-1.59375 0.40625q0.4375 0.6875 0.4375 1.53125q0 1.640625 -1.15625 2.5625q-1.140625 0.90625 -3.171875 0.90625l-0.5 -0.03125l-0.40625 -0.046875q-0.4375 0.328125 -0.4375 0.734375q0 0.59375 1.53125 0.59375l1.734375 0q1.671875 0 2.546875 0.71875q0.890625 0.71875 0.890625 2.125q0 1.78125 -1.5 2.765625q-1.484375 0.984375 -4.265625 0.984375q-2.125 0 -3.265625 -0.75q-1.125 -0.734375 -1.125 -2.078125q0 -0.921875 0.578125 -1.546875q0.578125 -0.609375 1.6875 -0.875q-0.421875 -0.1875 -0.75 -0.59375q-0.3125 -0.421875 -0.3125 -0.875q0 -0.59375 0.328125 -0.96875q0.34375 -0.390625 0.984375 -0.765625q-0.796875 -0.34375 -1.28125 -1.109375q-0.46875 -0.765625 -0.46875 -1.8125q0 -1.65625 1.078125 -2.5625q1.09375 -0.921875 3.109375 -0.921875q0.421875 0 1.015625 0.078125q0.59375 0.078125 0.75 0.109375l3.5625 0zm-7.875 11.625q0 0.578125 0.546875 0.90625q0.5625 0.328125 1.5625 0.328125q1.484375 0 2.328125 -0.421875q0.859375 -0.40625 0.859375 -1.109375q0 -0.578125 -0.515625 -0.796875q-0.5 -0.21875 -1.546875 -0.21875l-1.4375 0q-0.765625 0 -1.28125 0.359375q-0.515625 0.359375 -0.515625 0.953125zm1.015625 -8.28125q0 0.828125 0.375 1.3125q0.390625 0.46875 1.15625 0.46875q0.78125 0 1.140625 -0.46875q0.375 -0.484375 0.375 -1.3125q0 -1.84375 -1.515625 -1.84375q-1.53125 0 -1.53125 1.84375zm8.414673 -5.96875q0 -1.359375 1.5 -1.359375q1.515625 0 1.515625 1.359375q0 0.640625 -0.375 1.0q-0.375 0.359375 -1.140625 0.359375q-1.5 0 -1.5 -1.359375zm2.890625 12.8125l-2.78125 0l0 -10.1875l2.78125 0l0 10.1875zm12.31842 0l-2.78125 0l0 -5.953125q0 -1.09375 -0.390625 -1.640625q-0.390625 -0.5625 -1.25 -0.5625q-1.15625 0 -1.6875 0.78125q-0.515625 0.78125 -0.515625 2.578125l0 4.796875l-2.78125 0l0 -10.1875l2.125 0l0.375 1.3125l0.15625 0q0.46875 -0.75 1.28125 -1.125q0.8125 -0.375 1.84375 -0.375q1.78125 0 2.703125 0.96875q0.921875 0.953125 0.921875 2.765625l0 6.640625zm7.0739136 -8.40625q-0.875 0 -1.375 0.5625q-0.5 0.5625 -0.578125 1.59375l3.890625 0q-0.015625 -1.03125 -0.53125 -1.59375q-0.515625 -0.5625 -1.40625 -0.5625zm0.390625 8.59375q-2.453125 0 -3.84375 -1.359375q-1.375 -1.359375 -1.375 -3.84375q0 -2.5625 1.265625 -3.953125q1.28125 -1.40625 3.546875 -1.40625q2.15625 0 3.359375 1.234375q1.203125 1.21875 1.203125 3.390625l0 1.34375l-6.5625 0q0.046875 1.1875 0.703125 1.859375q0.65625 0.65625 1.828125 0.65625q0.921875 0 1.734375 -0.1875q0.828125 -0.1875 1.71875 -0.609375l0 2.15625q-0.71875 0.359375 -1.546875 0.53125q-0.828125 0.1875 -2.03125 0.1875zm10.631836 -8.59375q-0.875 0 -1.375 0.5625q-0.5 0.5625 -0.578125 1.59375l3.890625 0q-0.015625 -1.03125 -0.53125 -1.59375q-0.515625 -0.5625 -1.40625 -0.5625zm0.390625 8.59375q-2.453125 0 -3.84375 -1.359375q-1.375 -1.359375 -1.375 -3.84375q0 -2.5625 1.265625 -3.953125q1.28125 -1.40625 3.546875 -1.40625q2.15625 0 3.359375 1.234375q1.203125 1.21875 1.203125 3.390625l0 1.34375l-6.5625 0q0.046875 1.1875 0.703125 1.859375q0.65625 0.65625 1.828125 0.65625q0.921875 0 1.734375 -0.1875q0.828125 -0.1875 1.71875 -0.609375l0 2.15625q-0.71875 0.359375 -1.546875 0.53125q-0.828125 0.1875 -2.03125 0.1875zm12.100647 -10.5625q0.5625 0 0.9375 0.078125l-0.203125 2.609375q-0.34375 -0.09375 -0.828125 -0.09375q-1.328125 0 -2.078125 0.6875q-0.734375 0.6875 -0.734375 1.90625l0 5.1875l-2.78125 0l0 -10.1875l2.109375 0l0.40625 1.71875l0.140625 0q0.46875 -0.859375 1.265625 -1.375q0.8125 -0.53125 1.765625 -0.53125zm2.6749268 -2.4375q0 -1.359375 1.5 -1.359375q1.515625 0 1.515625 1.359375q0 0.640625 -0.375 1.0q-0.375 0.359375 -1.140625 0.359375q-1.5 0 -1.5 -1.359375zm2.890625 12.8125l-2.78125 0l0 -10.1875l2.78125 0l0 10.1875zm12.31842 0l-2.78125 0l0 -5.953125q0 -1.09375 -0.390625 -1.640625q-0.390625 -0.5625 -1.25 -0.5625q-1.15625 0 -1.6875 0.78125q-0.515625 0.78125 -0.515625 2.578125l0 4.796875l-2.78125 0l0 -10.1875l2.125 0l0.375 1.3125l0.15625 0q0.46875 -0.75 1.28125 -1.125q0.8125 -0.375 1.84375 -0.375q1.78125 0 2.703125 0.96875q0.921875 0.953125 0.921875 2.765625l0 6.640625zm11.730164 -10.1875l0 1.421875l-1.59375 0.40625q0.4375 0.6875 0.4375 1.53125q0 1.640625 -1.15625 2.5625q-1.140625 0.90625 -3.171875 0.90625l-0.5 -0.03125l-0.40625 -0.046875q-0.4375 0.328125 -0.4375 0.734375q0 0.59375 1.53125 0.59375l1.734375 0q1.671875 0 2.546875 0.71875q0.890625 0.71875 0.890625 2.125q0 1.78125 -1.5 2.765625q-1.484375 0.984375 -4.265625 0.984375q-2.125 0 -3.265625 -0.75q-1.125 -0.734375 -1.125 -2.078125q0 -0.921875 0.578125 -1.546875q0.578125 -0.609375 1.6875 -0.875q-0.421875 -0.1875 -0.75 -0.59375q-0.3125 -0.421875 -0.3125 -0.875q0 -0.59375 0.328125 -0.96875q0.34375 -0.390625 0.984375 -0.765625q-0.796875 -0.34375 -1.28125 -1.109375q-0.46875 -0.765625 -0.46875 -1.8125q0 -1.65625 1.078125 -2.5625q1.09375 -0.921875 3.109375 -0.921875q0.421875 0 1.015625 0.078125q0.59375 0.078125 0.75 0.109375l3.5625 0zm-7.875 11.625q0 0.578125 0.546875 0.90625q0.5625 0.328125 1.5625 0.328125q1.484375 0 2.328125 -0.421875q0.859375 -0.40625 0.859375 -1.109375q0 -0.578125 -0.515625 -0.796875q-0.5 -0.21875 -1.546875 -0.21875l-1.4375 0q-0.765625 0 -1.28125 0.359375q-0.515625 0.359375 -0.515625 0.953125zm1.015625 -8.28125q0 0.828125 0.375 1.3125q0.390625 0.46875 1.15625 0.46875q0.78125 0 1.140625 -0.46875q0.375 -0.484375 0.375 -1.3125q0 -1.84375 -1.515625 -1.84375q-1.53125 0 -1.53125 1.84375z" fill-rule="nonzero"/>
    <path fill="#000000" fill-opacity="0.0" d="m336.24908 347.4877l0 0c0 -77.53729 65.345276 -140.3937 145.95276 -140.3937l0 0c38.709106 0 75.83276 14.791443 103.20416 41.12036c27.37146 26.328918 42.748596 62.038605 42.748596 99.273346l0 0c0 77.53729 -65.345276 140.3937 -145.95276 140.3937l0 0c-80.60748 0 -145.95276 -62.856415 -145.95276 -140.3937z" fill-rule="evenodd"/>
    <path stroke="#ff0000" stroke-width="8.0" stroke-linejoin="round" stroke-linecap="butt" d="m336.24908 347.4877l0 0c0 -77.53729 65.345276 -140.3937 145.95276 -140.3937l0 0c38.709106 0 75.83276 14.791443 103.20416 41.12036c27.37146 26.328918 42.748596 62.038605 42.748596 99.273346l0 0c0 77.53729 -65.345276 140.3937 -145.95276 140.3937l0 0c-80.60748 0 -145.95276 -62.856415 -145.95276 -140.3937z" fill-rule="evenodd"/>
    <path fill="#000000" fill-opacity="0.0" d="m439.62817 442.48712l133.79529 0l0 43.40155l-133.79529 0z" fill-rule="evenodd"/>
    <path fill="#ff0000" d="m457.97192 464.4071l-7.671875 0l0 -13.3125l7.671875 0l0 2.3125l-4.84375 0l0 2.921875l4.515625 0l0 2.3125l-4.515625 0l0 3.4375l4.84375 0l0 2.328125zm6.8548584 -2.03125q0.734375 0 1.75 -0.3125l0 2.0625q-1.046875 0.46875 -2.546875 0.46875q-1.671875 0 -2.4375 -0.84375q-0.75 -0.84375 -0.75 -2.53125l0 -4.90625l-1.34375 0l0 -1.1875l1.53125 -0.921875l0.8125 -2.15625l1.765625 0l0 2.171875l2.859375 0l0 2.09375l-2.859375 0l0 4.90625q0 0.59375 0.328125 0.875q0.34375 0.28125 0.890625 0.28125zm13.207703 2.03125l-2.78125 0l0 -5.953125q0 -2.203125 -1.640625 -2.203125q-1.15625 0 -1.6875 0.796875q-0.515625 0.796875 -0.515625 2.5625l0 4.796875l-2.78125 0l0 -14.171875l2.78125 0l0 2.890625q0 0.328125 -0.0625 1.578125l-0.0625 0.828125l0.140625 0q0.9375 -1.5 2.953125 -1.5q1.796875 0 2.71875 0.96875q0.9375 0.96875 0.9375 2.765625l0 6.640625zm2.745758 -12.8125q0 -1.359375 1.5 -1.359375q1.515625 0 1.515625 1.359375q0 0.640625 -0.375 1.0q-0.375 0.359375 -1.140625 0.359375q-1.5 0 -1.5 -1.359375zm2.890625 12.8125l-2.78125 0l0 -10.1875l2.78125 0l0 10.1875zm5.584076 -5.53125l1.21875 -1.5625l2.84375 -3.09375l3.140625 0l-4.046875 4.421875l4.28125 5.765625l-3.203125 0l-2.9375 -4.125l-1.1875 0.953125l0 3.171875l-2.78125 0l0 -14.171875l2.78125 0l0 6.3125l-0.140625 2.328125l0.03125 0z" fill-rule="nonzero"/>
    <path fill="#707070" d="m453.58893 238.66866l4.9214478 -5.0097046l5.43631 5.3405457l5.4363403 -5.3405457l4.9214478 5.0097046l-5.34729 5.253067l5.34729 5.253067l-4.9214478 5.0097046l-5.4363403 -5.3405457l-5.43631 5.3405457l-4.9214478 -5.0097046l5.3472595 -5.253067z" fill-rule="evenodd"/>
    <path stroke="#000000" stroke-width="1.3333333333333333" stroke-linejoin="round" stroke-linecap="butt" d="m453.58893 238.66866l4.9214478 -5.0097046l5.43631 5.3405457l5.4363403 -5.3405457l4.9214478 5.0097046l-5.34729 5.253067l5.34729 5.253067l-4.9214478 5.0097046l-5.4363403 -5.3405457l-5.43631 5.3405457l-4.9214478 -5.0097046l5.3472595 -5.253067z" fill-rule="evenodd"/>
    <path fill="#707070" d="m508.31906 325.57675l4.921417 -5.0097046l5.4363403 5.3405457l5.4363403 -5.3405457l4.9214478 5.0097046l-5.34729 5.2530518l5.34729 5.2530823l-4.9214478 5.0097046l-5.4363403 -5.3405457l-5.4363403 5.3405457l-4.921417 -5.0097046l5.3472595 -5.2530823z" fill-rule="evenodd"/>
    <path stroke="#000000" stroke-width="1.3333333333333333" stroke-linejoin="round" stroke-linecap="butt" d="m508.31906 325.57675l4.921417 -5.0097046l5.4363403 5.3405457l5.4363403 -5.3405457l4.9214478 5.0097046l-5.34729 5.2530518l5.34729 5.2530823l-4.9214478 5.0097046l-5.4363403 -5.3405457l-5.4363403 5.3405457l-4.921417 -5.0097046l5.3472595 -5.2530823z" fill-rule="evenodd"/>
    <path fill="#707070" d="m474.89883 170.4564l4.9214478 -5.0097046l5.4363403 5.3405457l5.43631 -5.3405457l4.9214478 5.0097046l-5.34729 5.253067l5.34729 5.253067l-4.9214478 5.0097046l-5.43631 -5.3405457l-5.4363403 5.3405457l-4.9214478 -5.0097046l5.34729 -5.253067z" fill-rule="evenodd"/>
    <path stroke="#000000" stroke-width="1.3333333333333333" stroke-linejoin="round" stroke-linecap="butt" d="m474.89883 170.4564l4.9214478 -5.0097046l5.4363403 5.3405457l5.43631 -5.3405457l4.9214478 5.0097046l-5.34729 5.253067l5.34729 5.253067l-4.9214478 5.0097046l-5.43631 -5.3405457l-5.4363403 5.3405457l-4.9214478 -5.0097046l5.34729 -5.253067z" fill-rule="evenodd"/>
    <path fill="#707070" d="m255.95247 189.4039l4.921463 -5.0097046l5.43631 5.340561l5.43631 -5.340561l4.9214478 5.0097046l-5.3472595 5.2530823l5.3472595 5.253067l-4.9214478 5.0097046l-5.43631 -5.3405457l-5.43631 5.3405457l-4.921463 -5.0097046l5.347275 -5.253067z" fill-rule="evenodd"/>
    <path stroke="#000000" stroke-width="1.3333333333333333" stroke-linejoin="round" stroke-linecap="butt" d="m255.95247 189.4039l4.921463 -5.0097046l5.43631 5.340561l5.43631 -5.340561l4.9214478 5.0097046l-5.3472595 5.2530823l5.3472595 5.253067l-4.9214478 5.0097046l-5.43631 -5.3405457l-5.43631 5.3405457l-4.921463 -5.0097046l5.347275 -5.253067z" fill-rule="evenodd"/>
    <path fill="#ff0000" d="m410.9862 403.8322l9.12915 -10.683563l13.602722 11.623596l13.602722 -11.623596l9.12912 10.683563l-11.915985 10.182251l11.915985 10.182251l-9.12912 10.683563l-13.602722 -11.623596l-13.602722 11.623596l-9.12915 -10.683563l11.915985 -10.182251z" fill-rule="evenodd"/>
    <path stroke="#000000" stroke-width="1.3333333333333333" stroke-linejoin="round" stroke-linecap="butt" d="m410.9862 403.8322l9.12915 -10.683563l13.602722 11.623596l13.602722 -11.623596l9.12912 10.683563l-11.915985 10.182251l11.915985 10.182251l-9.12912 10.683563l-13.602722 -11.623596l-13.602722 11.623596l-9.12915 -10.683563l11.915985 -10.182251z" fill-rule="evenodd"/>
    <path fill="#000000" fill-opacity="0.0" d="m457.87155 387.41483l176.31497 0l0 48.503937l-176.31497 0z" fill-rule="evenodd"/>
    <path fill="#ff0000" d="m481.51218 409.3348l-3.203125 0l-1.8125 -7.0q-0.09375 -0.375 -0.34375 -1.53125q-0.234375 -1.171875 -0.265625 -1.578125q-0.0625 0.484375 -0.28125 1.578125q-0.21875 1.09375 -0.328125 1.546875l-1.796875 6.984375l-3.21875 0l-3.390625 -13.3125l2.78125 0l1.703125 7.265625q0.4375 2.015625 0.640625 3.484375q0.0625 -0.515625 0.25 -1.59375q0.203125 -1.09375 0.375 -1.703125l1.9375 -7.453125l2.671875 0l1.9375 7.453125q0.125 0.5 0.3125 1.53125q0.203125 1.03125 0.296875 1.765625q0.09375 -0.703125 0.296875 -1.765625q0.203125 -1.0625 0.359375 -1.71875l1.703125 -7.265625l2.765625 0l-3.390625 13.3125zm9.068054 -8.40625q-0.875 0 -1.375 0.5625q-0.5 0.5625 -0.578125 1.59375l3.890625 0q-0.015625 -1.03125 -0.53125 -1.59375q-0.515625 -0.5625 -1.40625 -0.5625zm0.390625 8.59375q-2.453125 0 -3.84375 -1.359375q-1.375 -1.359375 -1.375 -3.84375q0 -2.5625 1.265625 -3.953125q1.28125 -1.40625 3.546875 -1.40625q2.15625 0 3.359375 1.234375q1.203125 1.21875 1.203125 3.390625l0 1.34375l-6.5625 0q0.046875 1.1875 0.703125 1.859375q0.65625 0.65625 1.828125 0.65625q0.921875 0 1.734375 -0.1875q0.828125 -0.1875 1.71875 -0.609375l0 2.15625q-0.71875 0.359375 -1.546875 0.53125q-0.828125 0.1875 -2.03125 0.1875zm12.100616 -10.5625q0.5625 0 0.9375 0.078125l-0.203125 2.609375q-0.34375 -0.09375 -0.828125 -0.09375q-1.328125 0 -2.078125 0.6875q-0.734375 0.6875 -0.734375 1.90625l0 5.1875l-2.78125 0l0 -10.1875l2.109375 0l0.40625 1.71875l0.140625 0q0.46875 -0.859375 1.265625 -1.375q0.8125 -0.53125 1.765625 -0.53125zm7.0812073 8.34375q0.734375 0 1.75 -0.3125l0 2.0625q-1.046875 0.46875 -2.546875 0.46875q-1.671875 0 -2.4375 -0.84375q-0.75 -0.84375 -0.75 -2.53125l0 -4.90625l-1.34375 0l0 -1.1875l1.53125 -0.921875l0.8125 -2.15625l1.765625 0l0 2.171875l2.859375 0l0 2.09375l-2.859375 0l0 4.90625q0 0.59375 0.328125 0.875q0.34375 0.28125 0.890625 0.28125zm8.020233 -6.375q-0.875 0 -1.375 0.5625q-0.5 0.5625 -0.578125 1.59375l3.890625 0q-0.015625 -1.03125 -0.53125 -1.59375q-0.515625 -0.5625 -1.40625 -0.5625zm0.390625 8.59375q-2.453125 0 -3.84375 -1.359375q-1.375 -1.359375 -1.375 -3.84375q0 -2.5625 1.265625 -3.953125q1.28125 -1.40625 3.546875 -1.40625q2.15625 0 3.359375 1.234375q1.203125 1.21875 1.203125 3.390625l0 1.34375l-6.5625 0q0.046875 1.1875 0.703125 1.859375q0.65625 0.65625 1.828125 0.65625q0.921875 0 1.734375 -0.1875q0.828125 -0.1875 1.71875 -0.609375l0 2.15625q-0.71875 0.359375 -1.546875 0.53125q-0.828125 0.1875 -2.03125 0.1875z" fill-rule="nonzero"/>
    <path fill="#000000" fill-opacity="0.0" d="m503.48074 157.24742l124.09451 0l0 30.64566l-124.09451 0z" fill-rule="evenodd"/>
    <path fill="#000000" d="m519.7933 179.16742l-3.203125 -10.453125l-0.078125 0q0.171875 3.1875 0.171875 4.265625l0 6.1875l-2.53125 0l0 -13.3125l3.84375 0l3.15625 10.171875l0.0625 0l3.328125 -10.171875l3.859375 0l0 13.3125l-2.640625 0l0 -6.296875q0 -0.453125 0.015625 -1.03125q0.015625 -0.59375 0.125 -3.109375l-0.078125 0l-3.4375 10.4375l-2.59375 0zm15.949768 -8.40625q-0.875 0 -1.375 0.5625q-0.5 0.5625 -0.578125 1.59375l3.890625 0q-0.015625 -1.03125 -0.53125 -1.59375q-0.515625 -0.5625 -1.40625 -0.5625zm0.390625 8.59375q-2.453125 0 -3.84375 -1.359375q-1.375 -1.359375 -1.375 -3.84375q0 -2.5625 1.265625 -3.953125q1.28125 -1.40625 3.546875 -1.40625q2.15625 0 3.359375 1.234375q1.203125 1.21875 1.203125 3.390625l0 1.34375l-6.5625 0q0.046875 1.1875 0.703125 1.859375q0.65625 0.65625 1.828125 0.65625q0.921875 0 1.734375 -0.1875q0.828125 -0.1875 1.71875 -0.609375l0 2.15625q-0.71875 0.359375 -1.546875 0.53125q-0.828125 0.1875 -2.03125 0.1875zm10.710022 -2.21875q0.734375 0 1.75 -0.3125l0 2.0625q-1.046875 0.46875 -2.546875 0.46875q-1.671875 0 -2.4375 -0.84375q-0.75 -0.84375 -0.75 -2.53125l0 -4.90625l-1.34375 0l0 -1.1875l1.53125 -0.921875l0.8125 -2.15625l1.765625 0l0 2.171875l2.859375 0l0 2.09375l-2.859375 0l0 4.90625q0 0.59375 0.328125 0.875q0.34375 0.28125 0.890625 0.28125zm13.207703 2.03125l-2.78125 0l0 -5.953125q0 -2.203125 -1.640625 -2.203125q-1.15625 0 -1.6875 0.796875q-0.515625 0.796875 -0.515625 2.5625l0 4.796875l-2.78125 0l0 -14.171875l2.78125 0l0 2.890625q0 0.328125 -0.0625 1.578125l-0.0625 0.828125l0.140625 0q0.9375 -1.5 2.953125 -1.5q1.796875 0 2.71875 0.96875q0.9375 0.96875 0.9375 2.765625l0 6.640625zm5.0739136 -5.109375q0 1.515625 0.5 2.296875q0.5 0.765625 1.609375 0.765625q1.109375 0 1.59375 -0.765625q0.5 -0.78125 0.5 -2.296875q0 -1.515625 -0.5 -2.265625q-0.484375 -0.765625 -1.609375 -0.765625q-1.109375 0 -1.609375 0.765625q-0.484375 0.75 -0.484375 2.265625zm7.046875 0q0 2.484375 -1.3125 3.890625q-1.3125 1.40625 -3.65625 1.40625q-1.46875 0 -2.59375 -0.640625q-1.109375 -0.65625 -1.71875 -1.84375q-0.59375 -1.203125 -0.59375 -2.8125q0 -2.5 1.296875 -3.875q1.296875 -1.390625 3.65625 -1.390625q1.46875 0 2.59375 0.640625q1.125 0.640625 1.71875 1.828125q0.609375 1.1875 0.609375 2.796875zm5.5195923 5.296875q-1.796875 0 -2.828125 -1.390625q-1.015625 -1.40625 -1.015625 -3.875q0 -2.5 1.03125 -3.890625q1.046875 -1.40625 2.875 -1.40625q1.921875 0 2.9375 1.5l0.09375 0q-0.21875 -1.140625 -0.21875 -2.03125l0 -3.265625l2.796875 0l0 14.171875l-2.140625 0l-0.53125 -1.328125l-0.125 0q-0.9375 1.515625 -2.875 1.515625zm0.96875 -2.21875q1.0625 0 1.5625 -0.609375q0.5 -0.625 0.546875 -2.109375l0 -0.3125q0 -1.640625 -0.515625 -2.34375q-0.5 -0.703125 -1.640625 -0.703125q-0.921875 0 -1.4375 0.78125q-0.515625 0.78125 -0.515625 2.296875q0 1.5 0.515625 2.25q0.515625 0.75 1.484375 0.75zm11.821533 -6.375q-0.875 0 -1.375 0.5625q-0.5 0.5625 -0.578125 1.59375l3.890625 0q-0.015625 -1.03125 -0.53125 -1.59375q-0.515625 -0.5625 -1.40625 -0.5625zm0.390625 8.59375q-2.453125 0 -3.84375 -1.359375q-1.375 -1.359375 -1.375 -3.84375q0 -2.5625 1.265625 -3.953125q1.28125 -1.40625 3.546875 -1.40625q2.15625 0 3.359375 1.234375q1.203125 1.21875 1.203125 3.390625l0 1.34375l-6.5625 0q0.046875 1.1875 0.703125 1.859375q0.65625 0.65625 1.828125 0.65625q0.921875 0 1.734375 -0.1875q0.828125 -0.1875 1.71875 -0.609375l0 2.15625q-0.71875 0.359375 -1.546875 0.53125q-0.828125 0.1875 -2.03125 0.1875zm15.819336 -0.1875l-2.78125 0l0 -5.953125q0 -1.09375 -0.390625 -1.640625q-0.390625 -0.5625 -1.25 -0.5625q-1.15625 0 -1.6875 0.78125q-0.515625 0.78125 -0.515625 2.578125l0 4.796875l-2.78125 0l0 -10.1875l2.125 0l0.375 1.3125l0.15625 0q0.46875 -0.75 1.28125 -1.125q0.8125 -0.375 1.84375 -0.375q1.78125 0 2.703125 0.96875q0.921875 0.953125 0.921875 2.765625l0 6.640625z" fill-rule="nonzero"/>
    <path fill="#000000" fill-opacity="0.0" d="m285.10104 179.57767l124.09448 0l0 30.645676l-124.09448 0z" fill-rule="evenodd"/>
    <path fill="#000000" d="m300.91354 201.49767l-2.828125 0l0 -10.96875l-3.609375 0l0 -2.34375l10.0625 0l0 2.34375l-3.625 0l0 10.96875zm14.850739 0l-2.78125 0l0 -5.953125q0 -2.203125 -1.640625 -2.203125q-1.15625 0 -1.6875 0.796875q-0.515625 0.796875 -0.515625 2.5625l0 4.796875l-2.78125 0l0 -14.171875l2.78125 0l0 2.890625q0 0.328125 -0.0625 1.578125l-0.0625 0.828125l0.140625 0q0.9375 -1.5 2.953125 -1.5q1.796875 0 2.71875 0.96875q0.9375 0.96875 0.9375 2.765625l0 6.640625zm7.073883 -8.40625q-0.875 0 -1.375 0.5625q-0.5 0.5625 -0.578125 1.59375l3.890625 0q-0.015625 -1.03125 -0.53125 -1.59375q-0.515625 -0.5625 -1.40625 -0.5625zm0.390625 8.59375q-2.453125 0 -3.84375 -1.359375q-1.375 -1.359375 -1.375 -3.84375q0 -2.5625 1.265625 -3.953125q1.28125 -1.40625 3.546875 -1.40625q2.15625 0 3.359375 1.234375q1.203125 1.21875 1.203125 3.390625l0 1.34375l-6.5625 0q0.046875 1.1875 0.703125 1.859375q0.65625 0.65625 1.828125 0.65625q0.921875 0 1.734375 -0.1875q0.828125 -0.1875 1.71875 -0.609375l0 2.15625q-0.71875 0.359375 -1.546875 0.53125q-0.828125 0.1875 -2.03125 0.1875zm8.631866 -5.296875q0 1.515625 0.5 2.296875q0.5 0.765625 1.609375 0.765625q1.109375 0 1.59375 -0.765625q0.5 -0.78125 0.5 -2.296875q0 -1.515625 -0.5 -2.265625q-0.484375 -0.765625 -1.609375 -0.765625q-1.109375 0 -1.609375 0.765625q-0.484375 0.75 -0.484375 2.265625zm7.046875 0q0 2.484375 -1.3125 3.890625q-1.3125 1.40625 -3.65625 1.40625q-1.46875 0 -2.59375 -0.640625q-1.109375 -0.65625 -1.71875 -1.84375q-0.59375 -1.203125 -0.59375 -2.8125q0 -2.5 1.296875 -3.875q1.296875 -1.390625 3.65625 -1.390625q1.46875 0 2.59375 0.640625q1.125 0.640625 1.71875 1.828125q0.609375 1.1875 0.609375 2.796875zm7.9727173 -5.265625q0.5625 0 0.9375 0.078125l-0.203125 2.609375q-0.34375 -0.09375 -0.828125 -0.09375q-1.328125 0 -2.078125 0.6875q-0.734375 0.6875 -0.734375 1.90625l0 5.1875l-2.78125 0l0 -10.1875l2.109375 0l0.40625 1.71875l0.140625 0q0.46875 -0.859375 1.265625 -1.375q0.8125 -0.53125 1.765625 -0.53125zm2.6749573 -2.4375q0 -1.359375 1.5 -1.359375q1.515625 0 1.515625 1.359375q0 0.640625 -0.375 1.0q-0.375 0.359375 -1.140625 0.359375q-1.5 0 -1.5 -1.359375zm2.890625 12.8125l-2.78125 0l0 -10.1875l2.78125 0l0 10.1875zm7.130951 -8.40625q-0.875 0 -1.375 0.5625q-0.5 0.5625 -0.578125 1.59375l3.890625 0q-0.015625 -1.03125 -0.53125 -1.59375q-0.515625 -0.5625 -1.40625 -0.5625zm0.390625 8.59375q-2.453125 0 -3.84375 -1.359375q-1.375 -1.359375 -1.375 -3.84375q0 -2.5625 1.265625 -3.953125q1.28125 -1.40625 3.546875 -1.40625q2.15625 0 3.359375 1.234375q1.203125 1.21875 1.203125 3.390625l0 1.34375l-6.5625 0q0.046875 1.1875 0.703125 1.859375q0.65625 0.65625 1.828125 0.65625q0.921875 0 1.734375 -0.1875q0.828125 -0.1875 1.71875 -0.609375l0 2.15625q-0.71875 0.359375 -1.546875 0.53125q-0.828125 0.1875 -2.03125 0.1875zm15.819366 -0.1875l-2.78125 0l0 -5.953125q0 -1.09375 -0.390625 -1.640625q-0.390625 -0.5625 -1.25 -0.5625q-1.15625 0 -1.6875 0.78125q-0.515625 0.78125 -0.515625 2.578125l0 4.796875l-2.78125 0l0 -10.1875l2.125 0l0.375 1.3125l0.15625 0q0.46875 -0.75 1.28125 -1.125q0.8125 -0.375 1.84375 -0.375q1.78125 0 2.703125 0.96875q0.921875 0.953125 0.921875 2.765625l0 6.640625z" fill-rule="nonzero"/>
    <path fill="#000000" fill-opacity="0.0" d="m524.76385 315.1297l124.09448 0l0 30.64566l-124.09448 0z" fill-rule="evenodd"/>
    <path fill="#000000" d="m538.26385 330.0028l0.921875 0q1.3125 0 1.953125 -0.515625q0.65625 -0.515625 0.65625 -1.5q0 -1.0 -0.546875 -1.46875q-0.546875 -0.46875 -1.703125 -0.46875l-1.28125 0l0 3.953125zm6.375 -2.125q0 2.15625 -1.34375 3.296875q-1.34375 1.140625 -3.8125 1.140625l-1.21875 0l0 4.734375l-2.828125 0l0 -13.3125l4.265625 0q2.421875 0 3.671875 1.046875q1.265625 1.03125 1.265625 3.09375zm7.9804688 -1.203125q0.5625 0 0.9375 0.078125l-0.203125 2.609375q-0.34375 -0.09375 -0.828125 -0.09375q-1.328125 0 -2.078125 0.6875q-0.734375 0.6875 -0.734375 1.90625l0 5.1875l-2.78125 0l0 -10.1875l2.109375 0l0.40625 1.71875l0.140625 0q0.46875 -0.859375 1.265625 -1.375q0.8125 -0.53125 1.765625 -0.53125zm9.253052 10.375l-0.53125 -1.390625l-0.078125 0q-0.703125 0.890625 -1.453125 1.234375q-0.734375 0.34375 -1.921875 0.34375q-1.46875 0 -2.3125 -0.84375q-0.84375 -0.84375 -0.84375 -2.390625q0 -1.625 1.125 -2.390625q1.140625 -0.765625 3.4375 -0.84375l1.765625 -0.0625l0 -0.4375q0 -1.546875 -1.59375 -1.546875q-1.21875 0 -2.859375 0.734375l-0.921875 -1.875q1.75 -0.921875 3.890625 -0.921875q2.046875 0 3.140625 0.890625q1.09375 0.890625 1.09375 2.71875l0 6.78125l-1.9375 0zm-0.8125 -4.71875l-1.078125 0.03125q-1.21875 0.046875 -1.8125 0.453125q-0.578125 0.390625 -0.578125 1.203125q0 1.1875 1.34375 1.1875q0.96875 0 1.546875 -0.546875q0.578125 -0.5625 0.578125 -1.484375l0 -0.84375zm8.284119 -0.8125l1.21875 -1.5625l2.84375 -3.09375l3.140625 0l-4.046875 4.421875l4.28125 5.765625l-3.203125 0l-2.9375 -4.125l-1.1875 0.953125l0 3.171875l-2.78125 0l0 -14.171875l2.78125 0l0 6.3125l-0.140625 2.328125l0.03125 0zm13.194031 3.5q0.734375 0 1.75 -0.3125l0 2.0625q-1.046875 0.46875 -2.546875 0.46875q-1.671875 0 -2.4375 -0.84375q-0.75 -0.84375 -0.75 -2.53125l0 -4.90625l-1.34375 0l0 -1.1875l1.53125 -0.921875l0.8125 -2.15625l1.765625 0l0 2.171875l2.859375 0l0 2.09375l-2.859375 0l0 4.90625q0 0.59375 0.328125 0.875q0.34375 0.28125 0.890625 0.28125zm3.6920776 -10.78125q0 -1.359375 1.5 -1.359375q1.515625 0 1.515625 1.359375q0 0.640625 -0.375 1.0q-0.375 0.359375 -1.140625 0.359375q-1.5 0 -1.5 -1.359375zm2.890625 12.8125l-2.78125 0l0 -10.1875l2.78125 0l0 10.1875zm5.5841064 -5.53125l1.21875 -1.5625l2.84375 -3.09375l3.140625 0l-4.046875 4.421875l4.28125 5.765625l-3.203125 0l-2.9375 -4.125l-1.1875 0.953125l0 3.171875l-2.78125 0l0 -14.171875l2.78125 0l0 6.3125l-0.140625 2.328125l0.03125 0zm13.115906 -2.875q-0.875 0 -1.375 0.5625q-0.5 0.5625 -0.578125 1.59375l3.890625 0q-0.015625 -1.03125 -0.53125 -1.59375q-0.515625 -0.5625 -1.40625 -0.5625zm0.390625 8.59375q-2.453125 0 -3.84375 -1.359375q-1.375 -1.359375 -1.375 -3.84375q0 -2.5625 1.265625 -3.953125q1.28125 -1.40625 3.546875 -1.40625q2.15625 0 3.359375 1.234375q1.203125 1.21875 1.203125 3.390625l0 1.34375l-6.5625 0q0.046875 1.1875 0.703125 1.859375q0.65625 0.65625 1.828125 0.65625q0.921875 0 1.734375 -0.1875q0.828125 -0.1875 1.71875 -0.609375l0 2.15625q-0.71875 0.359375 -1.546875 0.53125q-0.828125 0.1875 -2.03125 0.1875zm15.819397 -0.1875l-2.78125 0l0 -5.953125q0 -1.09375 -0.390625 -1.640625q-0.390625 -0.5625 -1.25 -0.5625q-1.15625 0 -1.6875 0.78125q-0.515625 0.78125 -0.515625 2.578125l0 4.796875l-2.78125 0l0 -10.1875l2.125 0l0.375 1.3125l0.15625 0q0.46875 -0.75 1.28125 -1.125q0.8125 -0.375 1.84375 -0.375q1.78125 0 2.703125 0.96875q0.921875 0.953125 0.921875 2.765625l0 6.640625z" fill-rule="nonzero"/>
    <path fill="#ffffff" d="m477.90594 228.33421l113.7323 0l0 30.645676l-113.7323 0z" fill-rule="evenodd"/>
    <path fill="#000000" d="m491.40594 243.20734l0.921875 0q1.3125 0 1.953125 -0.515625q0.65625 -0.515625 0.65625 -1.5q0 -1.0 -0.546875 -1.46875q-0.546875 -0.46875 -1.703125 -0.46875l-1.28125 0l0 3.953125zm6.375 -2.125q0 2.15625 -1.34375 3.296875q-1.34375 1.140625 -3.8125 1.140625l-1.21875 0l0 4.734375l-2.828125 0l0 -13.3125l4.265625 0q2.421875 0 3.671875 1.046875q1.265625 1.03125 1.265625 3.09375zm7.980438 -1.203125q0.5625 0 0.9375 0.078125l-0.203125 2.609375q-0.34375 -0.09375 -0.828125 -0.09375q-1.328125 0 -2.078125 0.6875q-0.734375 0.6875 -0.734375 1.90625l0 5.1875l-2.78125 0l0 -10.1875l2.109375 0l0.40625 1.71875l0.140625 0q0.46875 -0.859375 1.265625 -1.375q0.8125 -0.53125 1.765625 -0.53125zm2.6749573 -2.4375q0 -1.359375 1.5 -1.359375q1.515625 0 1.515625 1.359375q0 0.640625 -0.375 1.0q-0.375 0.359375 -1.140625 0.359375q-1.5 0 -1.5 -1.359375zm2.890625 12.8125l-2.78125 0l0 -10.1875l2.78125 0l0 10.1875zm12.31842 0l-2.78125 0l0 -5.953125q0 -1.09375 -0.390625 -1.640625q-0.390625 -0.5625 -1.25 -0.5625q-1.15625 0 -1.6875 0.78125q-0.515625 0.78125 -0.515625 2.578125l0 4.796875l-2.78125 0l0 -10.1875l2.125 0l0.375 1.3125l0.15625 0q0.46875 -0.75 1.28125 -1.125q0.8125 -0.375 1.84375 -0.375q1.78125 0 2.703125 0.96875q0.921875 0.953125 0.921875 2.765625l0 6.640625zm9.948914 0l-8.046875 0l0 -1.640625l4.71875 -6.421875l-4.4375 0l0 -2.125l7.59375 0l0 1.8125l-4.578125 6.25l4.75 0l0 2.125zm1.8972168 -12.8125q0 -1.359375 1.5 -1.359375q1.515625 0 1.515625 1.359375q0 0.640625 -0.375 1.0q-0.375 0.359375 -1.140625 0.359375q-1.5 0 -1.5 -1.359375zm2.890625 12.8125l-2.78125 0l0 -10.1875l2.78125 0l0 10.1875zm8.505981 0.1875q-1.796875 0 -2.8125 -1.3125l-0.140625 0q0.140625 1.28125 0.140625 1.484375l0 4.125l-2.78125 0l0 -14.671875l2.265625 0l0.390625 1.328125l0.125 0q0.96875 -1.515625 2.890625 -1.515625q1.796875 0 2.8125 1.390625q1.03125 1.390625 1.03125 3.875q0 1.625 -0.484375 2.828125q-0.46875 1.203125 -1.359375 1.84375q-0.875 0.625 -2.078125 0.625zm-0.8125 -8.34375q-1.03125 0 -1.515625 0.640625q-0.46875 0.625 -0.484375 2.09375l0 0.296875q0 1.640625 0.484375 2.359375q0.484375 0.703125 1.546875 0.703125q1.875 0 1.875 -3.078125q0 -1.515625 -0.46875 -2.265625q-0.453125 -0.75 -1.4375 -0.75zm6.915283 -4.65625q0 -1.359375 1.5 -1.359375q1.515625 0 1.515625 1.359375q0 0.640625 -0.375 1.0q-0.375 0.359375 -1.140625 0.359375q-1.5 0 -1.5 -1.359375zm2.890625 12.8125l-2.78125 0l0 -10.1875l2.78125 0l0 10.1875zm7.1309204 -8.40625q-0.875 0 -1.375 0.5625q-0.5 0.5625 -0.578125 1.59375l3.890625 0q-0.015625 -1.03125 -0.53125 -1.59375q-0.515625 -0.5625 -1.40625 -0.5625zm0.390625 8.59375q-2.453125 0 -3.84375 -1.359375q-1.375 -1.359375 -1.375 -3.84375q0 -2.5625 1.265625 -3.953125q1.28125 -1.40625 3.546875 -1.40625q2.15625 0 3.359375 1.234375q1.203125 1.21875 1.203125 3.390625l0 1.34375l-6.5625 0q0.046875 1.1875 0.703125 1.859375q0.65625 0.65625 1.828125 0.65625q0.921875 0 1.734375 -0.1875q0.828125 -0.1875 1.71875 -0.609375l0 2.15625q-0.71875 0.359375 -1.546875 0.53125q-0.828125 0.1875 -2.03125 0.1875zm15.819336 -0.1875l-2.78125 0l0 -5.953125q0 -1.09375 -0.390625 -1.640625q-0.390625 -0.5625 -1.25 -0.5625q-1.15625 0 -1.6875 0.78125q-0.515625 0.78125 -0.515625 2.578125l0 4.796875l-2.78125 0l0 -10.1875l2.125 0l0.375 1.3125l0.15625 0q0.46875 -0.75 1.28125 -1.125q0.8125 -0.375 1.84375 -0.375q1.78125 0 2.703125 0.96875q0.921875 0.953125 0.921875 2.765625l0 6.640625z" fill-rule="nonzero"/>
    <path fill="#000000" fill-opacity="0.0" d="m367.4699 277.5959l44.81891 0l0 76.59842l-44.81891 0z" fill-rule="evenodd"/>
    <path fill="#ffffff" d="m388.50073 295.844l0 -0.484375q0 -1.078125 0.328125 -1.765625q0.328125 -0.6875 1.234375 -1.453125q1.234375 -1.046875 1.546875 -1.5625q0.328125 -0.53125 0.328125 -1.28125q0 -0.9375 -0.59375 -1.4375q-0.59375 -0.5 -1.71875 -0.5q-0.71875 0 -1.40625 0.171875q-0.671875 0.15625 -1.5625 0.609375l-0.53125 -1.234375q1.71875 -0.90625 3.59375 -0.90625q1.734375 0 2.703125 0.859375q0.96875 0.859375 0.96875 2.421875q0 0.65625 -0.1875 1.171875q-0.171875 0.5 -0.515625 0.953125q-0.34375 0.453125 -1.5 1.453125q-0.90625 0.78125 -1.203125 1.296875q-0.296875 0.515625 -0.296875 1.390625l0 0.296875l-1.1875 0zm-0.4375 2.703125q0 -1.234375 1.09375 -1.234375q0.53125 0 0.8125 0.328125q0.28125 0.3125 0.28125 0.90625q0 0.59375 -0.296875 0.921875q-0.28125 0.3125 -0.796875 0.3125q-0.46875 0 -0.78125 -0.28125q-0.3125 -0.296875 -0.3125 -0.953125z" fill-rule="nonzero"/>
    <path fill="#bf7200" d="m140.59846 240.94173l161.25984 0l0 36.661423l-161.25984 0z" fill-rule="evenodd"/>
    <path stroke="#000000" stroke-width="1.3333333333333333" stroke-linejoin="round" stroke-linecap="butt" d="m140.59846 240.94173l161.25984 0l0 36.661423l-161.25984 0z" fill-rule="evenodd"/>
    <path fill="#ffffff" d="m185.48512 266.19244l-3.0625 -9.671875l2.484375 0l1.8125 6.34375l1.671875 -6.34375l2.46875 0l1.609375 6.34375l1.859375 -6.34375l2.515625 0l-3.109375 9.671875l-2.453125 0l-1.671875 -6.21875l-1.640625 6.21875l-2.484375 0zm18.308304 -3.078125l2.546875 0.421875q-0.484375 1.40625 -1.546875 2.140625q-1.0625 0.734375 -2.65625 0.734375q-2.515625 0 -3.734375 -1.65625q-0.953125 -1.3125 -0.953125 -3.328125q0 -2.40625 1.25 -3.765625q1.265625 -1.359375 3.1875 -1.359375q2.15625 0 3.40625 1.421875q1.25 1.421875 1.1875 4.375l-6.40625 0q0.03125 1.140625 0.609375 1.78125q0.59375 0.625 1.484375 0.625q0.59375 0 1.0 -0.328125q0.421875 -0.328125 0.625 -1.0625zm0.15625 -2.59375q-0.03125 -1.109375 -0.578125 -1.6875q-0.546875 -0.578125 -1.328125 -0.578125q-0.84375 0 -1.390625 0.609375q-0.546875 0.609375 -0.53125 1.65625l3.828125 0zm7.078842 5.671875l-2.5625 0l0 -9.671875l2.375 0l0 1.375q0.609375 -0.984375 1.09375 -1.28125q0.484375 -0.3125 1.109375 -0.3125q0.875 0 1.6875 0.484375l-0.796875 2.234375q-0.640625 -0.421875 -1.203125 -0.421875q-0.53125 0 -0.90625 0.296875q-0.375 0.296875 -0.59375 1.078125q-0.203125 0.765625 -0.203125 3.234375l0 2.984375zm9.244644 -9.671875l0 2.03125l-1.75 0l0 3.90625q0 1.1875 0.046875 1.390625q0.046875 0.1875 0.21875 0.3125q0.1875 0.125 0.4375 0.125q0.359375 0 1.03125 -0.25l0.21875 2.0q-0.890625 0.375 -2.015625 0.375q-0.703125 0 -1.265625 -0.234375q-0.546875 -0.234375 -0.8125 -0.59375q-0.25 -0.375 -0.34375 -1.0q-0.09375 -0.453125 -0.09375 -1.8125l0 -4.21875l-1.171875 0l0 -2.03125l1.171875 0l0 -1.9218903l2.578125 -1.5l0 3.4218903l1.75 0zm7.368927 6.59375l2.546875 0.421875q-0.484375 1.40625 -1.546875 2.140625q-1.0625 0.734375 -2.65625 0.734375q-2.515625 0 -3.734375 -1.65625q-0.953125 -1.3125 -0.953125 -3.328125q0 -2.40625 1.25 -3.765625q1.265625 -1.359375 3.1875 -1.359375q2.15625 0 3.40625 1.421875q1.25 1.421875 1.1875 4.375l-6.40625 0q0.03125 1.140625 0.609375 1.78125q0.59375 0.625 1.484375 0.625q0.59375 0 1.0 -0.328125q0.421875 -0.328125 0.625 -1.0625zm0.15625 -2.59375q-0.03125 -1.109375 -0.578125 -1.6875q-0.546875 -0.578125 -1.328125 -0.578125q-0.84375 0 -1.390625 0.609375q-0.546875 0.609375 -0.53125 1.65625l3.828125 0zm3.5007172 -4.0l1.421875 0l0 -0.73439026q0 -1.21875 0.25 -1.8125q0.265625 -0.609375 0.953125 -0.984375q0.703125 -0.375 1.78125 -0.375q1.09375 0 2.140625 0.328125l-0.359375 1.78125q-0.609375 -0.140625 -1.171875 -0.140625q-0.546875 0 -0.796875 0.265625q-0.234375 0.25 -0.234375 0.984375l0 0.68751526l1.90625 0l0 2.015625l-1.90625 0l0 7.65625l-2.5625 0l0 -7.65625l-1.421875 0l0 -2.015625zm9.790802 9.671875l-2.5625 0l0 -9.671875l2.375 0l0 1.375q0.609375 -0.984375 1.09375 -1.28125q0.484375 -0.3125 1.109375 -0.3125q0.875 0 1.6875 0.484375l-0.796875 2.234375q-0.640625 -0.421875 -1.203125 -0.421875q-0.53125 0 -0.90625 0.296875q-0.375 0.296875 -0.59375 1.078125q-0.203125 0.765625 -0.203125 3.234375l0 2.984375zm10.400894 -3.078125l2.546875 0.421875q-0.484375 1.40625 -1.546875 2.140625q-1.0625 0.734375 -2.65625 0.734375q-2.515625 0 -3.734375 -1.65625q-0.953125 -1.3125 -0.953125 -3.328125q0 -2.40625 1.25 -3.765625q1.265625 -1.359375 3.1875 -1.359375q2.15625 0 3.40625 1.421875q1.25 1.421875 1.1875 4.375l-6.40625 0q0.03125 1.140625 0.609375 1.78125q0.59375 0.625 1.484375 0.625q0.59375 0 1.0 -0.328125q0.421875 -0.328125 0.625 -1.0625zm0.15625 -2.59375q-0.03125 -1.109375 -0.578125 -1.6875q-0.546875 -0.578125 -1.328125 -0.578125q-0.84375 0 -1.390625 0.609375q-0.546875 0.609375 -0.53125 1.65625l3.828125 0zm4.6257324 -5.3125153l0 -2.375l2.5625 0l0 2.375l-2.5625 0zm0 10.98439l0 -9.671875l2.5625 0l0 9.671875l-2.5625 0z" fill-rule="nonzero"/>
    <path fill="#0000ff" d="m653.7191 240.94173l161.25989 0l0 36.661423l-161.25989 0z" fill-rule="evenodd"/>
    <path stroke="#000000" stroke-width="1.3333333333333333" stroke-linejoin="round" stroke-linecap="butt" d="m653.7191 240.94173l161.25989 0l0 36.661423l-161.25989 0z" fill-rule="evenodd"/>
    <path fill="#ffffff" d="m698.6058 266.19244l-3.0625 -9.671875l2.484375 0l1.8125 6.34375l1.671875 -6.34375l2.46875 0l1.609375 6.34375l1.859375 -6.34375l2.515625 0l-3.109375 9.671875l-2.453125 0l-1.671875 -6.21875l-1.640625 6.21875l-2.484375 0zm18.308289 -3.078125l2.546875 0.421875q-0.484375 1.40625 -1.546875 2.140625q-1.0625 0.734375 -2.65625 0.734375q-2.515625 0 -3.734375 -1.65625q-0.953125 -1.3125 -0.953125 -3.328125q0 -2.40625 1.25 -3.765625q1.265625 -1.359375 3.1875 -1.359375q2.15625 0 3.40625 1.421875q1.25 1.421875 1.1875 4.375l-6.40625 0q0.03125 1.140625 0.609375 1.78125q0.59375 0.625 1.484375 0.625q0.59375 0 1.0 -0.328125q0.421875 -0.328125 0.625 -1.0625zm0.15625 -2.59375q-0.03125 -1.109375 -0.578125 -1.6875q-0.546875 -0.578125 -1.328125 -0.578125q-0.84375 0 -1.390625 0.609375q-0.546875 0.609375 -0.53125 1.65625l3.828125 0zm7.0788574 5.671875l-2.5625 0l0 -9.671875l2.375 0l0 1.375q0.609375 -0.984375 1.09375 -1.28125q0.484375 -0.3125 1.109375 -0.3125q0.875 0 1.6875 0.484375l-0.796875 2.234375q-0.640625 -0.421875 -1.203125 -0.421875q-0.53125 0 -0.90625 0.296875q-0.375 0.296875 -0.59375 1.078125q-0.203125 0.765625 -0.203125 3.234375l0 2.984375zm9.244629 -9.671875l0 2.03125l-1.75 0l0 3.90625q0 1.1875 0.046875 1.390625q0.046875 0.1875 0.21875 0.3125q0.1875 0.125 0.4375 0.125q0.359375 0 1.03125 -0.25l0.21875 2.0q-0.890625 0.375 -2.015625 0.375q-0.703125 0 -1.265625 -0.234375q-0.546875 -0.234375 -0.8125 -0.59375q-0.25 -0.375 -0.34375 -1.0q-0.09375 -0.453125 -0.09375 -1.8125l0 -4.21875l-1.171875 0l0 -2.03125l1.171875 0l0 -1.9218903l2.578125 -1.5l0 3.4218903l1.75 0zm7.3689575 6.59375l2.546875 0.421875q-0.484375 1.40625 -1.546875 2.140625q-1.0625 0.734375 -2.65625 0.734375q-2.515625 0 -3.734375 -1.65625q-0.953125 -1.3125 -0.953125 -3.328125q0 -2.40625 1.25 -3.765625q1.265625 -1.359375 3.1875 -1.359375q2.15625 0 3.40625 1.421875q1.25 1.421875 1.1875 4.375l-6.40625 0q0.03125 1.140625 0.609375 1.78125q0.59375 0.625 1.484375 0.625q0.59375 0 1.0 -0.328125q0.421875 -0.328125 0.625 -1.0625zm0.15625 -2.59375q-0.03125 -1.109375 -0.578125 -1.6875q-0.546875 -0.578125 -1.328125 -0.578125q-0.84375 0 -1.390625 0.609375q-0.546875 0.609375 -0.53125 1.65625l3.828125 0zm3.5007324 -4.0l1.421875 0l0 -0.73439026q0 -1.21875 0.25 -1.8125q0.265625 -0.609375 0.953125 -0.984375q0.703125 -0.375 1.78125 -0.375q1.09375 0 2.140625 0.328125l-0.359375 1.78125q-0.609375 -0.140625 -1.171875 -0.140625q-0.546875 0 -0.796875 0.265625q-0.234375 0.25 -0.234375 0.984375l0 0.68751526l1.90625 0l0 2.015625l-1.90625 0l0 7.65625l-2.5625 0l0 -7.65625l-1.421875 0l0 -2.015625zm9.7907715 9.671875l-2.5625 0l0 -9.671875l2.375 0l0 1.375q0.609375 -0.984375 1.09375 -1.28125q0.484375 -0.3125 1.109375 -0.3125q0.875 0 1.6875 0.484375l-0.796875 2.234375q-0.640625 -0.421875 -1.203125 -0.421875q-0.53125 0 -0.90625 0.296875q-0.375 0.296875 -0.59375 1.078125q-0.203125 0.765625 -0.203125 3.234375l0 2.984375zm10.400879 -3.078125l2.546875 0.421875q-0.484375 1.40625 -1.546875 2.140625q-1.0625 0.734375 -2.65625 0.734375q-2.515625 0 -3.734375 -1.65625q-0.953125 -1.3125 -0.953125 -3.328125q0 -2.40625 1.25 -3.765625q1.265625 -1.359375 3.1875 -1.359375q2.15625 0 3.40625 1.421875q1.25 1.421875 1.1875 4.375l-6.40625 0q0.03125 1.140625 0.609375 1.78125q0.59375 0.625 1.484375 0.625q0.59375 0 1.0 -0.328125q0.421875 -0.328125 0.625 -1.0625zm0.15625 -2.59375q-0.03125 -1.109375 -0.578125 -1.6875q-0.546875 -0.578125 -1.328125 -0.578125q-0.84375 0 -1.390625 0.609375q-0.546875 0.609375 -0.53125 1.65625l3.828125 0zm4.6257324 -5.3125153l0 -2.375l2.5625 0l0 2.375l-2.5625 0zm0 10.98439l0 -9.671875l2.5625 0l0 9.671875l-2.5625 0z" fill-rule="nonzero"/>
    <path fill="#000000" fill-opacity="0.0" d="m647.36743 417.51968l265.2599 0l0 36.661407l-265.2599 0z" fill-rule="evenodd"/>
    <path fill="#ff0000" d="m657.6018 444.4397l0 -9.671875l1.46875 0l0 1.375q1.0625 -1.59375 3.078125 -1.59375q0.875 0 1.609375 0.3125q0.734375 0.3125 1.09375 0.828125q0.375 0.5 0.515625 1.203125q0.09375 0.453125 0.09375 1.59375l0 5.953125l-1.640625 0l0 -5.890625q0 -1.0 -0.203125 -1.484375q-0.1875 -0.5 -0.671875 -0.796875q-0.484375 -0.296875 -1.140625 -0.296875q-1.046875 0 -1.8125 0.671875q-0.75 0.65625 -0.75 2.515625l0 5.28125l-1.640625 0zm10.375732 -11.46875l0 -1.890625l1.640625 0l0 1.890625l-1.640625 0zm0 11.46875l0 -9.671875l1.640625 0l0 9.671875l-1.640625 0zm10.457336 -3.546875l1.609375 0.21875q-0.265625 1.65625 -1.359375 2.609375q-1.078125 0.9375 -2.671875 0.9375q-1.984375 0 -3.1875 -1.296875q-1.203125 -1.296875 -1.203125 -3.71875q0 -1.578125 0.515625 -2.75q0.515625 -1.171875 1.578125 -1.75q1.0625 -0.59375 2.3125 -0.59375q1.578125 0 2.578125 0.796875q1.0 0.796875 1.28125 2.265625l-1.59375 0.234375q-0.234375 -0.96875 -0.8125 -1.453125q-0.578125 -0.5 -1.390625 -0.5q-1.234375 0 -2.015625 0.890625q-0.78125 0.890625 -0.78125 2.8125q0 1.953125 0.75 2.84375q0.75 0.875 1.953125 0.875q0.96875 0 1.609375 -0.59375q0.65625 -0.59375 0.828125 -1.828125zm3.015625 3.546875l0 -13.359375l1.640625 0l0 4.796875q1.140625 -1.328125 2.890625 -1.328125q1.078125 0 1.859375 0.421875q0.796875 0.421875 1.140625 1.171875q0.34375 0.75 0.34375 2.171875l0 6.125l-1.640625 0l0 -6.125q0 -1.234375 -0.53125 -1.796875q-0.53125 -0.5625 -1.515625 -0.5625q-0.71875 0 -1.359375 0.390625q-0.640625 0.375 -0.921875 1.015625q-0.265625 0.640625 -0.265625 1.78125l0 5.296875l-1.640625 0zm13.953857 -1.46875l0.234375 1.453125q-0.6875 0.140625 -1.234375 0.140625q-0.890625 0 -1.390625 -0.28125q-0.484375 -0.28125 -0.6875 -0.734375q-0.203125 -0.46875 -0.203125 -1.9375l0 -5.578125l-1.203125 0l0 -1.265625l1.203125 0l0 -2.390625l1.625 -0.984375l0 3.375l1.65625 0l0 1.265625l-1.65625 0l0 5.671875q0 0.6875 0.078125 0.890625q0.09375 0.203125 0.28125 0.328125q0.203125 0.109375 0.578125 0.109375q0.265625 0 0.71875 -0.0625zm8.569702 1.46875l-2.96875 -9.671875l1.703125 0l1.53125 5.578125l0.578125 2.078125q0.046875 -0.15625 0.5 -2.0l1.546875 -5.65625l1.6875 0l1.4375 5.609375l0.484375 1.84375l0.5625 -1.859375l1.65625 -5.59375l1.59375 0l-3.03125 9.671875l-1.703125 0l-1.53125 -5.796875l-0.375 -1.640625l-1.953125 7.4375l-1.71875 0zm11.691711 -11.46875l0 -1.890625l1.640625 0l0 1.890625l-1.640625 0zm0 11.46875l0 -9.671875l1.640625 0l0 9.671875l-1.640625 0zm3.4885864 -2.890625l1.625 -0.25q0.125 0.96875 0.75 1.5q0.625 0.515625 1.75 0.515625q1.125 0 1.671875 -0.453125q0.546875 -0.46875 0.546875 -1.09375q0 -0.546875 -0.484375 -0.875q-0.328125 -0.21875 -1.671875 -0.546875q-1.8125 -0.46875 -2.515625 -0.796875q-0.6875 -0.328125 -1.046875 -0.90625q-0.359375 -0.59375 -0.359375 -1.3125q0 -0.640625 0.296875 -1.1875q0.296875 -0.5625 0.8125 -0.921875q0.375 -0.28125 1.03125 -0.46875q0.671875 -0.203125 1.421875 -0.203125q1.140625 0 2.0 0.328125q0.859375 0.328125 1.265625 0.890625q0.421875 0.5625 0.578125 1.5l-1.609375 0.21875q-0.109375 -0.75 -0.640625 -1.171875q-0.515625 -0.421875 -1.46875 -0.421875q-1.140625 0 -1.625 0.375q-0.46875 0.375 -0.46875 0.875q0 0.3125 0.1875 0.578125q0.203125 0.265625 0.640625 0.4375q0.234375 0.09375 1.4375 0.421875q1.75 0.453125 2.4375 0.75q0.6875 0.296875 1.078125 0.859375q0.390625 0.5625 0.390625 1.40625q0 0.828125 -0.484375 1.546875q-0.46875 0.71875 -1.375 1.125q-0.90625 0.390625 -2.046875 0.390625q-1.875 0 -2.875 -0.78125q-0.984375 -0.78125 -1.25 -2.328125zm9.328125 0l1.625 -0.25q0.125 0.96875 0.75 1.5q0.625 0.515625 1.75 0.515625q1.125 0 1.671875 -0.453125q0.546875 -0.46875 0.546875 -1.09375q0 -0.546875 -0.484375 -0.875q-0.328125 -0.21875 -1.671875 -0.546875q-1.8125 -0.46875 -2.515625 -0.796875q-0.6875 -0.328125 -1.046875 -0.90625q-0.359375 -0.59375 -0.359375 -1.3125q0 -0.640625 0.296875 -1.1875q0.296875 -0.5625 0.8125 -0.921875q0.375 -0.28125 1.03125 -0.46875q0.671875 -0.203125 1.421875 -0.203125q1.140625 0 2.0 0.328125q0.859375 0.328125 1.265625 0.890625q0.421875 0.5625 0.578125 1.5l-1.609375 0.21875q-0.109375 -0.75 -0.640625 -1.171875q-0.515625 -0.421875 -1.46875 -0.421875q-1.140625 0 -1.625 0.375q-0.46875 0.375 -0.46875 0.875q0 0.3125 0.1875 0.578125q0.203125 0.265625 0.640625 0.4375q0.234375 0.09375 1.4375 0.421875q1.75 0.453125 2.4375 0.75q0.6875 0.296875 1.078125 0.859375q0.390625 0.5625 0.390625 1.40625q0 0.828125 -0.484375 1.546875q-0.46875 0.71875 -1.375 1.125q-0.90625 0.390625 -2.046875 0.390625q-1.875 0 -2.875 -0.78125q-0.984375 -0.78125 -1.25 -2.328125zm16.609375 -0.21875l1.6875 0.203125q-0.40625 1.484375 -1.484375 2.3125q-1.078125 0.8125 -2.765625 0.8125q-2.125 0 -3.375 -1.296875q-1.234375 -1.3125 -1.234375 -3.671875q0 -2.453125 1.25 -3.796875q1.265625 -1.34375 3.265625 -1.34375q1.9375 0 3.15625 1.328125q1.234375 1.3125 1.234375 3.703125q0 0.15625 0 0.4375l-7.21875 0q0.09375 1.59375 0.90625 2.453125q0.8125 0.84375 2.015625 0.84375q0.90625 0 1.546875 -0.46875q0.640625 -0.484375 1.015625 -1.515625zm-5.390625 -2.65625l5.40625 0q-0.109375 -1.21875 -0.625 -1.828125q-0.78125 -0.953125 -2.03125 -0.953125q-1.125 0 -1.90625 0.765625q-0.765625 0.75 -0.84375 2.015625zm9.141296 5.765625l0 -9.671875l1.46875 0l0 1.375q1.0625 -1.59375 3.078125 -1.59375q0.875 0 1.609375 0.3125q0.734375 0.3125 1.09375 0.828125q0.375 0.5 0.515625 1.203125q0.09375 0.453125 0.09375 1.59375l0 5.953125l-1.640625 0l0 -5.890625q0 -1.0 -0.203125 -1.484375q-0.1875 -0.5 -0.671875 -0.796875q-0.484375 -0.296875 -1.140625 -0.296875q-1.046875 0 -1.8125 0.671875q-0.75 0.65625 -0.75 2.515625l0 5.28125l-1.640625 0zm9.719482 -2.890625l1.625 -0.25q0.125 0.96875 0.75 1.5q0.625 0.515625 1.75 0.515625q1.125 0 1.671875 -0.453125q0.546875 -0.46875 0.546875 -1.09375q0 -0.546875 -0.484375 -0.875q-0.328125 -0.21875 -1.671875 -0.546875q-1.8125 -0.46875 -2.515625 -0.796875q-0.6875 -0.328125 -1.046875 -0.90625q-0.359375 -0.59375 -0.359375 -1.3125q0 -0.640625 0.296875 -1.1875q0.296875 -0.5625 0.8125 -0.921875q0.375 -0.28125 1.03125 -0.46875q0.671875 -0.203125 1.421875 -0.203125q1.140625 0 2.0 0.328125q0.859375 0.328125 1.265625 0.890625q0.421875 0.5625 0.578125 1.5l-1.609375 0.21875q-0.109375 -0.75 -0.640625 -1.171875q-0.515625 -0.421875 -1.46875 -0.421875q-1.140625 0 -1.625 0.375q-0.46875 0.375 -0.46875 0.875q0 0.3125 0.1875 0.578125q0.203125 0.265625 0.640625 0.4375q0.234375 0.09375 1.4375 0.421875q1.75 0.453125 2.4375 0.75q0.6875 0.296875 1.078125 0.859375q0.390625 0.5625 0.390625 1.40625q0 0.828125 -0.484375 1.546875q-0.46875 0.71875 -1.375 1.125q-0.90625 0.390625 -2.046875 0.390625q-1.875 0 -2.875 -0.78125q-0.984375 -0.78125 -1.25 -2.328125zm16.296875 -0.65625l1.609375 0.21875q-0.265625 1.65625 -1.359375 2.609375q-1.078125 0.9375 -2.671875 0.9375q-1.984375 0 -3.1875 -1.296875q-1.203125 -1.296875 -1.203125 -3.71875q0 -1.578125 0.515625 -2.75q0.515625 -1.171875 1.578125 -1.75q1.0625 -0.59375 2.3125 -0.59375q1.578125 0 2.578125 0.796875q1.0 0.796875 1.28125 2.265625l-1.59375 0.234375q-0.234375 -0.96875 -0.8125 -1.453125q-0.578125 -0.5 -1.390625 -0.5q-1.234375 0 -2.015625 0.890625q-0.78125 0.890625 -0.78125 2.8125q0 1.953125 0.75 2.84375q0.75 0.875 1.953125 0.875q0.96875 0 1.609375 -0.59375q0.65625 -0.59375 0.828125 -1.828125zm3.015625 3.546875l0 -13.359375l1.640625 0l0 4.796875q1.140625 -1.328125 2.890625 -1.328125q1.078125 0 1.859375 0.421875q0.796875 0.421875 1.140625 1.171875q0.34375 0.75 0.34375 2.171875l0 6.125l-1.640625 0l0 -6.125q0 -1.234375 -0.53125 -1.796875q-0.53125 -0.5625 -1.515625 -0.5625q-0.71875 0 -1.359375 0.390625q-0.640625 0.375 -0.921875 1.015625q-0.265625 0.640625 -0.265625 1.78125l0 5.296875l-1.640625 0zm16.688232 -1.1875q-0.921875 0.765625 -1.765625 1.09375q-0.828125 0.3125 -1.796875 0.3125q-1.59375 0 -2.453125 -0.78125q-0.859375 -0.78125 -0.859375 -1.984375q0 -0.71875 0.328125 -1.296875q0.328125 -0.59375 0.84375 -0.9375q0.53125 -0.359375 1.1875 -0.546875q0.46875 -0.125 1.453125 -0.25q1.984375 -0.234375 2.921875 -0.5625q0.015625 -0.34375 0.015625 -0.421875q0 -1.0 -0.46875 -1.421875q-0.625 -0.546875 -1.875 -0.546875q-1.15625 0 -1.703125 0.40625q-0.546875 0.40625 -0.8125 1.421875l-1.609375 -0.21875q0.21875 -1.015625 0.71875 -1.640625q0.5 -0.640625 1.453125 -0.984375q0.953125 -0.34375 2.1875 -0.34375q1.25 0 2.015625 0.296875q0.78125 0.28125 1.140625 0.734375q0.375 0.4375 0.515625 1.109375q0.078125 0.421875 0.078125 1.515625l0 2.1875q0 2.28125 0.109375 2.890625q0.109375 0.59375 0.40625 1.15625l-1.703125 0q-0.265625 -0.515625 -0.328125 -1.1875zm-0.140625 -3.671875q-0.890625 0.375 -2.671875 0.625q-1.015625 0.140625 -1.4375 0.328125q-0.421875 0.1875 -0.65625 0.53125q-0.21875 0.34375 -0.21875 0.78125q0 0.65625 0.5 1.09375q0.5 0.4375 1.453125 0.4375q0.9375 0 1.671875 -0.40625q0.75 -0.421875 1.09375 -1.140625q0.265625 -0.5625 0.265625 -1.640625l0 -0.609375zm4.5944824 4.859375l0 -8.40625l-1.453125 0l0 -1.265625l1.453125 0l0 -1.03125q0 -0.96875 0.171875 -1.453125q0.234375 -0.640625 0.828125 -1.03125q0.59375 -0.390625 1.671875 -0.390625q0.6875 0 1.53125 0.15625l-0.25 1.4375q-0.5 -0.09375 -0.953125 -0.09375q-0.75 0 -1.0625 0.328125q-0.3125 0.3125 -0.3125 1.1875l0 0.890625l1.890625 0l0 1.265625l-1.890625 0l0 8.40625l-1.625 0zm8.370789 -1.46875l0.234375 1.453125q-0.6875 0.140625 -1.234375 0.140625q-0.890625 0 -1.390625 -0.28125q-0.484375 -0.28125 -0.6875 -0.734375q-0.203125 -0.46875 -0.203125 -1.9375l0 -5.578125l-1.203125 0l0 -1.265625l1.203125 0l0 -2.390625l1.625 -0.984375l0 3.375l1.65625 0l0 1.265625l-1.65625 0l0 5.671875q0 0.6875 0.078125 0.890625q0.09375 0.203125 0.28125 0.328125q0.203125 0.109375 0.578125 0.109375q0.265625 0 0.71875 -0.0625zm1.5582886 1.46875l0 -13.359375l1.640625 0l0 13.359375l-1.640625 0zm4.1917114 -11.46875l0 -1.890625l1.640625 0l0 1.890625l-1.640625 0zm0 11.46875l0 -9.671875l1.640625 0l0 9.671875l-1.640625 0zm10.457336 -3.546875l1.609375 0.21875q-0.265625 1.65625 -1.359375 2.609375q-1.078125 0.9375 -2.671875 0.9375q-1.984375 0 -3.1875 -1.296875q-1.203125 -1.296875 -1.203125 -3.71875q0 -1.578125 0.515625 -2.75q0.515625 -1.171875 1.578125 -1.75q1.0625 -0.59375 2.3125 -0.59375q1.578125 0 2.578125 0.796875q1.0 0.796875 1.28125 2.265625l-1.59375 0.234375q-0.234375 -0.96875 -0.8125 -1.453125q-0.578125 -0.5 -1.390625 -0.5q-1.234375 0 -2.015625 0.890625q-0.78125 0.890625 -0.78125 2.8125q0 1.953125 0.75 2.84375q0.75 0.875 1.953125 0.875q0.96875 0 1.609375 -0.59375q0.65625 -0.59375 0.828125 -1.828125zm3.015625 3.546875l0 -13.359375l1.640625 0l0 4.796875q1.140625 -1.328125 2.890625 -1.328125q1.078125 0 1.859375 0.421875q0.796875 0.421875 1.140625 1.171875q0.34375 0.75 0.34375 2.171875l0 6.125l-1.640625 0l0 -6.125q0 -1.234375 -0.53125 -1.796875q-0.53125 -0.5625 -1.515625 -0.5625q-0.71875 0 -1.359375 0.390625q-0.640625 0.375 -0.921875 1.015625q-0.265625 0.640625 -0.265625 1.78125l0 5.296875l-1.640625 0z" fill-rule="nonzero"/>
    <path fill="#000000" fill-opacity="0.0" d="m647.36743 435.8504l-123.84247 -25.763794" fill-rule="evenodd"/>
    <path stroke="#ff0000" stroke-width="1.0" stroke-linejoin="round" stroke-linecap="butt" stroke-dasharray="4.0,3.0" d="m647.36743 435.8504l-117.96826 -24.541718" fill-rule="evenodd"/>
    <path fill="#ff0000" stroke="#ff0000" stroke-width="1.0" stroke-linecap="butt" d="m529.7356 409.69156l-4.779419 0.69281006l4.1065674 2.5414124z" fill-rule="evenodd"/>
  </g>
</svg>