<?xml version="1.0" encoding="utf-8"?>
<svg enable-background="new 0 0 64 64" height="64px" version="1.1" viewBox="0 0 64 64" width="64px" xmlns="http://www.w3.org/2000/svg" xmlns:bx="https://boxy-svg.com">
  <g id="Layer_1">
    <g>
      <circle cx="32" cy="32" r="32" fill="#E0995E"/>
    </g>
    <g transform="matrix(1, 0, 0, 1, 1.15315, -1.48263)"/>
    <g transform="matrix(1, 0, 0, 1, -3.42857, 14.9601)"/>
    <g transform="matrix(0.39666, 0, 0, 0.28546, 2.91563, 23.19475)">
      <path d="M48,16v8v24H16V24v-8H48 M48,12H16c-2.209,0-4,1.791-4,4v8v24c0,2.209,1.791,4,4,4h32c2.209,0,4-1.791,4-4    V24v-8C52,13.791,50.209,12,48,12L48,12z" style="fill: rgb(255, 255, 255);"/>
    </g>
    <rect x="9" y="28" width="13" height="9" style="fill: rgb(214, 219, 62);" bx:origin="0.615385 0.5"/>
    <g transform="matrix(0.39666, 0, 0, 0.28546, 19.38924, 3.75588)">
      <path d="M48,16v8v24H16V24v-8H48 M48,12H16c-2.209,0-4,1.791-4,4v8v24c0,2.209,1.791,4,4,4h32c2.209,0,4-1.791,4-4    V24v-8C52,13.791,50.209,12,48,12L48,12z" style="fill: rgb(255, 255, 255);"/>
    </g>
    <rect x="25" y="8" width="14" height="10" style="fill: rgb(63, 216, 209);" bx:origin="0.615385 0.5"/>
    <g transform="matrix(0.39666, 0, 0, 0.28546, 35.94523, 23.35949)">
      <path d="M48,16v8v24H16V24v-8H48 M48,12H16c-2.209,0-4,1.791-4,4v8v24c0,2.209,1.791,4,4,4h32c2.209,0,4-1.791,4-4    V24v-8C52,13.791,50.209,12,48,12L48,12z" style="fill: rgb(255, 255, 255);"/>
    </g>
    <rect x="42" y="28" width="13" height="9" style="fill: rgb(216, 63, 63);" bx:origin="0.615385 0.5"/>
    <path d="M 28 62 C 28 61 29 59 29 57 L 30 52 C 30 51 30 50 29 49 C 29 49 28 48 27 47 C 27 47 27 47 26 46 C 25 45 23 41 25 40 C 25 40 25 40 26 40 C 27 40 28 41 29 42 C 30 43 30 45 30 45 C 31 44 30 33 30 29 C 30 27 30 26 30 24 C 30 24 30 23 31 23 C 31 23 32 23 33 24 C 35 27 35 31 35 34 C 35 35 35 39 35 40 L 35 41 C 35 41 35 39 37 39 C 39 39 39 41 39 42 C 39 42 39 42 39 43 C 39 43 40 41 42 41 C 44 42 43 45 43 45 C 43 45 44 43 45 44 C 46 45 46 46 46 46 C 44 48 43 48 42 49 C 40 50 39 51 38 53 C 38 53 37 56 37 57 L 36 62" style="stroke: rgb(0, 0, 0); fill: rgb(182, 182, 181);"/>
  </g>
  <circle cx="40" cy="23" r="6" style="fill: rgb(129, 230, 61);"/>
  <g id="Layer_2"/>
  <circle cx="23" cy="27" r="6" style="fill: rgb(219, 60, 60);"/>
</svg>