<?xml version="1.0" encoding="utf-8"?>
<svg enable-background="new 0 0 64 64" height="64px" version="1.1" viewBox="0 0 64 64" width="64px" xmlns="http://www.w3.org/2000/svg">
  <g id="Layer_1">
    <g>
      <circle cx="32" cy="32" fill="#E0995E" r="32"/>
    </g>
    <g opacity="0.2">
      <g>
        <polygon fill="#231F20" points="48,26 48,18 16,18 16,26 16,50 48,50    "/>
      </g>
      <g>
        <path d="M48,14H16c-2.209,0-4,1.791-4,4v8v24c0,2.209,1.791,4,4,4h32c2.209,0,4-1.791,4-4V26v-8     C52,15.791,50.209,14,48,14z" fill="#231F20"/>
      </g>
    </g>
    <g>
      <g>
        <path d="M16,50c-1.103,0-2-0.897-2-2V16c0-1.103,0.897-2,2-2h32c1.103,0,2,0.897,2,2v32c0,1.103-0.897,2-2,2H16z" fill="#77B3D4"/>
      </g>
      <g>
        <path d="M48,16v8v24H16V24v-8H48 M48,12H16c-2.209,0-4,1.791-4,4v8v24c0,2.209,1.791,4,4,4h32     c2.209,0,4-1.791,4-4V24v-8C52,13.791,50.209,12,48,12L48,12z" fill="#FFFFFF"/>
      </g>
    </g>
    <g>
      <rect fill="#FFFFFF" height="4" width="32" x="16" y="44"/>
    </g>
    <g>
      <g>
        <path d="M13.99,44h34.896v-2.921c0,0-1.706-2.977-3.286-4.843c-1.176-1.388-2.932-1.78-4.464-0.076l-2.752,2.643     l-5.999-7.629c-2.234-2.841-5.89-2.841-8.124,0L13.99,44z" fill="#4F5D73"/>
      </g>
    </g>
    <g transform="matrix(1, 0, 0, 1, 1.15315, -1.48263)">
      <circle cx="40" cy="24" fill="#F5CF87" r="3"/>
    </g>
    <g>
      <path d="M48,16v8v24H16V24v-8H48 M48,12H16c-2.209,0-4,1.791-4,4v8v24c0,2.209,1.791,4,4,4h32c2.209,0,4-1.791,4-4    V24v-8C52,13.791,50.209,12,48,12L48,12z" fill="#FFFFFF"/>
    </g>
    <g transform="matrix(1, 0, 0, 1, -3.42857, 14.9601)">
      <circle cx="40" cy="24" fill="#F5CF87" r="3"/>
    </g>
  </g>
  <g id="Layer_2"/>
  <g transform="matrix(0.63264, 0, 0, 0.73729, 15.54493, 26.46074)">
    <path d="M48,50.5c-0.64,0-1.28-0.244-1.768-0.732l-12-12c-0.977-0.977-0.977-2.559,0-3.535    c0.976-0.977,2.56-0.977,3.535,0l12,12c0.977,0.977,0.977,2.559,0,3.535C49.28,50.256,48.64,50.5,48,50.5z" fill="#4F5D73"/>
  </g>
  <g transform="matrix(0.80709, 0, 0, 0.8374, 8.54577, 20.07433)">
    <ellipse cx="28.386" cy="28.386" fill="#77B3D4" rx="10.567" ry="10.567" transform="matrix(0.7071 -0.7071 0.7071 0.7071 -11.7579 28.386)"/>
  </g>
  <g transform="matrix(0.75516, 0, 0, 0.79362, 9.99011, 21.89376)">
    <path d="M28.386,17.819c2.704,0,5.409,1.032,7.472,3.095c4.127,4.127,4.127,10.817,0,14.944    c-2.063,2.063-4.768,3.095-7.472,3.095s-5.409-1.032-7.472-3.095c-4.127-4.127-4.127-10.817,0-14.944    C22.977,18.851,25.682,17.819,28.386,17.819 M28.386,13.819c-3.891,0-7.549,1.515-10.3,4.267c-5.68,5.68-5.68,14.921,0,20.601    c2.751,2.751,6.409,4.267,10.3,4.267s7.549-1.515,10.3-4.267c5.68-5.68,5.68-14.921,0-20.601    C35.935,15.334,32.277,13.819,28.386,13.819L28.386,13.819z" fill="#FFFFFF"/>
  </g>
</svg>