<svg id="svg" version="1.1" xmlns="http://www.w3.org/2000/svg" xmlns:xlink="http://www.w3.org/1999/xlink" width="400" height="300" viewBox="0, 0, 400,300">
    <filter id="dropshadow" height="130%">
        <feGaussianBlur in="SourceAlpha" stdDeviation="3"/> <!-- stdDeviation is how much to blur -->
        <feOffset dx="8" dy="8" result="offsetblur"/> <!-- how much to offset -->
        <feComponentTransfer>
            <feFuncA type="linear" slope="0.5"/> <!-- slope is the opacity of the shadow -->
        </feComponentTransfer>
        <feMerge>
            <feMergeNode/> <!-- this contains the offset blurred image -->
            <feMergeNode in="SourceGraphic"/> <!-- this contains the element that the filter is applied to -->
        </feMerge>
    </filter>
    <g id="svgg">
    <path id="path0"
          d="M185.208 11.920 C 160.692 15.551,142.921 33.199,139.914 56.901 C 139.187 62.626,137.671 62.083,154.383 62.083 C 170.002 62.083,169.919 62.072,172.161 64.442 C 175.292 67.751,174.595 73.184,170.710 75.757 L 169.021 76.875 154.302 77.008 L 139.583 77.140 139.583 87.112 L 139.583 97.083 153.975 97.083 C 167.522 97.083,168.462 97.132,169.992 97.913 C 175.834 100.893,175.338 109.566,169.209 111.611 C 168.264 111.926,163.090 112.083,153.680 112.083 L 139.568 112.083 139.680 121.563 L 139.792 131.042 154.583 131.250 C 170.252 131.471,170.118 131.453,172.161 133.610 C 175.297 136.921,174.641 142.321,170.793 144.868 L 169.021 146.042 154.302 146.170 L 139.583 146.299 139.585 148.670 C 139.597 170.795,159.241 192.965,182.174 196.737 C 212.453 201.718,242.500 177.799,242.500 148.716 L 242.500 146.291 228.438 146.166 L 214.375 146.042 212.488 144.932 C 208.335 142.491,207.605 136.991,210.957 133.405 C 212.748 131.489,212.923 131.467,227.917 131.250 L 242.292 131.042 242.404 121.563 L 242.516 112.083 228.654 112.074 C 216.061 112.066,214.636 111.994,213.092 111.293 C 207.471 108.740,207.427 100.675,213.021 97.967 C 214.769 97.121,215.435 97.083,228.673 97.083 L 242.500 97.083 242.500 87.109 L 242.500 77.134 228.438 77.004 C 212.953 76.862,212.957 76.863,210.686 74.163 C 207.784 70.715,208.447 65.959,212.217 63.163 C 213.343 62.329,214.005 62.283,227.842 62.083 L 242.292 61.875 242.258 58.958 C 241.953 32.197,212.464 7.883,185.208 11.920 M105.168 115.450 C 103.338 115.981,100.018 119.040,99.116 121.026 C 98.078 123.310,97.961 150.320,98.955 157.943 C 104.297 198.895,136.172 231.388,177.083 237.588 L 180.625 238.125 180.737 248.512 C 180.823 256.545,180.728 258.976,180.320 259.235 C 180.029 259.420,170.176 259.573,158.424 259.577 C 134.877 259.584,135.373 259.534,132.553 262.209 C 127.041 267.438,128.589 276.015,135.625 279.222 C 137.210 279.944,139.926 279.982,191.064 279.991 L 244.836 280.000 246.992 278.926 C 253.296 275.784,254.844 268.253,250.255 263.041 C 247.115 259.473,248.115 259.603,223.697 259.592 C 205.967 259.585,202.102 259.483,201.710 259.011 C 201.376 258.608,201.268 255.424,201.347 248.282 L 201.458 238.125 204.792 237.618 C 245.931 231.364,277.420 199.420,283.121 158.157 C 284.124 150.897,284.012 123.323,282.970 121.042 C 279.281 112.965,267.901 113.091,264.202 121.250 C 263.409 122.999,263.351 123.950,263.339 135.417 C 263.312 161.796,260.187 173.740,249.576 188.032 C 218.468 229.930,157.468 227.699,129.446 183.639 C 121.187 170.653,118.774 159.724,118.753 135.208 C 118.742 123.405,118.719 123.076,117.761 121.018 C 115.537 116.242,110.347 113.947,105.168 115.450 "
          stroke="none" fill="#009EE0" fill-rule="evenodd" style="filter:url(#dropshadow)"/></g></svg>
