<?xml version="1.0" encoding="utf-8"?>
<svg width="125" viewBox="0 0 180 180" xmlns="http://www.w3.org/2000/svg">
  <defs>
    <style>
            .cls-1 {
            fill: none;
            }

            .cls-2 {
            fill: #119dff;
            }

            .cls-3 {
            fill: #506784;
            }

            .cls-4 {
            fill: #25fefd;
            }

            .cls-5 {
            fill: #fff;
            }
        </style>
  </defs>
  <title>plotly-logo-stripe-01</title>
  <g id="background">
    <rect class="cls-1" x="0.55" width="459.45" height="180"/>
    <rect class="cls-2" x="24" y="24" width="132" height="132" rx="6" ry="6"/>
  </g>
  <g id="symbol">
    <circle class="cls-4" cx="102" cy="78" r="6"/>
    <circle class="cls-4" cx="126" cy="54" r="6"/>
    <circle class="cls-4" cx="102" cy="54" r="6"/>
    <circle class="cls-4" cx="78" cy="54" r="6"/>
    <circle class="cls-4" cx="54" cy="54" r="6"/>
    <circle class="cls-4" cx="54" cy="78" r="6"/>
    <path class="cls-5" d="M54,96a6,6,0,0,0-6,6v24a6,6,0,0,0,12,0V102A6,6,0,0,0,54,96Z"/>
    <path class="cls-5" d="M102,96a6,6,0,0,0-6,6v24a6,6,0,0,0,12,0V102A6,6,0,0,0,102,96Z"/>
    <path class="cls-5" d="M78,72a6,6,0,0,0-6,6v48a6,6,0,0,0,12,0V78A6,6,0,0,0,78,72Z"/>
    <path class="cls-5" d="M126,72a6,6,0,0,0-6,6v48a6,6,0,0,0,12,0V78A6,6,0,0,0,126,72Z"/>
  </g>
</svg>