<?xml version="1.0" encoding="utf-8"?>
<svg version="1.1" viewBox="0 0 64 64" xmlns="http://www.w3.org/2000/svg" xmlns:bx="https://boxy-svg.com">
  <defs>
    <pattern id="pattern-0" x="0" y="0" width="25" height="25" patternUnits="userSpaceOnUse" viewBox="0 0 100 100">
      <rect x="0" y="0" width="50" height="100" style="fill: black;"/>
    </pattern>
  </defs>
  <g id="Layer_1">
    <g>
      <circle cx="32" cy="32" fill="#E0995E" r="32"/>
    </g>
  </g>
  <g id="Layer_2"/>
  <rect x="7.44" y="13.35" width="11.17" height="10.75" style="fill: rgb(216, 216, 216); stroke-miterlimit: 8; stroke-dashoffset: 1px; stroke-linejoin: round; stroke: rgb(0, 0, 0);"/>
  <rect x="18.79" y="25.01" width="11.72" height="10.75" style="fill: rgb(216, 216, 216); stroke-miterlimit: 8; stroke-dashoffset: 1px; stroke-linejoin: round; stroke: rgb(0, 0, 0);"/>
  <rect x="7.36" y="36.34" width="11.17" height="10.75" style="fill: rgb(216, 216, 216); stroke-miterlimit: 8; stroke-dashoffset: 1px; stroke-linejoin: round; stroke: rgb(0, 0, 0);"/>
  <rect x="18.76" y="13.36" width="37.26" height="10.75" style="fill: rgb(216, 216, 216); stroke-miterlimit: 8; stroke-dashoffset: 1px; stroke-linejoin: round; stroke: rgb(0, 0, 0);"/>
  <rect x="30.55" y="24.96" width="25.37" height="10.75" style="fill: rgb(216, 216, 216); stroke-miterlimit: 8; stroke-dashoffset: 1px; stroke-linejoin: round; stroke: rgb(0, 0, 0);"/>
  <rect x="18.69" y="36.26" width="37.26" height="10.75" style="fill: rgb(216, 216, 216); stroke-miterlimit: 8; stroke-dashoffset: 1px; stroke-linejoin: round; stroke: rgb(0, 0, 0);"/>
  <text style="fill: rgb(38, 0, 254); font-size: 9px; font-weight: 700; white-space: pre;" x="21.17" y="21.79">Tree</text>
  <text style="fill: rgb(38, 0, 254); font-family: &quot;Open Sans&quot;; font-size: 9px; font-weight: 700; letter-spacing: -0.5px; white-space: pre;" x="20.51" y="44.92">Content</text>
  <g>
    <rect x="12.31" y="14.56" width="0.95" height="7.83" style=""/>
    <rect x="12.31" y="14.56" width="0.95" height="7.83" style="" transform="matrix(0, 1, -1, 0, 31.26, 5.69)"/>
  </g>
  <rect x="12.31" y="14.56" width="0.95" height="7.83" style="" transform="matrix(0, 1, -1, 0, 43.18917, 17.54673)"/>
  <g transform="matrix(1, 0, 0, 1, -0.12225, 23.18338)">
    <rect x="12.31" y="14.56" width="0.95" height="7.83" style=""/>
    <rect x="12.31" y="14.56" width="0.95" height="7.83" style="" transform="matrix(0, 1, -1, 0, 31.26, 5.69)"/>
  </g>
</svg>