<?xml version="1.0" encoding="utf-8"?>
<svg viewBox="0 -256 1792 1792" id="svg3888" version="1.1" width="100%" height="100%" xmlns="http://www.w3.org/2000/svg">
  <g transform="matrix(1.17188, 0, 0, -1.06869, -0.00769, 1341.50793)" id="g3890" style="">
    <path d="M 256 277.54 C 256 294.87 249.67 309.87 237 322.54 C 224.33 335.21 209.33 341.54 192 341.54 C 174.67 341.54 159.67 335.21 147 322.54 C 134.33 309.87 128 294.87 128 277.54 C 128 260.21 134.33 245.21 147 232.54 C 159.67 219.87 174.67 213.54 192 213.54 C 209.33 213.54 224.33 219.87 237 232.54 C 249.67 245.21 256 260.21 256 277.54 Z M 1408 853.54 C 1408 887.54 1395 917.37 1369 943.04 C 1343 968.71 1313.33 981.54 1280 981.54 L 928 981.54 C 928 1020.21 944 1073.37 976 1141.04 C 1008 1208.71 1024 1262.21 1024 1301.54 C 1024 1366.87 1020.5 1368.99 999.17 1400.32 C 977.84 1431.65 963.68 1434.4 899.68 1434.4 C 882.35 1417.07 840.21 1416.55 832.21 1377.22 C 824.21 1337.89 807.83 1327.37 795.5 1283.04 C 783.17 1238.71 763.33 1202.21 736 1173.54 C 721.33 1158.21 695.67 1127.87 659 1082.54 C 656.33 1079.21 648.67 1069.21 636 1052.54 C 623.33 1035.87 612.83 1022.21 604.5 1011.54 C 596.17 1000.87 584.67 986.71 570 969.04 C 555.33 951.37 542 936.71 530 925.04 C 518 913.37 505.17 901.54 491.5 889.54 C 477.83 877.54 464.5 868.54 451.5 862.54 C 438.5 856.54 426.67 853.54 416 853.54 L 384 853.54 L 384 213.54 L 416 213.54 C 424.67 213.54 435.17 212.54 447.5 210.54 C 459.83 208.54 470.83 206.37 480.5 204.04 C 490.17 201.71 502.83 198.04 518.5 193.04 C 534.17 188.04 545.83 184.21 553.5 181.54 C 561.17 178.87 573 174.71 589 169.04 C 605 163.37 614.67 159.87 618 158.54 C 758.67 109.87 872.67 85.54 960 85.54 L 1081 85.54 C 1209 85.54 1273 141.21 1273 252.54 C 1273 269.87 1271.33 288.54 1268 308.54 C 1288 319.21 1303.83 336.71 1315.5 361.04 C 1327.17 385.37 1333 409.87 1333 434.54 C 1333 459.21 1327 482.21 1315 503.54 C 1350.33 536.87 1368 576.54 1368 622.54 C 1368 639.21 1364.67 657.71 1358 678.04 C 1351.33 698.37 1343 714.21 1333 725.54 C 1354.33 726.21 1372.17 741.87 1386.5 772.54 C 1400.83 803.21 1408 830.21 1408 853.54 Z M 1536 854.54 C 1536 795.21 1519.67 740.87 1487 691.54 C 1493 669.54 1496 646.54 1496 622.54 C 1496 571.21 1483.33 523.21 1458 478.54 C 1460 464.54 1461 450.21 1461 435.54 C 1461 368.21 1441 308.87 1401 257.54 C 1401.67 164.87 1373.33 91.71 1316 38.04 C 1258.67 -15.63 1183 -42.46 1089 -42.46 L 1053 -42.46 L 960 -42.46 C 896 -42.46 832.83 -34.96 770.5 -19.96 C 708.17 -4.96 636 16.87 554 45.54 C 476.67 72.21 430.67 85.54 416 85.54 L 128 85.54 C 92.67 85.54 62.5 98.04 37.5 123.04 C 12.5 148.04 0 178.21 0 213.54 L 0 853.54 C 0 888.87 12.5 919.04 37.5 944.04 C 62.5 969.04 92.67 981.54 128 981.54 L 402 981.54 C 426 997.54 471.67 1049.21 539 1136.54 C 577.67 1186.54 613.33 1229.21 646 1264.54 C 662 1281.21 688.12 1334.19 706.41 1369.66 C 724.7 1405.13 728.37 1399.08 747.53 1434.4 C 766.69 1469.72 803.83 1499.97 832.5 1527.97 C 858.5 1552.64 904.67 1551.26 938.67 1551.26 C 994.67 1551.26 1003.76 1549.64 1048.43 1527.97 C 1093.1 1506.3 1086.01 1512.39 1109.34 1466.39 C 1132.67 1420.39 1152 1379.54 1152 1301.54 C 1152 1239.54 1136 1175.54 1104 1109.54 L 1280 1109.54 C 1349.33 1109.54 1409.33 1084.21 1460 1033.54 C 1510.67 982.87 1536 923.21 1536 854.54 Z" id="path3892" style="fill: rgba(40, 112, 29, 0.2);"/>
  </g>
</svg>